Kufam-BlackItalic.ufo
<glyph name="exclam" format="2">
  <advance width="364"/>
  <unicode hex="0021"/>
  <note>
exclam
</note>
  <outline>
    <contour>
      <point x="96" y="280" type="curve"/>
      <point x="276" y="280" type="line"/>
      <point x="292" y="320"/>
      <point x="317" y="417"/>
      <point x="332" y="488" type="curve" smooth="yes"/>
      <point x="348" y="564" type="line" smooth="yes"/>
      <point x="360" y="622"/>
      <point x="369" y="672"/>
      <point x="384" y="708" type="curve"/>
      <point x="380" y="720" type="line"/>
      <point x="168" y="720" type="line"/>
      <point x="120" y="488" type="line" smooth="yes"/>
      <point x="105" y="417"/>
      <point x="96" y="320"/>
    </contour>
    <contour>
      <point x="132" y="-12" type="curve" smooth="yes"/>
      <point x="204" y="-12"/>
      <point x="264" y="40"/>
      <point x="264" y="120" type="curve" smooth="yes"/>
      <point x="264" y="172"/>
      <point x="225" y="208"/>
      <point x="168" y="208" type="curve" smooth="yes"/>
      <point x="95" y="208"/>
      <point x="36" y="156"/>
      <point x="36" y="76" type="curve" smooth="yes"/>
      <point x="36" y="24"/>
      <point x="75" y="-12"/>
    </contour>
  </outline>
</glyph>
<glyph name="parenleft" format="2">
  <advance width="392"/>
  <unicode hex="0028"/>
  <note>
parenleft
</note>
  <outline>
    <contour>
      <point x="124" y="-88" type="curve"/>
      <point x="320" y="-88" type="line"/>
      <point x="320" y="-80" type="line"/>
      <point x="272" y="-6"/>
      <point x="244" y="82"/>
      <point x="244" y="192" type="curve" smooth="yes"/>
      <point x="244" y="426"/>
      <point x="352" y="620"/>
      <point x="484" y="752" type="curve"/>
      <point x="484" y="760" type="line"/>
      <point x="276" y="760" type="line"/>
      <point x="128" y="604"/>
      <point x="48" y="386"/>
      <point x="48" y="192" type="curve" smooth="yes"/>
      <point x="48" y="67"/>
      <point x="85" y="-30"/>
    </contour>
  </outline>
</glyph>
<glyph name="period" format="2">
  <advance width="284"/>
  <unicode hex="002E"/>
  <note>
period
</note>
  <outline>
    <contour>
      <point x="92" y="-12" type="curve" smooth="yes"/>
      <point x="164" y="-12"/>
      <point x="224" y="40"/>
      <point x="224" y="120" type="curve" smooth="yes"/>
      <point x="224" y="172"/>
      <point x="185" y="208"/>
      <point x="128" y="208" type="curve" smooth="yes"/>
      <point x="55" y="208"/>
      <point x="-4" y="156"/>
      <point x="-4" y="76" type="curve" smooth="yes"/>
      <point x="-4" y="24"/>
      <point x="35" y="-12"/>
    </contour>
  </outline>
</glyph>
<glyph name="one" format="2">
  <advance width="616"/>
  <unicode hex="0031"/>
  <note>
one
</note>
  <outline>
    <contour>
      <point x="160" y="0" type="line"/>
      <point x="372" y="0" type="line"/>
      <point x="476" y="548" type="line" smooth="yes"/>
      <point x="484" y="588"/>
      <point x="501" y="668"/>
      <point x="516" y="704" type="curve"/>
      <point x="516" y="716" type="line"/>
      <point x="495" y="720"/>
      <point x="440" y="728"/>
      <point x="364" y="728" type="curve" smooth="yes"/>
      <point x="252" y="728"/>
      <point x="176" y="722"/>
      <point x="139" y="716" type="curve"/>
      <point x="108" y="552" type="line"/>
      <point x="272" y="552" type="line"/>
      <point x="263" y="536"/>
      <point x="253" y="492"/>
      <point x="248" y="468" type="curve" smooth="yes"/>
    </contour>
    <contour>
      <point x="-10" y="0" type="line"/>
      <point x="534" y="0" type="line"/>
      <point x="568" y="176" type="line"/>
      <point x="24" y="176" type="line"/>
    </contour>
  </outline>
</glyph>
<glyph name="four" format="2">
  <advance width="616"/>
  <unicode hex="0034"/>
  <note>
four
</note>
  <outline>
    <contour>
      <point x="4" y="148" type="line"/>
      <point x="152" y="148" type="line"/>
      <point x="288" y="460" type="line" smooth="yes"/>
      <point x="315" y="521"/>
      <point x="340" y="552"/>
      <point x="408" y="552" type="curve" smooth="yes"/>
      <point x="436" y="552"/>
      <point x="508" y="538"/>
      <point x="528" y="536" type="curve"/>
      <point x="632" y="708" type="line"/>
      <point x="600" y="718"/>
      <point x="556" y="728"/>
      <point x="496" y="728" type="curve" smooth="yes"/>
      <point x="336" y="728"/>
      <point x="206" y="697"/>
      <point x="112" y="480" type="curve" smooth="yes"/>
      <point x="32" y="296" type="line"/>
    </contour>
    <contour>
      <point x="292" y="0" type="line"/>
      <point x="488" y="0" type="line"/>
      <point x="592" y="552" type="line" smooth="yes"/>
      <point x="600" y="592"/>
      <point x="617" y="660"/>
      <point x="632" y="696" type="curve"/>
      <point x="632" y="708" type="line"/>
      <point x="424" y="708" type="line"/>
      <point x="424" y="608" type="line"/>
      <point x="410" y="588"/>
      <point x="396" y="552"/>
      <point x="388" y="508" type="curve" smooth="yes"/>
    </contour>
    <contour>
      <point x="112" y="148" type="line"/>
      <point x="584" y="148" type="line"/>
      <point x="616" y="316" type="line"/>
      <point x="144" y="316" type="line"/>
    </contour>
  </outline>
</glyph>
<glyph name="nine" format="2">
  <advance width="616"/>
  <unicode hex="0039"/>
  <note>
nine
</note>
  <outline>
    <contour>
      <point x="176" y="-12" type="curve" smooth="yes"/>
      <point x="520" y="-12"/>
      <point x="628" y="228"/>
      <point x="628" y="460" type="curve" smooth="yes"/>
      <point x="628" y="620"/>
      <point x="544" y="732"/>
      <point x="360" y="732" type="curve" smooth="yes"/>
      <point x="196" y="732"/>
      <point x="64" y="640"/>
      <point x="64" y="452" type="curve" smooth="yes"/>
      <point x="64" y="348"/>
      <point x="124" y="248"/>
      <point x="276" y="248" type="curve" smooth="yes"/>
      <point x="336" y="248"/>
      <point x="380" y="264"/>
      <point x="414" y="296" type="curve"/>
      <point x="484" y="432" type="line"/>
      <point x="432" y="432" type="line"/>
      <point x="414" y="412"/>
      <point x="380" y="396"/>
      <point x="340" y="396" type="curve" smooth="yes"/>
      <point x="288" y="396"/>
      <point x="264" y="424"/>
      <point x="264" y="472" type="curve" smooth="yes"/>
      <point x="264" y="524"/>
      <point x="292" y="576"/>
      <point x="352" y="576" type="curve" smooth="yes"/>
      <point x="408" y="576"/>
      <point x="428" y="536"/>
      <point x="428" y="472" type="curve" smooth="yes"/>
      <point x="428" y="332"/>
      <point x="404" y="152"/>
      <point x="192" y="152" type="curve" smooth="yes"/>
      <point x="152" y="152"/>
      <point x="112" y="160"/>
      <point x="92" y="168" type="curve"/>
      <point x="80" y="168" type="line"/>
      <point x="48" y="0" type="line"/>
      <point x="80" y="-8"/>
      <point x="136" y="-12"/>
    </contour>
  </outline>
</glyph>
<glyph name="semicolon" format="2">
  <advance width="284"/>
  <unicode hex="003B"/>
  <note>
semicolon
</note>
  <outline>
    <contour>
      <point x="160" y="324" type="curve" smooth="yes"/>
      <point x="232" y="324"/>
      <point x="292" y="376"/>
      <point x="292" y="456" type="curve" smooth="yes"/>
      <point x="292" y="508"/>
      <point x="253" y="544"/>
      <point x="196" y="544" type="curve" smooth="yes"/>
      <point x="123" y="544"/>
      <point x="64" y="492"/>
      <point x="64" y="412" type="curve" smooth="yes"/>
      <point x="64" y="360"/>
      <point x="103" y="324"/>
    </contour>
    <contour>
      <point x="40" y="4" type="curve"/>
      <point x="-80" y="-152" type="line"/>
      <point x="-80" y="-160" type="line"/>
      <point x="68" y="-160" type="line"/>
      <point x="144" y="-52" type="line" smooth="yes"/>
      <point x="174" y="-10"/>
      <point x="224" y="54"/>
      <point x="224" y="116" type="curve" smooth="yes"/>
      <point x="224" y="172"/>
      <point x="180" y="208"/>
      <point x="124" y="208" type="curve" smooth="yes"/>
      <point x="51" y="208"/>
      <point x="-4" y="154"/>
      <point x="-4" y="80" type="curve" smooth="yes"/>
      <point x="-4" y="41"/>
      <point x="18" y="16"/>
    </contour>
  </outline>
</glyph>
<glyph name="greater" format="2">
  <advance width="616"/>
  <unicode hex="003E"/>
  <note>
greater
</note>
  <outline>
    <contour>
      <point x="104" y="60" type="line"/>
      <point x="544" y="280" type="line"/>
      <point x="544" y="360" type="line"/>
      <point x="104" y="580" type="line"/>
      <point x="96" y="580" type="line"/>
      <point x="96" y="444" type="line"/>
      <point x="356" y="320" type="line"/>
      <point x="96" y="200" type="line"/>
      <point x="96" y="60" type="line"/>
    </contour>
  </outline>
</glyph>
<glyph name="at" format="2">
  <advance width="994"/>
  <unicode hex="0040"/>
  <note>
at
</note>
  <outline>
    <contour>
      <point x="468" y="-188" type="curve" smooth="yes"/>
      <point x="540" y="-188"/>
      <point x="604" y="-180"/>
      <point x="656" y="-160" type="curve"/>
      <point x="676" y="-40" type="line"/>
      <point x="664" y="-40" type="line"/>
      <point x="616" y="-60"/>
      <point x="544" y="-68"/>
      <point x="480" y="-68" type="curve" smooth="yes"/>
      <point x="300" y="-68"/>
      <point x="168" y="32"/>
      <point x="168" y="228" type="curve" smooth="yes"/>
      <point x="168" y="496"/>
      <point x="332" y="620"/>
      <point x="560" y="620" type="curve" smooth="yes"/>
      <point x="748" y="620"/>
      <point x="860" y="536"/>
      <point x="860" y="396" type="curve" smooth="yes"/>
      <point x="860" y="264"/>
      <point x="794" y="198"/>
      <point x="702" y="168" type="curve"/>
      <point x="703" y="180"/>
      <point x="705" y="192"/>
      <point x="708" y="204" type="curve"/>
      <point x="724" y="288" type="line" smooth="yes"/>
      <point x="753" y="441"/>
      <point x="660" y="504"/>
      <point x="528" y="504" type="curve" smooth="yes"/>
      <point x="476" y="504"/>
      <point x="420" y="494"/>
      <point x="386" y="484" type="curve"/>
      <point x="364" y="360" type="line"/>
      <point x="372" y="360" type="line"/>
      <point x="400" y="370"/>
      <point x="436" y="380"/>
      <point x="476" y="380" type="curve" smooth="yes"/>
      <point x="560" y="380"/>
      <point x="572" y="352"/>
      <point x="556" y="292" type="curve"/>
      <point x="545" y="236" type="line" smooth="yes"/>
      <point x="540" y="212"/>
      <point x="516" y="120"/>
      <point x="576" y="108" type="curve"/>
      <point x="580" y="144" type="line"/>
      <point x="557" y="144"/>
      <point x="535" y="144"/>
      <point x="512" y="144" type="curve" smooth="yes"/>
      <point x="476" y="144"/>
      <point x="444" y="152"/>
      <point x="444" y="182" type="curve" smooth="yes"/>
      <point x="444" y="212"/>
      <point x="472" y="224"/>
      <point x="512" y="224" type="curve" smooth="yes"/>
      <point x="536" y="224"/>
      <point x="548" y="220"/>
      <point x="560" y="216" type="curve"/>
      <point x="576" y="300" type="line"/>
      <point x="556" y="308"/>
      <point x="532" y="316"/>
      <point x="492" y="316" type="curve" smooth="yes"/>
      <point x="392" y="316"/>
      <point x="288" y="288"/>
      <point x="288" y="172" type="curve" smooth="yes"/>
      <point x="288" y="80"/>
      <point x="368" y="32"/>
      <point x="512" y="32" type="curve" smooth="yes"/>
      <point x="784" y="32"/>
      <point x="988" y="144"/>
      <point x="988" y="400" type="curve" smooth="yes"/>
      <point x="988" y="592"/>
      <point x="828" y="740"/>
      <point x="564" y="740" type="curve" smooth="yes"/>
      <point x="252" y="740"/>
      <point x="36" y="560"/>
      <point x="36" y="224" type="curve" smooth="yes"/>
      <point x="36" y="-20"/>
      <point x="204" y="-188"/>
    </contour>
  </outline>
</glyph>
<glyph name="C" format="2">
  <advance width="648"/>
  <unicode hex="0043"/>
  <note>
C
</note>
  <anchor x="271" y="0" name="bottom"/>
  <anchor x="411" y="720" name="top"/>
  <outline>
    <contour>
      <point x="48" y="314" type="curve" smooth="yes"/>
      <point x="48" y="110"/>
      <point x="172" y="-12"/>
      <point x="414" y="-12" type="curve" smooth="yes"/>
      <point x="474" y="-12"/>
      <point x="520" y="0"/>
      <point x="556" y="12" type="curve"/>
      <point x="588" y="188" type="line"/>
      <point x="576" y="188" type="line"/>
      <point x="546" y="174"/>
      <point x="496" y="164"/>
      <point x="444" y="164" type="curve" smooth="yes"/>
      <point x="316" y="164"/>
      <point x="264" y="228"/>
      <point x="264" y="326" type="curve" smooth="yes"/>
      <point x="264" y="452"/>
      <point x="344" y="556"/>
      <point x="508" y="556" type="curve" smooth="yes"/>
      <point x="572" y="556"/>
      <point x="614" y="542"/>
      <point x="640" y="528" type="curve"/>
      <point x="652" y="528" type="line"/>
      <point x="686" y="708" type="line"/>
      <point x="660" y="720"/>
      <point x="592" y="732"/>
      <point x="508" y="732" type="curve" smooth="yes"/>
      <point x="224" y="732"/>
      <point x="48" y="556"/>
    </contour>
  </outline>
</glyph>
<glyph name="E" format="2">
  <advance width="612"/>
  <unicode hex="0045"/>
  <note>
E
</note>
  <anchor x="284" y="0" name="bottom"/>
  <anchor x="512" y="0" name="ogonek"/>
  <anchor x="423" y="720" name="top"/>
  <anchor x="107" y="720" name="topleft"/>
  <outline>
    <contour>
      <point x="20" y="0" type="line"/>
      <point x="232" y="0" type="line"/>
      <point x="372" y="720" type="line"/>
      <point x="160" y="720" type="line"/>
    </contour>
    <contour>
      <point x="168" y="0" type="line"/>
      <point x="512" y="0" type="line"/>
      <point x="546" y="184" type="line"/>
      <point x="204" y="184" type="line"/>
    </contour>
    <contour>
      <point x="224" y="268" type="line"/>
      <point x="508" y="268" type="line"/>
      <point x="540" y="440" type="line"/>
      <point x="256" y="440" type="line"/>
    </contour>
    <contour>
      <point x="272" y="536" type="line"/>
      <point x="610" y="536" type="line"/>
      <point x="644" y="720" type="line"/>
      <point x="308" y="720" type="line"/>
    </contour>
  </outline>
</glyph>
<glyph name="I" format="2">
  <advance width="348"/>
  <unicode hex="0049"/>
  <note>
I
</note>
  <anchor x="121" y="0" name="bottom"/>
  <anchor x="232" y="0" name="ogonek"/>
  <anchor x="261" y="720" name="top"/>
  <anchor x="107" y="720" name="topleft"/>
  <outline>
    <contour>
      <point x="160" y="720" type="line"/>
      <point x="20" y="0" type="line"/>
      <point x="232" y="0" type="line"/>
      <point x="372" y="720" type="line"/>
    </contour>
  </outline>
</glyph>
<glyph name="K" format="2">
  <advance width="724"/>
  <unicode hex="004B"/>
  <note>
K
</note>
  <anchor x="309" y="0" name="bottom"/>
  <anchor x="449" y="720" name="top"/>
  <outline>
    <contour>
      <point x="220" y="232" type="line"/>
      <point x="312" y="232" type="line" smooth="yes"/>
      <point x="456" y="232"/>
      <point x="564" y="300"/>
      <point x="636" y="436" type="curve" smooth="yes"/>
      <point x="780" y="708" type="line"/>
      <point x="780" y="720" type="line"/>
      <point x="572" y="720" type="line"/>
      <point x="460" y="492" type="line" smooth="yes"/>
      <point x="437" y="444"/>
      <point x="396" y="412"/>
      <point x="332" y="412" type="curve" smooth="yes"/>
      <point x="256" y="412" type="line"/>
    </contour>
    <contour>
      <point x="20" y="0" type="line"/>
      <point x="232" y="0" type="line"/>
      <point x="372" y="720" type="line"/>
      <point x="160" y="720" type="line"/>
    </contour>
    <contour>
      <point x="436" y="0" type="line"/>
      <point x="652" y="0" type="line"/>
      <point x="652" y="12" type="line"/>
      <point x="516" y="324" type="line"/>
      <point x="332" y="264" type="line"/>
    </contour>
  </outline>
</glyph>
<glyph name="M" format="2">
  <advance width="896"/>
  <unicode hex="004D"/>
  <note>
M
</note>
  <anchor x="395" y="0" name="bottom"/>
  <anchor x="535" y="720" name="top"/>
  <outline>
    <contour>
      <point x="156" y="720" type="line"/>
      <point x="20" y="0" type="line"/>
      <point x="232" y="0" type="line"/>
      <point x="312" y="424" type="line"/>
      <point x="260" y="436" type="line"/>
      <point x="380" y="124" type="line"/>
      <point x="480" y="124" type="line"/>
      <point x="696" y="408" type="line"/>
      <point x="656" y="444" type="line"/>
      <point x="572" y="0" type="line"/>
      <point x="784" y="0" type="line"/>
      <point x="920" y="720" type="line"/>
      <point x="736" y="720" type="line"/>
      <point x="420" y="308" type="line"/>
      <point x="496" y="304" type="line"/>
      <point x="336" y="720" type="line"/>
    </contour>
  </outline>
</glyph>
<glyph name="O" format="2">
  <advance width="833"/>
  <unicode hex="004F"/>
  <note>
O
</note>
  <anchor x="363" y="0" name="bottom"/>
  <anchor x="433" y="360" name="center"/>
  <anchor x="503" y="0" name="ogonek"/>
  <anchor x="503" y="720" name="top"/>
  <anchor x="107" y="720" name="topleft"/>
  <anchor x="587" y="713" name="topright"/>
  <outline>
    <contour>
      <point x="48" y="304" type="curve" smooth="yes"/>
      <point x="48" y="104"/>
      <point x="176" y="-12"/>
      <point x="392" y="-12" type="curve" smooth="yes"/>
      <point x="660" y="-12"/>
      <point x="824" y="180"/>
      <point x="824" y="416" type="curve" smooth="yes"/>
      <point x="824" y="608"/>
      <point x="696" y="732"/>
      <point x="480" y="732" type="curve" smooth="yes"/>
      <point x="212" y="732"/>
      <point x="48" y="532"/>
    </contour>
    <contour>
      <point x="264" y="316" type="curve" smooth="yes"/>
      <point x="264" y="412"/>
      <point x="328" y="556"/>
      <point x="468" y="556" type="curve" smooth="yes"/>
      <point x="552" y="556"/>
      <point x="608" y="508"/>
      <point x="608" y="404" type="curve" smooth="yes"/>
      <point x="608" y="308"/>
      <point x="544" y="164"/>
      <point x="404" y="164" type="curve" smooth="yes"/>
      <point x="320" y="164"/>
      <point x="264" y="212"/>
    </contour>
  </outline>
</glyph>
<glyph name="P" format="2">
  <advance width="712"/>
  <unicode hex="0050"/>
  <note>
P
</note>
  <anchor x="303" y="0" name="bottom"/>
  <anchor x="443" y="720" name="top"/>
  <outline>
    <contour>
      <point x="200" y="160" type="line"/>
      <point x="368" y="160" type="line" smooth="yes"/>
      <point x="572" y="160"/>
      <point x="724" y="304"/>
      <point x="724" y="480" type="curve" smooth="yes"/>
      <point x="724" y="644"/>
      <point x="620" y="720"/>
      <point x="440" y="720" type="curve" smooth="yes"/>
      <point x="308" y="720" type="line"/>
      <point x="276" y="544" type="line"/>
      <point x="424" y="544" type="line" smooth="yes"/>
      <point x="476" y="544"/>
      <point x="512" y="520"/>
      <point x="512" y="464" type="curve" smooth="yes"/>
      <point x="512" y="396"/>
      <point x="464" y="328"/>
      <point x="368" y="328" type="curve" smooth="yes"/>
      <point x="232" y="328" type="line"/>
    </contour>
    <contour>
      <point x="20" y="0" type="line"/>
      <point x="232" y="0" type="line"/>
      <point x="372" y="720" type="line"/>
      <point x="160" y="720" type="line"/>
    </contour>
  </outline>
</glyph>
<glyph name="R" format="2">
  <advance width="748"/>
  <unicode hex="0052"/>
  <note>
R
</note>
  <anchor x="321" y="0" name="bottom"/>
  <anchor x="461" y="720" name="top"/>
  <outline>
    <contour>
      <point x="192" y="152" type="line"/>
      <point x="376" y="152" type="line"/>
      <point x="512" y="152"/>
      <point x="732" y="272"/>
      <point x="732" y="480" type="curve" smooth="yes"/>
      <point x="732" y="640"/>
      <point x="632" y="720"/>
      <point x="452" y="720" type="curve" smooth="yes"/>
      <point x="304" y="720" type="line"/>
      <point x="272" y="544" type="line"/>
      <point x="428" y="544" type="line" smooth="yes"/>
      <point x="484" y="544"/>
      <point x="520" y="524"/>
      <point x="520" y="468" type="curve" smooth="yes"/>
      <point x="520" y="400"/>
      <point x="468" y="320"/>
      <point x="364" y="320" type="curve" smooth="yes"/>
      <point x="228" y="320" type="line"/>
    </contour>
    <contour>
      <point x="20" y="0" type="line"/>
      <point x="232" y="0" type="line"/>
      <point x="372" y="720" type="line"/>
      <point x="160" y="720" type="line"/>
    </contour>
    <contour>
      <point x="424" y="0" type="line"/>
      <point x="648" y="0" type="line"/>
      <point x="648" y="12" type="line"/>
      <point x="524" y="236" type="line"/>
      <point x="344" y="176" type="line"/>
    </contour>
  </outline>
</glyph>
<glyph name="T" format="2">
  <advance width="656"/>
  <unicode hex="0054"/>
  <note>
T
</note>
  <anchor x="284" y="0" name="bottom"/>
  <anchor x="345" y="360" name="center"/>
  <anchor x="415" y="720" name="top"/>
  <outline>
    <contour>
      <point x="110" y="720" type="line"/>
      <point x="76" y="536" type="line"/>
      <point x="279" y="536" type="line"/>
      <point x="178" y="0" type="line"/>
      <point x="390" y="0" type="line"/>
      <point x="491" y="536" type="line"/>
      <point x="692" y="536" type="line"/>
      <point x="726" y="720" type="line"/>
    </contour>
  </outline>
</glyph>
<glyph name="U" format="2">
  <advance width="772"/>
  <unicode hex="0055"/>
  <note>
U
</note>
  <anchor x="333" y="0" name="bottom"/>
  <anchor x="400" y="10" name="ogonek"/>
  <anchor x="474" y="720" name="top"/>
  <anchor x="738" y="720" name="topright"/>
  <outline>
    <contour>
      <point x="68" y="220" type="curve" smooth="yes"/>
      <point x="68" y="72"/>
      <point x="164" y="-12"/>
      <point x="354" y="-12" type="curve" smooth="yes"/>
      <point x="576" y="-12"/>
      <point x="682" y="104"/>
      <point x="722" y="316" type="curve" smooth="yes"/>
      <point x="798" y="720" type="line"/>
      <point x="586" y="720" type="line"/>
      <point x="506" y="300" type="line" smooth="yes"/>
      <point x="490" y="216"/>
      <point x="446" y="164"/>
      <point x="374" y="164" type="curve" smooth="yes"/>
      <point x="307" y="164"/>
      <point x="282" y="200"/>
      <point x="282" y="252" type="curve" smooth="yes"/>
      <point x="282" y="268"/>
      <point x="283" y="283"/>
      <point x="286" y="300" type="curve" smooth="yes"/>
      <point x="366" y="720" type="line"/>
      <point x="154" y="720" type="line"/>
      <point x="78" y="320" type="line" smooth="yes"/>
      <point x="71" y="284"/>
      <point x="68" y="252"/>
    </contour>
  </outline>
</glyph>
<glyph name="W" format="2">
  <advance width="1124"/>
  <unicode hex="0057"/>
  <note>
W
</note>
  <guideline x="523" y="167" angle="258.0917"/>
  <anchor x="509" y="0" name="bottom"/>
  <anchor x="649" y="720" name="top"/>
  <outline>
    <contour>
      <point x="644" y="-8" type="curve" smooth="yes"/>
      <point x="817" y="-8"/>
      <point x="975" y="63"/>
      <point x="1036" y="240" type="curve" smooth="yes"/>
      <point x="1200" y="720" type="line"/>
      <point x="984" y="720" type="line"/>
      <point x="828" y="260" type="line" smooth="yes"/>
      <point x="806" y="197"/>
      <point x="756" y="168"/>
      <point x="680" y="168" type="curve" smooth="yes"/>
      <point x="656" y="168"/>
      <point x="633" y="170"/>
      <point x="608" y="176" type="curve"/>
      <point x="684" y="124" type="line"/>
      <point x="692" y="154"/>
      <point x="701" y="204"/>
      <point x="708" y="260" type="curve" smooth="yes"/>
      <point x="760" y="720" type="line"/>
      <point x="556" y="720" type="line"/>
      <point x="492" y="144" type="line" smooth="yes"/>
      <point x="487" y="105"/>
      <point x="480" y="60"/>
      <point x="468" y="24" type="curve"/>
      <point x="476" y="12" type="line"/>
      <point x="528" y="0"/>
      <point x="585" y="-8"/>
    </contour>
    <contour>
      <point x="208" y="-8" type="curve" smooth="yes"/>
      <point x="380" y="-8"/>
      <point x="506" y="93"/>
      <point x="538" y="240" type="curve" smooth="yes"/>
      <point x="556" y="324" type="line"/>
      <point x="560" y="580" type="line"/>
      <point x="428" y="280" type="line" smooth="yes"/>
      <point x="401" y="218"/>
      <point x="364" y="168"/>
      <point x="288" y="168" type="curve" smooth="yes"/>
      <point x="276" y="168"/>
      <point x="268" y="168"/>
      <point x="240" y="184" type="curve"/>
      <point x="264" y="128" type="line"/>
      <point x="272" y="152"/>
      <point x="281" y="203"/>
      <point x="288" y="260" type="curve" smooth="yes"/>
      <point x="340" y="720" type="line"/>
      <point x="128" y="720" type="line"/>
      <point x="68" y="184" type="line" smooth="yes"/>
      <point x="63" y="137"/>
      <point x="56" y="72"/>
      <point x="40" y="24" type="curve"/>
      <point x="48" y="12" type="line"/>
      <point x="84" y="0"/>
      <point x="156" y="-8"/>
    </contour>
  </outline>
</glyph>
<glyph name="X" format="2">
  <advance width="726"/>
  <unicode hex="0058"/>
  <note>
X
</note>
  <anchor x="310" y="0" name="bottom"/>
  <anchor x="450" y="720" name="top"/>
  <outline>
    <contour>
      <point x="-36" y="0" type="line"/>
      <point x="200" y="0" type="line"/>
      <point x="432" y="288" type="line"/>
      <point x="808" y="708" type="line"/>
      <point x="808" y="720" type="line"/>
      <point x="572" y="720" type="line"/>
      <point x="344" y="436" type="line"/>
      <point x="-36" y="12" type="line"/>
    </contour>
    <contour>
      <point x="440" y="0" type="line"/>
      <point x="672" y="0" type="line"/>
      <point x="672" y="12" type="line"/>
      <point x="464" y="436" type="line"/>
      <point x="328" y="720" type="line"/>
      <point x="96" y="720" type="line"/>
      <point x="96" y="708" type="line"/>
      <point x="308" y="272" type="line"/>
    </contour>
  </outline>
</glyph>
<glyph name="backslash" format="2">
  <advance width="588"/>
  <unicode hex="005C"/>
  <note>
backslash
</note>
  <outline>
    <contour>
      <point x="336" y="0" type="line"/>
      <point x="508" y="0" type="line"/>
      <point x="292" y="720" type="line"/>
      <point x="120" y="720" type="line"/>
    </contour>
  </outline>
</glyph>
<glyph name="asciicircum" format="2">
  <advance width="616"/>
  <unicode hex="005E"/>
  <note>
asciicircum
</note>
  <outline>
    <contour>
      <point x="93" y="380" type="line"/>
      <point x="233" y="380" type="line"/>
      <point x="320" y="536" type="line"/>
      <point x="410" y="380" type="line"/>
      <point x="546" y="380" type="line"/>
      <point x="546" y="388" type="line"/>
      <point x="360" y="720" type="line"/>
      <point x="280" y="720" type="line"/>
      <point x="93" y="388" type="line"/>
    </contour>
  </outline>
</glyph>
<glyph name="a" format="2">
  <advance width="624"/>
  <unicode hex="0061"/>
  <note>
a
</note>
  <anchor x="259" y="0" name="bottom"/>
  <anchor x="524" y="20" name="ogonek"/>
  <anchor x="365" y="548" name="top"/>
  <outline>
    <contour>
      <point x="284" y="-12" type="curve" smooth="yes"/>
      <point x="372" y="-12"/>
      <point x="448" y="0"/>
      <point x="524" y="20" type="curve"/>
      <point x="532" y="28" type="line"/>
      <point x="528" y="80"/>
      <point x="542" y="141"/>
      <point x="552" y="192" type="curve" smooth="yes"/>
      <point x="572" y="296" type="line" smooth="yes"/>
      <point x="610" y="493"/>
      <point x="512" y="564"/>
      <point x="316" y="564" type="curve" smooth="yes"/>
      <point x="256" y="564"/>
      <point x="192" y="556"/>
      <point x="142" y="544" type="curve"/>
      <point x="112" y="388" type="line"/>
      <point x="124" y="388" type="line"/>
      <point x="158" y="402"/>
      <point x="212" y="412"/>
      <point x="272" y="412" type="curve" smooth="yes"/>
      <point x="348" y="412"/>
      <point x="389" y="388"/>
      <point x="366" y="307" type="curve"/>
      <point x="352" y="229" type="line"/>
      <point x="342" y="180"/>
      <point x="336" y="108"/>
      <point x="364" y="80" type="curve"/>
      <point x="360" y="132" type="line"/>
      <point x="344" y="124"/>
      <point x="308" y="120"/>
      <point x="292" y="120" type="curve" smooth="yes"/>
      <point x="244" y="120"/>
      <point x="216" y="130"/>
      <point x="216" y="166" type="curve" smooth="yes"/>
      <point x="216" y="202"/>
      <point x="252" y="220"/>
      <point x="300" y="220" type="curve" smooth="yes"/>
      <point x="332" y="220"/>
      <point x="348" y="216"/>
      <point x="364" y="208" type="curve"/>
      <point x="388" y="324" type="line"/>
      <point x="368" y="330"/>
      <point x="328" y="336"/>
      <point x="292" y="336" type="curve" smooth="yes"/>
      <point x="140" y="336"/>
      <point x="24" y="284"/>
      <point x="24" y="152" type="curve" smooth="yes"/>
      <point x="24" y="28"/>
      <point x="112" y="-12"/>
    </contour>
  </outline>
</glyph>
<glyph name="g" format="2">
  <advance width="680"/>
  <unicode hex="0067"/>
  <note>
g
</note>
  <anchor x="240" y="-240" name="bottom"/>
  <anchor x="393" y="548" name="top"/>
  <outline>
    <contour>
      <point x="176" y="-240" type="curve" smooth="yes"/>
      <point x="392" y="-240"/>
      <point x="532" y="-156"/>
      <point x="572" y="48" type="curve" smooth="yes"/>
      <point x="633" y="360" type="line" smooth="yes"/>
      <point x="641" y="400"/>
      <point x="656" y="468"/>
      <point x="672" y="504" type="curve"/>
      <point x="664" y="516" type="line"/>
      <point x="591" y="540"/>
      <point x="510" y="556"/>
      <point x="412" y="556" type="curve" smooth="yes"/>
      <point x="176" y="556"/>
      <point x="36" y="436"/>
      <point x="36" y="232" type="curve" smooth="yes"/>
      <point x="36" y="80"/>
      <point x="128" y="0"/>
      <point x="272" y="0" type="curve" smooth="yes"/>
      <point x="304" y="0"/>
      <point x="356" y="8"/>
      <point x="372" y="20" type="curve"/>
      <point x="400" y="168" type="line"/>
      <point x="388" y="160"/>
      <point x="368" y="152"/>
      <point x="340" y="152" type="curve" smooth="yes"/>
      <point x="272" y="152"/>
      <point x="252" y="192"/>
      <point x="252" y="248" type="curve" smooth="yes"/>
      <point x="252" y="332"/>
      <point x="296" y="408"/>
      <point x="384" y="408" type="curve" smooth="yes"/>
      <point x="412" y="408"/>
      <point x="424" y="405"/>
      <point x="444" y="396" type="curve"/>
      <point x="444" y="428" type="line"/>
      <point x="430" y="404"/>
      <point x="424" y="372"/>
      <point x="416" y="332" type="curve" smooth="yes"/>
      <point x="360" y="52" type="line"/>
      <point x="348" y="-44"/>
      <point x="296" y="-76"/>
      <point x="188" y="-76" type="curve" smooth="yes"/>
      <point x="140" y="-76"/>
      <point x="84" y="-64"/>
      <point x="52" y="-44" type="curve"/>
      <point x="40" y="-44" type="line"/>
      <point x="8" y="-208" type="line"/>
      <point x="44" y="-228"/>
      <point x="120" y="-240"/>
    </contour>
  </outline>
</glyph>
<glyph name="k" format="2">
  <advance width="680"/>
  <unicode hex="006B"/>
  <note>
k
</note>
  <anchor x="287" y="0" name="bottom"/>
  <anchor x="434" y="760" name="top"/>
  <outline>
    <contour>
      <point x="500" y="548" type="line"/>
      <point x="244" y="288" type="line"/>
      <point x="384" y="0" type="line"/>
      <point x="612" y="0" type="line"/>
      <point x="612" y="12" type="line"/>
      <point x="592" y="40"/>
      <point x="578" y="63"/>
      <point x="560" y="96" type="curve" smooth="yes"/>
      <point x="416" y="368" type="line"/>
      <point x="396" y="221" type="line"/>
      <point x="612" y="432" type="line" smooth="yes"/>
      <point x="644" y="463"/>
      <point x="704" y="516"/>
      <point x="732" y="536" type="curve"/>
      <point x="732" y="548" type="line"/>
    </contour>
    <contour>
      <point x="228" y="0" type="line"/>
      <point x="376" y="760" type="line"/>
      <point x="153" y="760" type="line"/>
      <point x="145" y="748" type="line"/>
      <point x="147" y="696"/>
      <point x="140" y="644"/>
      <point x="131" y="596" type="curve" smooth="yes"/>
      <point x="16" y="0" type="line"/>
    </contour>
  </outline>
</glyph>
<glyph name="l" format="2">
  <advance width="348"/>
  <unicode hex="006C"/>
  <note>
l
</note>
  <anchor x="116" y="0" name="bottom"/>
  <anchor x="204" y="380" name="center"/>
  <anchor x="439" y="356" name="periodCAT"/>
  <anchor x="277" y="760" name="top"/>
  <anchor x="482" y="548" name="topright"/>
  <outline>
    <contour>
      <point x="20" y="0" type="line"/>
      <point x="232" y="0" type="line"/>
      <point x="380" y="760" type="line"/>
      <point x="157" y="760" type="line"/>
      <point x="149" y="748" type="line"/>
      <point x="151" y="696"/>
      <point x="144" y="644"/>
      <point x="135" y="596" type="curve" smooth="yes"/>
    </contour>
  </outline>
</glyph>
<glyph name="n" format="2">
  <advance width="692"/>
  <unicode hex="006E"/>
  <note>
n
</note>
  <anchor x="293" y="0" name="bottom"/>
  <anchor x="399" y="548" name="top"/>
  <outline>
    <contour>
      <point x="20" y="0" type="line"/>
      <point x="232" y="0" type="line"/>
      <point x="292" y="312" type="line" smooth="yes"/>
      <point x="301" y="361"/>
      <point x="308" y="408"/>
      <point x="296" y="440" type="curve"/>
      <point x="268" y="376" type="line"/>
      <point x="284" y="388"/>
      <point x="316" y="400"/>
      <point x="352" y="400" type="curve" smooth="yes"/>
      <point x="412" y="400"/>
      <point x="428" y="368"/>
      <point x="428" y="332" type="curve" smooth="yes"/>
      <point x="428" y="323"/>
      <point x="427" y="308"/>
      <point x="424" y="292" type="curve" smooth="yes"/>
      <point x="368" y="0" type="line"/>
      <point x="580" y="0" type="line"/>
      <point x="636" y="292" type="line" smooth="yes"/>
      <point x="642" y="322"/>
      <point x="644" y="348"/>
      <point x="644" y="372" type="curve" smooth="yes"/>
      <point x="644" y="512"/>
      <point x="548" y="564"/>
      <point x="368" y="564" type="curve" smooth="yes"/>
      <point x="276" y="564"/>
      <point x="176" y="544"/>
      <point x="116" y="524" type="curve"/>
      <point x="108" y="516" type="line"/>
      <point x="108" y="464"/>
      <point x="98" y="403"/>
      <point x="88" y="352" type="curve" smooth="yes"/>
    </contour>
  </outline>
</glyph>
<glyph name="r" format="2">
  <advance width="444"/>
  <unicode hex="0072"/>
  <note>
r
</note>
  <anchor x="120" y="0" name="bottom"/>
  <anchor x="275" y="548" name="top"/>
  <outline>
    <contour>
      <point x="84" y="352" type="curve" smooth="yes"/>
      <point x="16" y="0" type="line"/>
      <point x="228" y="0" type="line"/>
      <point x="288" y="312" type="line" smooth="yes"/>
      <point x="298" y="364"/>
      <point x="300" y="412"/>
      <point x="296" y="448" type="curve"/>
      <point x="260" y="380" type="line"/>
      <point x="282" y="398"/>
      <point x="312" y="404"/>
      <point x="364" y="404" type="curve" smooth="yes"/>
      <point x="392" y="404"/>
      <point x="416" y="400"/>
      <point x="440" y="392" type="curve"/>
      <point x="452" y="392" type="line"/>
      <point x="484" y="556" type="line"/>
      <point x="435" y="563"/>
      <point x="392" y="564"/>
      <point x="376" y="564" type="curve" smooth="yes"/>
      <point x="248" y="564"/>
      <point x="172" y="544"/>
      <point x="112" y="524" type="curve"/>
      <point x="104" y="516" type="line"/>
      <point x="104" y="464"/>
      <point x="94" y="403"/>
    </contour>
  </outline>
</glyph>
<glyph name="s" format="2">
  <advance width="568"/>
  <unicode hex="0073"/>
  <note>
s
</note>
  <anchor x="231" y="0" name="bottom"/>
  <anchor x="337" y="548" name="top"/>
  <outline>
    <contour>
      <point x="36" y="184" type="line"/>
      <point x="4" y="20" type="line"/>
      <point x="64" y="0"/>
      <point x="136" y="-8"/>
      <point x="212" y="-8" type="curve" smooth="yes"/>
      <point x="412" y="-8"/>
      <point x="520" y="60"/>
      <point x="520" y="180" type="curve" smooth="yes"/>
      <point x="520" y="276"/>
      <point x="452" y="314"/>
      <point x="372" y="332" type="curve" smooth="yes"/>
      <point x="336" y="340" type="line" smooth="yes"/>
      <point x="295" y="349"/>
      <point x="272" y="356"/>
      <point x="272" y="376" type="curve" smooth="yes"/>
      <point x="272" y="400"/>
      <point x="300" y="408"/>
      <point x="352" y="408" type="curve" smooth="yes"/>
      <point x="396" y="408"/>
      <point x="453" y="401"/>
      <point x="508" y="376" type="curve"/>
      <point x="520" y="376" type="line"/>
      <point x="552" y="540" type="line"/>
      <point x="496" y="556"/>
      <point x="428" y="560"/>
      <point x="364" y="560" type="curve" smooth="yes"/>
      <point x="152" y="560"/>
      <point x="62" y="476"/>
      <point x="62" y="364" type="curve" smooth="yes"/>
      <point x="62" y="268"/>
      <point x="126" y="234"/>
      <point x="208" y="216" type="curve" smooth="yes"/>
      <point x="244" y="208" type="line" smooth="yes"/>
      <point x="285" y="199"/>
      <point x="308" y="194"/>
      <point x="308" y="172" type="curve" smooth="yes"/>
      <point x="308" y="152"/>
      <point x="280" y="144"/>
      <point x="216" y="144" type="curve" smooth="yes"/>
      <point x="156" y="144"/>
      <point x="92" y="160"/>
      <point x="48" y="184" type="curve"/>
    </contour>
  </outline>
</glyph>
<glyph name="u" format="2">
  <advance width="692"/>
  <unicode hex="0075"/>
  <note>
u
</note>
  <anchor x="293" y="0" name="bottom"/>
  <anchor x="584" y="28" name="ogonek"/>
  <anchor x="399" y="548" name="top"/>
  <anchor x="573" y="548" name="topright"/>
  <outline>
    <contour>
      <point x="56" y="180" type="curve" smooth="yes"/>
      <point x="56" y="40"/>
      <point x="152" y="-12"/>
      <point x="332" y="-12" type="curve" smooth="yes"/>
      <point x="424" y="-12"/>
      <point x="524" y="8"/>
      <point x="584" y="28" type="curve"/>
      <point x="592" y="36" type="line"/>
      <point x="592" y="88"/>
      <point x="602" y="149"/>
      <point x="612" y="200" type="curve" smooth="yes"/>
      <point x="680" y="548" type="line"/>
      <point x="458" y="548" type="line"/>
      <point x="450" y="536" type="line"/>
      <point x="452" y="484"/>
      <point x="445" y="432"/>
      <point x="436" y="384" type="curve" smooth="yes"/>
      <point x="408" y="240" type="line" smooth="yes"/>
      <point x="398" y="190"/>
      <point x="396" y="144"/>
      <point x="400" y="108" type="curve"/>
      <point x="448" y="176" type="line"/>
      <point x="420" y="164"/>
      <point x="384" y="152"/>
      <point x="348" y="152" type="curve" smooth="yes"/>
      <point x="288" y="152"/>
      <point x="272" y="184"/>
      <point x="272" y="220" type="curve" smooth="yes"/>
      <point x="272" y="229"/>
      <point x="273" y="244"/>
      <point x="276" y="260" type="curve" smooth="yes"/>
      <point x="332" y="548" type="line"/>
      <point x="110" y="548" type="line"/>
      <point x="102" y="536" type="line"/>
      <point x="104" y="484"/>
      <point x="97" y="432"/>
      <point x="88" y="384" type="curve" smooth="yes"/>
      <point x="64" y="260" type="line" smooth="yes"/>
      <point x="58" y="230"/>
      <point x="56" y="204"/>
    </contour>
  </outline>
</glyph>
<glyph name="w" format="2">
  <advance width="964"/>
  <unicode hex="0077"/>
  <note>
w
</note>
  <anchor x="429" y="0" name="bottom"/>
  <anchor x="535" y="548" name="top"/>
  <outline>
    <contour>
      <point x="60" y="536" type="line"/>
      <point x="112" y="0" type="line"/>
      <point x="344" y="0" type="line"/>
      <point x="524" y="356" type="line"/>
      <point x="476" y="356" type="line"/>
      <point x="512" y="0" type="line"/>
      <point x="740" y="0" type="line"/>
      <point x="1012" y="536" type="line"/>
      <point x="1012" y="548" type="line"/>
      <point x="788" y="548" type="line"/>
      <point x="612" y="128" type="line"/>
      <point x="656" y="120" type="line"/>
      <point x="612" y="548" type="line"/>
      <point x="460" y="548" type="line"/>
      <point x="256" y="140" type="line"/>
      <point x="304" y="136" type="line"/>
      <point x="280" y="548" type="line"/>
      <point x="60" y="548" type="line"/>
    </contour>
  </outline>
</glyph>
<glyph name="y" format="2">
  <advance width="624"/>
  <unicode hex="0079"/>
  <note>
y
</note>
  <anchor x="454" y="0" name="bottom"/>
  <anchor x="365" y="548" name="top"/>
  <outline>
    <contour>
      <point x="24" y="-232" type="line"/>
      <point x="244" y="-232" type="line"/>
      <point x="680" y="536" type="line"/>
      <point x="680" y="548" type="line"/>
      <point x="464" y="548" type="line"/>
      <point x="268" y="152" type="line"/>
      <point x="24" y="-220" type="line"/>
    </contour>
    <contour>
      <point x="152" y="-84" type="line"/>
      <point x="312" y="180" type="line"/>
      <point x="276" y="548" type="line"/>
      <point x="56" y="548" type="line"/>
      <point x="56" y="536" type="line"/>
    </contour>
  </outline>
</glyph>
<glyph name="bar" format="2">
  <advance width="308"/>
  <unicode hex="007C"/>
  <note>
bar
</note>
  <outline>
    <contour>
      <point x="160" y="760" type="line"/>
      <point x="-36" y="-248" type="line"/>
      <point x="156" y="-248" type="line"/>
      <point x="352" y="760" type="line"/>
    </contour>
  </outline>
</glyph>
<glyph name="braceright" format="2">
  <advance width="487"/>
  <unicode hex="007D"/>
  <note>
braceright
</note>
  <outline>
    <contour>
      <point x="-54" y="-88" type="line"/>
      <point x="64" y="-88" type="line" smooth="yes"/>
      <point x="193" y="-88"/>
      <point x="282" y="-44"/>
      <point x="312" y="104" type="curve" smooth="yes"/>
      <point x="328" y="184" type="line" smooth="yes"/>
      <point x="336" y="224"/>
      <point x="360" y="256"/>
      <point x="408" y="256" type="curve" smooth="yes"/>
      <point x="456" y="256" type="line"/>
      <point x="488" y="416" type="line"/>
      <point x="440" y="416" type="line" smooth="yes"/>
      <point x="394" y="416"/>
      <point x="382" y="448"/>
      <point x="388" y="488" type="curve"/>
      <point x="404" y="568" type="line" smooth="yes"/>
      <point x="429" y="697"/>
      <point x="363" y="760"/>
      <point x="228" y="760" type="curve" smooth="yes"/>
      <point x="112" y="760" type="line"/>
      <point x="82" y="616" type="line"/>
      <point x="156" y="616" type="line" smooth="yes"/>
      <point x="196" y="616"/>
      <point x="217" y="589"/>
      <point x="208" y="548" type="curve" smooth="yes"/>
      <point x="192" y="468" type="line" smooth="yes"/>
      <point x="180" y="404"/>
      <point x="206" y="346"/>
      <point x="280" y="336" type="curve"/>
      <point x="207" y="329"/>
      <point x="154" y="276"/>
      <point x="140" y="204" type="curve" smooth="yes"/>
      <point x="124" y="124" type="line" smooth="yes"/>
      <point x="114" y="76"/>
      <point x="93" y="56"/>
      <point x="48" y="56" type="curve" smooth="yes"/>
      <point x="-24" y="56" type="line"/>
    </contour>
  </outline>
</glyph>
<glyph name="asciitilde" format="2">
  <advance width="616"/>
  <unicode hex="007E"/>
  <note>
asciitilde
</note>
  <outline>
    <contour>
      <point x="567" y="426" type="curve"/>
      <point x="444" y="426" type="line"/>
      <point x="444" y="378"/>
      <point x="440" y="340"/>
      <point x="410" y="340" type="curve" smooth="yes"/>
      <point x="381" y="340"/>
      <point x="365" y="364"/>
      <point x="340" y="387" type="curve" smooth="yes"/>
      <point x="318" y="407"/>
      <point x="288" y="426"/>
      <point x="235" y="426" type="curve" smooth="yes"/>
      <point x="126" y="426"/>
      <point x="75" y="340"/>
      <point x="75" y="210" type="curve"/>
      <point x="198" y="210" type="line"/>
      <point x="198" y="258"/>
      <point x="202" y="296"/>
      <point x="232" y="296" type="curve" smooth="yes"/>
      <point x="261" y="296"/>
      <point x="277" y="272"/>
      <point x="302" y="249" type="curve" smooth="yes"/>
      <point x="324" y="229"/>
      <point x="354" y="210"/>
      <point x="407" y="210" type="curve" smooth="yes"/>
      <point x="516" y="210"/>
      <point x="567" y="296"/>
    </contour>
  </outline>
</glyph>
<glyph name="exclamdown" format="2">
  <advance width="364"/>
  <unicode hex="00A1"/>
  <note>
exclamdown
</note>
  <outline>
    <contour>
      <point x="-16" y="-188" type="line"/>
      <point x="196" y="-188" type="line"/>
      <point x="244" y="44" type="line" smooth="yes"/>
      <point x="259" y="115"/>
      <point x="268" y="212"/>
      <point x="268" y="252" type="curve"/>
      <point x="88" y="252" type="line"/>
      <point x="72" y="212"/>
      <point x="47" y="115"/>
      <point x="32" y="44" type="curve" smooth="yes"/>
      <point x="16" y="-32" type="line" smooth="yes"/>
      <point x="4" y="-90"/>
      <point x="-5" y="-140"/>
      <point x="-20" y="-176" type="curve"/>
    </contour>
    <contour>
      <point x="196" y="324" type="curve" smooth="yes"/>
      <point x="269" y="324"/>
      <point x="328" y="376"/>
      <point x="328" y="456" type="curve" smooth="yes"/>
      <point x="328" y="508"/>
      <point x="289" y="544"/>
      <point x="232" y="544" type="curve" smooth="yes"/>
      <point x="160" y="544"/>
      <point x="100" y="492"/>
      <point x="100" y="412" type="curve" smooth="yes"/>
      <point x="100" y="360"/>
      <point x="139" y="324"/>
    </contour>
  </outline>
</glyph>
<glyph name="currency" format="2">
  <advance width="616"/>
  <unicode hex="00A4"/>
  <note>
currency
</note>
  <outline>
    <contour>
      <point x="449" y="134" type="line"/>
      <point x="526" y="199" type="line"/>
      <point x="481" y="254" type="line"/>
      <point x="509" y="295"/>
      <point x="531" y="348"/>
      <point x="531" y="401" type="curve" smooth="yes"/>
      <point x="531" y="424"/>
      <point x="527" y="445"/>
      <point x="521" y="464" type="curve"/>
      <point x="588" y="521" type="line"/>
      <point x="537" y="585" type="line"/>
      <point x="471" y="531" type="line"/>
      <point x="445" y="548"/>
      <point x="410" y="559"/>
      <point x="367" y="559" type="curve" smooth="yes"/>
      <point x="326" y="559"/>
      <point x="289" y="549"/>
      <point x="256" y="533" type="curve"/>
      <point x="215" y="585" type="line"/>
      <point x="137" y="521" type="line"/>
      <point x="178" y="469" type="line"/>
      <point x="144" y="427"/>
      <point x="124" y="369"/>
      <point x="124" y="313" type="curve" smooth="yes"/>
      <point x="124" y="290"/>
      <point x="128" y="268"/>
      <point x="136" y="249" type="curve"/>
      <point x="75" y="199" type="line"/>
      <point x="127" y="134" type="line"/>
      <point x="188" y="186" type="line"/>
      <point x="215" y="169"/>
      <point x="248" y="160"/>
      <point x="289" y="160" type="curve" smooth="yes"/>
      <point x="332" y="160"/>
      <point x="371" y="170"/>
      <point x="405" y="189" type="curve"/>
    </contour>
    <contour>
      <point x="308" y="254" type="curve" smooth="yes"/>
      <point x="258" y="254"/>
      <point x="231" y="284"/>
      <point x="231" y="332" type="curve" smooth="yes"/>
      <point x="231" y="408"/>
      <point x="283" y="465"/>
      <point x="349" y="465" type="curve" smooth="yes"/>
      <point x="398" y="465"/>
      <point x="425" y="434"/>
      <point x="425" y="387" type="curve" smooth="yes"/>
      <point x="425" y="310"/>
      <point x="372" y="254"/>
    </contour>
  </outline>
</glyph>
<glyph name="yen" format="2">
  <advance width="616"/>
  <unicode hex="00A5"/>
  <note>
yen
</note>
  <outline>
    <contour>
      <point x="352" y="232" type="line"/>
      <point x="712" y="708" type="line"/>
      <point x="712" y="720" type="line"/>
      <point x="516" y="720" type="line"/>
      <point x="292" y="388" type="line"/>
    </contour>
    <contour>
      <point x="276" y="224" type="line"/>
      <point x="392" y="384" type="line"/>
      <point x="292" y="720" type="line"/>
      <point x="92" y="720" type="line"/>
      <point x="92" y="708" type="line"/>
    </contour>
    <contour>
      <point x="88" y="308" type="line"/>
      <point x="548" y="308" type="line"/>
      <point x="570" y="424" type="line"/>
      <point x="110" y="424" type="line"/>
    </contour>
    <contour>
      <point x="160" y="0" type="line"/>
      <point x="356" y="0" type="line"/>
      <point x="432" y="404" type="line"/>
      <point x="236" y="404" type="line"/>
    </contour>
    <contour>
      <point x="56" y="136" type="line"/>
      <point x="516" y="136" type="line"/>
      <point x="538" y="252" type="line"/>
      <point x="78" y="252" type="line"/>
    </contour>
  </outline>
</glyph>
<glyph name="copyright" format="2">
  <advance width="872"/>
  <unicode hex="00A9"/>
  <note>
copyright
</note>
  <outline>
    <contour>
      <point x="52" y="360" type="curve" smooth="yes"/>
      <point x="52" y="112"/>
      <point x="208" y="-28"/>
      <point x="456" y="-28" type="curve" smooth="yes"/>
      <point x="704" y="-28"/>
      <point x="860" y="112"/>
      <point x="860" y="360" type="curve" smooth="yes"/>
      <point x="860" y="608"/>
      <point x="704" y="748"/>
      <point x="456" y="748" type="curve" smooth="yes"/>
      <point x="208" y="748"/>
      <point x="52" y="608"/>
    </contour>
    <contour>
      <point x="152" y="360" type="curve" smooth="yes"/>
      <point x="152" y="568"/>
      <point x="272" y="660"/>
      <point x="456" y="660" type="curve" smooth="yes"/>
      <point x="640" y="660"/>
      <point x="760" y="568"/>
      <point x="760" y="360" type="curve" smooth="yes"/>
      <point x="760" y="152"/>
      <point x="640" y="60"/>
      <point x="456" y="60" type="curve" smooth="yes"/>
      <point x="272" y="60"/>
      <point x="152" y="152"/>
    </contour>
    <contour>
      <point x="252" y="360" type="curve" smooth="yes"/>
      <point x="252" y="235"/>
      <point x="333" y="156"/>
      <point x="508" y="156" type="curve" smooth="yes"/>
      <point x="534" y="156"/>
      <point x="572" y="158"/>
      <point x="596" y="164" type="curve"/>
      <point x="596" y="272" type="line"/>
      <point x="588" y="272" type="line"/>
      <point x="571" y="266"/>
      <point x="540" y="260"/>
      <point x="516" y="260" type="curve" smooth="yes"/>
      <point x="417" y="260"/>
      <point x="392" y="298"/>
      <point x="392" y="360" type="curve" smooth="yes"/>
      <point x="392" y="416"/>
      <point x="424" y="460"/>
      <point x="516" y="460" type="curve" smooth="yes"/>
      <point x="540" y="460"/>
      <point x="571" y="454"/>
      <point x="588" y="448" type="curve"/>
      <point x="596" y="448" type="line"/>
      <point x="596" y="556" type="line"/>
      <point x="572" y="562"/>
      <point x="534" y="564"/>
      <point x="508" y="564" type="curve" smooth="yes"/>
      <point x="340" y="564"/>
      <point x="252" y="484"/>
    </contour>
  </outline>
</glyph>
<glyph name="degree" format="2">
  <advance width="432"/>
  <unicode hex="00B0"/>
  <note>
degree
</note>
  <outline>
    <contour>
      <point x="286" y="460" type="curve" smooth="yes"/>
      <point x="374" y="460"/>
      <point x="442" y="516"/>
      <point x="442" y="608" type="curve" smooth="yes"/>
      <point x="442" y="700"/>
      <point x="374" y="756"/>
      <point x="286" y="756" type="curve" smooth="yes"/>
      <point x="198" y="756"/>
      <point x="130" y="700"/>
      <point x="130" y="608" type="curve" smooth="yes"/>
      <point x="130" y="516"/>
      <point x="198" y="460"/>
    </contour>
    <contour>
      <point x="286" y="544" type="curve" smooth="yes"/>
      <point x="250" y="544"/>
      <point x="222" y="568"/>
      <point x="222" y="608" type="curve" smooth="yes"/>
      <point x="222" y="648"/>
      <point x="250" y="672"/>
      <point x="286" y="672" type="curve" smooth="yes"/>
      <point x="322" y="672"/>
      <point x="350" y="648"/>
      <point x="350" y="608" type="curve" smooth="yes"/>
      <point x="350" y="568"/>
      <point x="322" y="544"/>
    </contour>
  </outline>
</glyph>
<glyph name="periodcentered" format="2">
  <advance width="284"/>
  <unicode hex="00B7"/>
  <note>
periodcentered
</note>
  <outline>
    <contour>
      <point x="148" y="260" type="curve" smooth="yes"/>
      <point x="220" y="260"/>
      <point x="280" y="312"/>
      <point x="280" y="392" type="curve" smooth="yes"/>
      <point x="280" y="444"/>
      <point x="241" y="480"/>
      <point x="184" y="480" type="curve" smooth="yes"/>
      <point x="111" y="480"/>
      <point x="52" y="428"/>
      <point x="52" y="348" type="curve" smooth="yes"/>
      <point x="52" y="296"/>
      <point x="91" y="260"/>
    </contour>
  </outline>
</glyph>
<glyph name="guillemetright" format="2">
  <advance width="667"/>
  <unicode hex="00BB"/>
  <note>
guillemotright
</note>
  <outline>
    <contour>
      <point x="329" y="36" type="line"/>
      <point x="337" y="36" type="line"/>
      <point x="633" y="256" type="line"/>
      <point x="653" y="360" type="line"/>
      <point x="441" y="580" type="line"/>
      <point x="433" y="580" type="line"/>
      <point x="403" y="420" type="line"/>
      <point x="507" y="322" type="line"/>
      <point x="365" y="224" type="line"/>
    </contour>
    <contour>
      <point x="13" y="36" type="line"/>
      <point x="21" y="36" type="line"/>
      <point x="317" y="256" type="line"/>
      <point x="337" y="360" type="line"/>
      <point x="125" y="580" type="line"/>
      <point x="117" y="580" type="line"/>
      <point x="87" y="420" type="line"/>
      <point x="191" y="322" type="line"/>
      <point x="49" y="224" type="line"/>
    </contour>
  </outline>
</glyph>
<glyph name="questiondown" format="2">
  <advance width="508"/>
  <unicode hex="00BF"/>
  <note>
questiondown
</note>
  <outline>
    <contour>
      <point x="308" y="322" type="curve" smooth="yes"/>
      <point x="380" y="322"/>
      <point x="440" y="378"/>
      <point x="440" y="450" type="curve" smooth="yes"/>
      <point x="440" y="510"/>
      <point x="400" y="542"/>
      <point x="344" y="542" type="curve" smooth="yes"/>
      <point x="272" y="542"/>
      <point x="212" y="486"/>
      <point x="212" y="414" type="curve" smooth="yes"/>
      <point x="212" y="354"/>
      <point x="252" y="322"/>
    </contour>
    <contour>
      <point x="-28" y="-42" type="curve" smooth="yes"/>
      <point x="-28" y="-154"/>
      <point x="48" y="-202"/>
      <point x="192" y="-202" type="curve" smooth="yes"/>
      <point x="256" y="-202"/>
      <point x="328" y="-190"/>
      <point x="384" y="-170" type="curve"/>
      <point x="416" y="-10" type="line"/>
      <point x="404" y="-10" type="line"/>
      <point x="364" y="-30"/>
      <point x="304" y="-46"/>
      <point x="260" y="-46" type="curve" smooth="yes"/>
      <point x="207" y="-46"/>
      <point x="184" y="-33"/>
      <point x="184" y="-2" type="curve" smooth="yes"/>
      <point x="184" y="33"/>
      <point x="211" y="55"/>
      <point x="260" y="82" type="curve" smooth="yes"/>
      <point x="296" y="102" type="line" smooth="yes"/>
      <point x="356" y="135"/>
      <point x="381" y="178"/>
      <point x="388" y="242" type="curve" smooth="yes"/>
      <point x="392" y="278" type="line"/>
      <point x="204" y="278" type="line"/>
      <point x="200" y="246" type="line" smooth="yes"/>
      <point x="195" y="210"/>
      <point x="184" y="191"/>
      <point x="148" y="170" type="curve" smooth="yes"/>
      <point x="120" y="154" type="line" smooth="yes"/>
      <point x="78" y="130"/>
      <point x="-28" y="70"/>
    </contour>
  </outline>
</glyph>
<glyph name="germandbls" format="2">
  <advance width="732"/>
  <unicode hex="00DF"/>
  <note>
germandbls
</note>
  <outline>
    <contour>
      <point x="450" y="-8" type="curve" smooth="yes"/>
      <point x="576" y="-8"/>
      <point x="692" y="48"/>
      <point x="692" y="188" type="curve" smooth="yes"/>
      <point x="692" y="244"/>
      <point x="673" y="272"/>
      <point x="652" y="300" type="curve" smooth="yes"/>
      <point x="640" y="316" type="line" smooth="yes"/>
      <point x="623" y="339"/>
      <point x="614" y="352"/>
      <point x="614" y="376" type="curve" smooth="yes"/>
      <point x="614" y="412"/>
      <point x="635" y="436"/>
      <point x="656" y="468" type="curve" smooth="yes"/>
      <point x="681" y="507"/>
      <point x="704" y="548"/>
      <point x="704" y="604" type="curve" smooth="yes"/>
      <point x="704" y="728"/>
      <point x="608" y="776"/>
      <point x="472" y="776" type="curve" smooth="yes"/>
      <point x="308" y="776"/>
      <point x="192" y="724"/>
      <point x="156" y="536" type="curve" smooth="yes"/>
      <point x="52" y="0" type="line"/>
      <point x="264" y="0" type="line"/>
      <point x="368" y="536" type="line" smooth="yes"/>
      <point x="380" y="596"/>
      <point x="400" y="624"/>
      <point x="448" y="624" type="curve" smooth="yes"/>
      <point x="496" y="624"/>
      <point x="504" y="596"/>
      <point x="504" y="568" type="curve" smooth="yes"/>
      <point x="504" y="536"/>
      <point x="488" y="502"/>
      <point x="468" y="476" type="curve" smooth="yes"/>
      <point x="440" y="440"/>
      <point x="420" y="404"/>
      <point x="420" y="364" type="curve" smooth="yes"/>
      <point x="420" y="324"/>
      <point x="438" y="294"/>
      <point x="458" y="268" type="curve" smooth="yes"/>
      <point x="470" y="252" type="line" smooth="yes"/>
      <point x="480" y="239"/>
      <point x="492" y="228"/>
      <point x="492" y="200" type="curve" smooth="yes"/>
      <point x="492" y="172"/>
      <point x="476" y="148"/>
      <point x="432" y="148" type="curve" smooth="yes"/>
      <point x="404" y="148"/>
      <point x="392" y="156"/>
      <point x="376" y="164" type="curve"/>
      <point x="364" y="164" type="line"/>
      <point x="332" y="8" type="line"/>
      <point x="364" y="-1"/>
      <point x="398" y="-8"/>
    </contour>
    <contour>
      <point x="32" y="388" type="line"/>
      <point x="168" y="388" type="line"/>
      <point x="200" y="548" type="line"/>
      <point x="64" y="548" type="line"/>
    </contour>
  </outline>
</glyph>
<glyph name="ae" format="2">
  <advance width="948"/>
  <unicode hex="00E6"/>
  <note>
ae
</note>
  <anchor x="421" y="0" name="bottom"/>
  <anchor x="527" y="548" name="top"/>
  <outline>
    <contour>
      <point x="664" y="-12" type="curve" smooth="yes"/>
      <point x="724" y="-12"/>
      <point x="776" y="-4"/>
      <point x="824" y="12" type="curve"/>
      <point x="856" y="172" type="line"/>
      <point x="844" y="172" type="line"/>
      <point x="812" y="156"/>
      <point x="752" y="144"/>
      <point x="700" y="144" type="curve" smooth="yes"/>
      <point x="612" y="144"/>
      <point x="560" y="172"/>
      <point x="560" y="252" type="curve"/>
      <point x="560" y="264" type="line"/>
      <point x="560" y="368"/>
      <point x="604" y="424"/>
      <point x="664" y="424" type="curve" smooth="yes"/>
      <point x="708" y="424"/>
      <point x="732" y="400"/>
      <point x="732" y="364" type="curve" smooth="yes"/>
      <point x="732" y="352"/>
      <point x="730" y="342"/>
      <point x="728" y="332" type="curve"/>
      <point x="480" y="332" type="line"/>
      <point x="480" y="220" type="line"/>
      <point x="904" y="220" type="line"/>
      <point x="916" y="264"/>
      <point x="924" y="312"/>
      <point x="924" y="352" type="curve" smooth="yes"/>
      <point x="924" y="480"/>
      <point x="852" y="564"/>
      <point x="672" y="564" type="curve" smooth="yes"/>
      <point x="501" y="564"/>
      <point x="368" y="440"/>
      <point x="368" y="236" type="curve" smooth="yes"/>
      <point x="368" y="52"/>
      <point x="492" y="-12"/>
    </contour>
    <contour>
      <point x="284" y="-12" type="curve" smooth="yes"/>
      <point x="372" y="-12"/>
      <point x="456" y="20"/>
      <point x="524" y="64" type="curve"/>
      <point x="524" y="140" type="line"/>
      <point x="420" y="160" type="line"/>
      <point x="372" y="128"/>
      <point x="332" y="120"/>
      <point x="292" y="120" type="curve" smooth="yes"/>
      <point x="244" y="120"/>
      <point x="216" y="130"/>
      <point x="216" y="166" type="curve" smooth="yes"/>
      <point x="216" y="202"/>
      <point x="252" y="220"/>
      <point x="300" y="220" type="curve" smooth="yes"/>
      <point x="336" y="220"/>
      <point x="352" y="216"/>
      <point x="376" y="208" type="curve"/>
      <point x="420" y="208" type="line"/>
      <point x="420" y="324" type="line"/>
      <point x="388" y="324" type="line"/>
      <point x="368" y="330"/>
      <point x="328" y="336"/>
      <point x="292" y="336" type="curve" smooth="yes"/>
      <point x="140" y="336"/>
      <point x="24" y="284"/>
      <point x="24" y="152" type="curve" smooth="yes"/>
      <point x="24" y="28"/>
      <point x="112" y="-12"/>
    </contour>
    <contour>
      <point x="364" y="256" type="line"/>
      <point x="572" y="416" type="line"/>
      <point x="572" y="508"/>
      <point x="468" y="564"/>
      <point x="316" y="564" type="curve" smooth="yes"/>
      <point x="256" y="564"/>
      <point x="192" y="556"/>
      <point x="142" y="544" type="curve"/>
      <point x="112" y="388" type="line"/>
      <point x="124" y="388" type="line"/>
      <point x="158" y="402"/>
      <point x="212" y="412"/>
      <point x="272" y="412" type="curve" smooth="yes"/>
      <point x="356" y="412"/>
      <point x="408" y="384"/>
      <point x="364" y="288" type="curve"/>
    </contour>
  </outline>
</glyph>
<glyph name="divide" format="2">
  <advance width="616"/>
  <unicode hex="00F7"/>
  <note>
divide
</note>
  <outline>
    <contour>
      <point x="320" y="424" type="curve" smooth="yes"/>
      <point x="361" y="424"/>
      <point x="392" y="450"/>
      <point x="392" y="496" type="curve" smooth="yes"/>
      <point x="392" y="540"/>
      <point x="361" y="568"/>
      <point x="320" y="568" type="curve" smooth="yes"/>
      <point x="279" y="568"/>
      <point x="248" y="540"/>
      <point x="248" y="496" type="curve" smooth="yes"/>
      <point x="248" y="450"/>
      <point x="279" y="424"/>
    </contour>
    <contour>
      <point x="248" y="144" type="curve" smooth="yes"/>
      <point x="248" y="98"/>
      <point x="279" y="72"/>
      <point x="320" y="72" type="curve" smooth="yes"/>
      <point x="361" y="72"/>
      <point x="392" y="98"/>
      <point x="392" y="144" type="curve" smooth="yes"/>
      <point x="392" y="188"/>
      <point x="361" y="216"/>
      <point x="320" y="216" type="curve" smooth="yes"/>
      <point x="279" y="216"/>
      <point x="248" y="188"/>
    </contour>
    <contour>
      <point x="76" y="380" type="line"/>
      <point x="76" y="252" type="line"/>
      <point x="564" y="252" type="line"/>
      <point x="564" y="380" type="line"/>
    </contour>
  </outline>
</glyph>
<glyph name="thorn" format="2">
  <advance width="684"/>
  <unicode hex="00FE"/>
  <note>
thorn
</note>
  <outline>
    <contour>
      <point x="-24" y="-232" type="line"/>
      <point x="188" y="-232" type="line"/>
      <point x="380" y="760" type="line"/>
      <point x="157" y="760" type="line"/>
      <point x="149" y="748" type="line"/>
      <point x="151" y="696"/>
      <point x="144" y="644"/>
      <point x="135" y="596" type="curve" smooth="yes"/>
    </contour>
    <contour>
      <point x="260" y="-12" type="curve" smooth="yes"/>
      <point x="496" y="-12"/>
      <point x="652" y="96"/>
      <point x="652" y="320" type="curve" smooth="yes"/>
      <point x="652" y="468"/>
      <point x="568" y="556"/>
      <point x="432" y="556" type="curve" smooth="yes"/>
      <point x="388" y="556"/>
      <point x="352" y="552"/>
      <point x="268" y="508" type="curve"/>
      <point x="236" y="384" type="line"/>
      <point x="284" y="384" type="line"/>
      <point x="304" y="400"/>
      <point x="324" y="404"/>
      <point x="344" y="404" type="curve" smooth="yes"/>
      <point x="404" y="404"/>
      <point x="436" y="368"/>
      <point x="436" y="300" type="curve" smooth="yes"/>
      <point x="436" y="208"/>
      <point x="388" y="136"/>
      <point x="300" y="136" type="curve" smooth="yes"/>
      <point x="280" y="136"/>
      <point x="256" y="136"/>
      <point x="240" y="152" type="curve"/>
      <point x="184" y="152" type="line"/>
      <point x="144" y="-8" type="line"/>
      <point x="212" y="-8" type="line"/>
      <point x="232" y="-12"/>
      <point x="244" y="-12"/>
    </contour>
  </outline>
</glyph>
<glyph name="eng" format="2">
  <advance width="692"/>
  <unicode hex="014B"/>
  <note>
eng
</note>
  <anchor x="293" y="0" name="bottom"/>
  <anchor x="399" y="548" name="top"/>
  <outline>
    <contour>
      <point x="268" y="-240" type="curve" smooth="yes"/>
      <point x="416" y="-240"/>
      <point x="548" y="-168"/>
      <point x="580" y="0" type="curve"/>
      <point x="593" y="68" type="line"/>
      <point x="381" y="68" type="line"/>
      <point x="368" y="0" type="line"/>
      <point x="360" y="-44"/>
      <point x="332" y="-76"/>
      <point x="268" y="-76" type="curve" smooth="yes"/>
      <point x="240" y="-76"/>
      <point x="228" y="-72"/>
      <point x="208" y="-64" type="curve"/>
      <point x="196" y="-64" type="line"/>
      <point x="164" y="-228" type="line"/>
      <point x="190" y="-236"/>
      <point x="224" y="-240"/>
    </contour>
    <component base="n"/>
  </outline>
</glyph>
<glyph name="Tbar" format="2">
  <advance width="656"/>
  <unicode hex="0166"/>
  <note>
Tbar
</note>
  <anchor x="284" y="0" name="bottom"/>
  <anchor x="345" y="360" name="center"/>
  <anchor x="415" y="720" name="top"/>
  <outline>
    <contour>
      <point x="90" y="260" type="line"/>
      <point x="574" y="260" type="line"/>
      <point x="602" y="396" type="line"/>
      <point x="118" y="396" type="line"/>
    </contour>
    <component base="T"/>
  </outline>
</glyph>
<glyph name="tbar" format="2">
  <advance width="500"/>
  <unicode hex="0167"/>
  <note>
tbar
</note>
  <anchor x="245" y="0" name="bottom"/>
  <anchor x="250" y="274" name="center"/>
  <anchor x="286" y="680" name="top"/>
  <anchor x="516" y="616" name="topright"/>
  <outline>
    <contour>
      <point x="464" y="324" type="line"/>
      <point x="20" y="324" type="line"/>
      <point x="0" y="224" type="line"/>
      <point x="444" y="224" type="line"/>
    </contour>
    <component base="t"/>
  </outline>
</glyph>
<glyph name="jdotless" format="2">
  <advance width="348"/>
  <unicode hex="0237"/>
  <note>
dotlessj
</note>
  <anchor x="65" y="-240" name="bottom"/>
  <anchor x="232" y="548" name="top"/>
  <outline>
    <contour>
      <point x="-184" y="-228" type="line"/>
      <point x="-158" y="-236"/>
      <point x="-124" y="-240"/>
      <point x="-80" y="-240" type="curve" smooth="yes"/>
      <point x="78" y="-240"/>
      <point x="199" y="-168"/>
      <point x="234" y="12" type="curve" smooth="yes"/>
      <point x="338" y="548" type="line"/>
      <point x="116" y="548" type="line"/>
      <point x="108" y="536" type="line"/>
      <point x="110" y="484"/>
      <point x="103" y="432"/>
      <point x="94" y="384" type="curve" smooth="yes"/>
      <point x="20" y="0" type="line" smooth="yes"/>
      <point x="10" y="-54"/>
      <point x="-24" y="-76"/>
      <point x="-80" y="-76" type="curve" smooth="yes"/>
      <point x="-108" y="-76"/>
      <point x="-120" y="-72"/>
      <point x="-140" y="-64" type="curve"/>
      <point x="-152" y="-64" type="line"/>
    </contour>
  </outline>
</glyph>
<glyph name="apostrophemod" format="2">
  <advance width="240"/>
  <unicode hex="02BC"/>
  <outline>
    <contour>
      <point x="179" y="696" type="curve"/>
      <point x="115" y="612" type="line"/>
      <point x="115" y="608" type="line"/>
      <point x="215" y="608" type="line"/>
      <point x="251" y="656" type="line" smooth="yes"/>
      <point x="270" y="682"/>
      <point x="303" y="725"/>
      <point x="303" y="764" type="curve" smooth="yes"/>
      <point x="303" y="801"/>
      <point x="276" y="828"/>
      <point x="235" y="828" type="curve" smooth="yes"/>
      <point x="184" y="828"/>
      <point x="147" y="796"/>
      <point x="147" y="748" type="curve" smooth="yes"/>
      <point x="147" y="722"/>
      <point x="164" y="704"/>
    </contour>
  </outline>
</glyph>
<glyph name="ringhalfright" format="2">
  <advance width="208"/>
  <unicode hex="02BE"/>
  <note>
uni02BE
</note>
  <outline>
    <contour>
      <point x="73" y="512" type="curve"/>
      <point x="58" y="432" type="line"/>
      <point x="144" y="432"/>
      <point x="254" y="463"/>
      <point x="254" y="606" type="curve" smooth="yes"/>
      <point x="254" y="691"/>
      <point x="188" y="720"/>
      <point x="114" y="720" type="curve"/>
      <point x="98" y="640" type="line"/>
      <point x="138" y="640"/>
      <point x="160" y="630"/>
      <point x="160" y="597" type="curve" smooth="yes"/>
      <point x="160" y="530"/>
      <point x="123" y="512"/>
    </contour>
  </outline>
</glyph>
<glyph name="ringhalfleft" format="2">
  <advance width="208"/>
  <unicode hex="02BF"/>
  <note>
uni02BF
</note>
  <outline>
    <contour>
      <point x="218" y="432" type="curve"/>
      <point x="233" y="512" type="line"/>
      <point x="193" y="512"/>
      <point x="171" y="522"/>
      <point x="171" y="554" type="curve" smooth="yes"/>
      <point x="171" y="622"/>
      <point x="208" y="640"/>
      <point x="258" y="640" type="curve"/>
      <point x="274" y="720" type="line"/>
      <point x="187" y="720"/>
      <point x="78" y="689"/>
      <point x="78" y="546" type="curve" smooth="yes"/>
      <point x="78" y="461"/>
      <point x="144" y="432"/>
    </contour>
  </outline>
</glyph>
<glyph name="verticallinemod" format="2">
  <advance width="240"/>
  <unicode hex="02C8"/>
  <outline>
    <contour>
      <point x="94" y="464" type="line"/>
      <point x="238" y="464" type="line"/>
      <point x="304" y="760" type="line"/>
      <point x="144" y="760" type="line"/>
    </contour>
  </outline>
</glyph>
<glyph name="macroncomb" format="2">
  <unicode hex="0304"/>
  <note>
macron
</note>
  <anchor x="394" y="548" name="_top"/>
  <anchor x="431" y="720" name="top"/>
  <outline>
    <contour>
      <point x="260" y="720" type="line"/>
      <point x="240" y="616" type="line"/>
      <point x="580" y="616" type="line"/>
      <point x="600" y="720" type="line"/>
    </contour>
  </outline>
</glyph>
<glyph name="brevecomb" format="2">
  <unicode hex="0306"/>
  <note>
breve
</note>
  <anchor x="407" y="548" name="_top"/>
  <anchor x="452" y="760" name="top"/>
  <outline>
    <contour>
      <point x="416" y="600" type="curve" smooth="yes"/>
      <point x="528" y="600"/>
      <point x="576" y="680"/>
      <point x="587" y="760" type="curve"/>
      <point x="507" y="760" type="line"/>
      <point x="500" y="712"/>
      <point x="476" y="688"/>
      <point x="424" y="688" type="curve" smooth="yes"/>
      <point x="376" y="688"/>
      <point x="356" y="712"/>
      <point x="367" y="760" type="curve"/>
      <point x="287" y="760" type="line"/>
      <point x="268" y="676"/>
      <point x="304" y="600"/>
    </contour>
  </outline>
</glyph>
<glyph name="dieresiscomb" format="2">
  <unicode hex="0308"/>
  <note>
dieresis
</note>
  <anchor x="395" y="548" name="_top"/>
  <anchor x="439" y="756" name="top"/>
  <outline>
    <contour>
      <point x="512" y="612" type="curve" smooth="yes"/>
      <point x="564" y="612"/>
      <point x="596" y="652"/>
      <point x="596" y="696" type="curve" smooth="yes"/>
      <point x="596" y="732"/>
      <point x="572" y="756"/>
      <point x="532" y="756" type="curve" smooth="yes"/>
      <point x="480" y="756"/>
      <point x="448" y="716"/>
      <point x="448" y="672" type="curve" smooth="yes"/>
      <point x="448" y="636"/>
      <point x="472" y="612"/>
    </contour>
    <contour>
      <point x="316" y="612" type="curve" smooth="yes"/>
      <point x="368" y="612"/>
      <point x="400" y="652"/>
      <point x="400" y="696" type="curve" smooth="yes"/>
      <point x="400" y="732"/>
      <point x="376" y="756"/>
      <point x="336" y="756" type="curve" smooth="yes"/>
      <point x="284" y="756"/>
      <point x="252" y="716"/>
      <point x="252" y="672" type="curve" smooth="yes"/>
      <point x="252" y="636"/>
      <point x="276" y="612"/>
    </contour>
  </outline>
</glyph>
<glyph name="hookabovecomb" format="2">
  <unicode hex="0309"/>
  <anchor x="367" y="548" name="_top"/>
  <anchor x="423" y="834" name="top"/>
  <outline>
    <contour>
      <point x="337" y="642" type="curve"/>
      <point x="400" y="610" type="line"/>
      <point x="430" y="650"/>
      <point x="499" y="685"/>
      <point x="508" y="739" type="curve" smooth="yes"/>
      <point x="517" y="793"/>
      <point x="486" y="834"/>
      <point x="421" y="834" type="curve" smooth="yes"/>
      <point x="377" y="834"/>
      <point x="333" y="809"/>
      <point x="293" y="759" type="curve"/>
      <point x="337" y="721" type="line"/>
      <point x="351" y="737"/>
      <point x="370" y="753"/>
      <point x="391" y="753" type="curve" smooth="yes"/>
      <point x="405" y="753"/>
      <point x="414" y="742"/>
      <point x="411" y="727" type="curve" smooth="yes"/>
      <point x="404" y="692"/>
      <point x="359" y="680"/>
    </contour>
  </outline>
</glyph>
<glyph name="caroncomb" format="2">
  <unicode hex="030C"/>
  <note>
caron
</note>
  <anchor x="389" y="548" name="_top"/>
  <anchor x="430" y="760" name="top"/>
  <outline>
    <contour>
      <point x="332" y="604" type="line"/>
      <point x="480" y="604" type="line"/>
      <point x="612" y="756" type="line"/>
      <point x="612" y="760" type="line"/>
      <point x="500" y="760" type="line"/>
      <point x="414" y="693" type="line"/>
      <point x="368" y="760" type="line"/>
      <point x="272" y="760" type="line"/>
      <point x="272" y="756" type="line"/>
    </contour>
  </outline>
</glyph>
<glyph name="dblgravecomb" format="2">
  <unicode hex="030F"/>
  <anchor x="388" y="548" name="_top"/>
  <anchor x="429" y="760" name="top"/>
  <outline>
    <contour>
      <point x="233" y="604" type="line"/>
      <point x="365" y="604" type="line"/>
      <point x="365" y="608" type="line"/>
      <point x="313" y="760" type="line"/>
      <point x="141" y="760" type="line"/>
      <point x="141" y="756" type="line"/>
    </contour>
    <contour>
      <point x="437" y="604" type="line"/>
      <point x="569" y="604" type="line"/>
      <point x="569" y="608" type="line"/>
      <point x="517" y="760" type="line"/>
      <point x="345" y="760" type="line"/>
      <point x="345" y="756" type="line"/>
    </contour>
  </outline>
</glyph>
<glyph name="dieresisbelowcomb" format="2">
  <unicode hex="0324"/>
  <anchor x="282" y="0" name="_bottom"/>
  <anchor x="242" y="-208" name="bottom"/>
  <outline>
    <contour>
      <point x="344" y="-208" type="curve" smooth="yes"/>
      <point x="396" y="-208"/>
      <point x="428" y="-168"/>
      <point x="428" y="-124" type="curve" smooth="yes"/>
      <point x="428" y="-88"/>
      <point x="404" y="-64"/>
      <point x="364" y="-64" type="curve" smooth="yes"/>
      <point x="312" y="-64"/>
      <point x="280" y="-104"/>
      <point x="280" y="-148" type="curve" smooth="yes"/>
      <point x="280" y="-184"/>
      <point x="304" y="-208"/>
    </contour>
    <contour>
      <point x="148" y="-208" type="curve" smooth="yes"/>
      <point x="200" y="-208"/>
      <point x="232" y="-168"/>
      <point x="232" y="-124" type="curve" smooth="yes"/>
      <point x="232" y="-88"/>
      <point x="208" y="-64"/>
      <point x="168" y="-64" type="curve" smooth="yes"/>
      <point x="116" y="-64"/>
      <point x="84" y="-104"/>
      <point x="84" y="-148" type="curve" smooth="yes"/>
      <point x="84" y="-184"/>
      <point x="108" y="-208"/>
    </contour>
  </outline>
</glyph>
<glyph name="cedillacomb" format="2">
  <unicode hex="0327"/>
  <note>
cedilla
</note>
  <anchor x="283" y="0" name="_bottom"/>
  <anchor x="234" y="-252" name="bottom"/>
  <outline>
    <contour>
      <point x="164" y="-160" type="curve"/>
      <point x="160" y="-160" type="line"/>
      <point x="148" y="-240" type="line"/>
      <point x="171" y="-248"/>
      <point x="200" y="-252"/>
      <point x="236" y="-252" type="curve" smooth="yes"/>
      <point x="320" y="-252"/>
      <point x="404" y="-216"/>
      <point x="404" y="-128" type="curve" smooth="yes"/>
      <point x="404" y="-76"/>
      <point x="368" y="-44"/>
      <point x="316" y="-32" type="curve"/>
      <point x="329" y="24" type="line"/>
      <point x="248" y="24" type="line"/>
      <point x="220" y="-92" type="line"/>
      <point x="280" y="-92"/>
      <point x="304" y="-104"/>
      <point x="304" y="-132" type="curve" smooth="yes"/>
      <point x="304" y="-156"/>
      <point x="288" y="-172"/>
      <point x="240" y="-172" type="curve" smooth="yes"/>
      <point x="212" y="-172"/>
      <point x="187" y="-168"/>
    </contour>
  </outline>
</glyph>
<glyph name="ogonekcomb" format="2">
  <unicode hex="0328"/>
  <note>
ogonek
</note>
  <anchor x="409" y="0" name="_ogonek"/>
  <outline>
    <contour>
      <point x="365" y="-236" type="curve"/>
      <point x="381" y="-152" type="line"/>
      <point x="377" y="-152" type="line"/>
      <point x="361" y="-158"/>
      <point x="351" y="-160"/>
      <point x="337" y="-160" type="curve" smooth="yes"/>
      <point x="317" y="-160"/>
      <point x="308" y="-149"/>
      <point x="308" y="-133" type="curve" smooth="yes"/>
      <point x="308" y="-98"/>
      <point x="345" y="-58"/>
      <point x="409" y="0" type="curve"/>
      <point x="317" y="12" type="line"/>
      <point x="263" y="-30"/>
      <point x="198" y="-84"/>
      <point x="198" y="-160" type="curve" smooth="yes"/>
      <point x="198" y="-213"/>
      <point x="235" y="-248"/>
      <point x="297" y="-248" type="curve" smooth="yes"/>
      <point x="321" y="-248"/>
      <point x="346" y="-246"/>
    </contour>
  </outline>
</glyph>
<glyph name="macronbelowcomb" format="2">
  <unicode hex="0331"/>
  <note>
macron.below
</note>
  <anchor x="286" y="0" name="_bottom"/>
  <anchor x="250" y="-183" name="bottom"/>
  <outline>
    <contour>
      <point x="112" y="-80" type="line"/>
      <point x="92" y="-183" type="line"/>
      <point x="408" y="-183" type="line"/>
      <point x="428" y="-80" type="line"/>
    </contour>
  </outline>
</glyph>
<glyph name="strokeshortcomb" format="2">
  <unicode hex="0335"/>
  <anchor x="284" y="274" name="_center"/>
  <outline>
    <contour>
      <point x="480" y="324" type="line"/>
      <point x="108" y="324" type="line"/>
      <point x="88" y="224" type="line"/>
      <point x="460" y="224" type="line"/>
    </contour>
  </outline>
</glyph>
<glyph name="slashlongcomb" format="2">
  <unicode hex="0338"/>
  <anchor x="340" y="276" name="_center"/>
  <outline>
    <contour>
      <point x="68" y="-84" type="line"/>
      <point x="156" y="-84" type="line"/>
      <point x="612" y="636" type="line"/>
      <point x="524" y="636" type="line"/>
    </contour>
  </outline>
</glyph>
<glyph name="Delta" format="2">
  <advance width="701"/>
  <unicode hex="0394"/>
  <unicode hex="03B4"/>
  <note>
uni0394
</note>
  <outline>
    <contour>
      <point x="356" y="720" type="line"/>
      <point x="-33" y="0" type="line"/>
      <point x="643" y="0" type="line"/>
      <point x="533" y="720" type="line"/>
    </contour>
    <contour>
      <point x="217" y="147" type="line"/>
      <point x="408" y="505" type="line"/>
      <point x="461" y="147" type="line"/>
    </contour>
  </outline>
</glyph>
<glyph name="pi" format="2">
  <advance width="676"/>
  <unicode hex="03C0"/>
  <note>
pi
</note>
  <outline>
    <contour>
      <point x="460" y="376" type="line"/>
      <point x="500" y="548" type="line"/>
      <point x="264" y="548" type="line"/>
      <point x="232" y="376" type="line"/>
    </contour>
    <contour>
      <point x="16" y="0" type="line"/>
      <point x="228" y="0" type="line"/>
      <point x="333" y="548" type="line"/>
      <point x="112" y="548" type="line"/>
      <point x="104" y="536" type="line"/>
      <point x="106" y="484"/>
      <point x="99" y="432"/>
      <point x="90" y="384" type="curve" smooth="yes"/>
    </contour>
    <contour>
      <point x="426" y="384" type="curve" smooth="yes"/>
      <point x="352" y="0" type="line"/>
      <point x="564" y="0" type="line"/>
      <point x="670" y="548" type="line"/>
      <point x="448" y="548" type="line"/>
      <point x="440" y="536" type="line"/>
      <point x="442" y="484"/>
      <point x="435" y="432"/>
    </contour>
  </outline>
</glyph>
<glyph name="dateseparator-ar" format="2">
  <advance width="244"/>
  <unicode hex="060D"/>
  <outline>
    <contour>
      <point x="204" y="0" type="line"/>
      <point x="204" y="28" type="line" smooth="yes"/>
      <point x="204" y="115"/>
      <point x="205" y="267"/>
      <point x="236" y="368" type="curve" smooth="yes"/>
      <point x="243" y="391"/>
      <point x="261" y="446"/>
      <point x="272" y="468" type="curve"/>
      <point x="272" y="480" type="line"/>
      <point x="104" y="524" type="line"/>
      <point x="92" y="498"/>
      <point x="73" y="435"/>
      <point x="64" y="396" type="curve" smooth="yes"/>
      <point x="31" y="254"/>
      <point x="28" y="145"/>
      <point x="28" y="28" type="curve" smooth="yes"/>
      <point x="28" y="0" type="line"/>
    </contour>
  </outline>
</glyph>
<glyph name="semicolon-ar" format="2">
  <advance width="461"/>
  <unicode hex="061B"/>
  <note>
uni061B
</note>
  <outline>
    <contour>
      <point x="222" y="297" type="curve" smooth="yes"/>
      <point x="284" y="297"/>
      <point x="324" y="340"/>
      <point x="324" y="394" type="curve" smooth="yes"/>
      <point x="324" y="446"/>
      <point x="286" y="473"/>
      <point x="241" y="476" type="curve"/>
      <point x="251" y="527"/>
      <point x="286" y="556"/>
      <point x="286" y="556" type="curve"/>
      <point x="286" y="569" type="line"/>
      <point x="195" y="589" type="line"/>
      <point x="195" y="589"/>
      <point x="109" y="533"/>
      <point x="109" y="420" type="curve" smooth="yes"/>
      <point x="109" y="352"/>
      <point x="161" y="297"/>
    </contour>
    <contour>
      <point x="123" y="109" type="curve" smooth="yes"/>
      <point x="123" y="35"/>
      <point x="174" y="-5"/>
      <point x="237" y="-5" type="curve" smooth="yes"/>
      <point x="300" y="-5"/>
      <point x="351" y="35"/>
      <point x="351" y="109" type="curve" smooth="yes"/>
      <point x="351" y="183"/>
      <point x="300" y="223"/>
      <point x="237" y="223" type="curve" smooth="yes"/>
      <point x="174" y="223"/>
      <point x="123" y="183"/>
    </contour>
  </outline>
</glyph>
<glyph name="question-ar" format="2">
  <advance width="574"/>
  <unicode hex="061F"/>
  <note>
uni061F
</note>
  <outline>
    <contour>
      <point x="181" y="244" type="curve"/>
      <point x="181" y="239" type="line"/>
      <point x="361" y="238" type="line"/>
      <point x="365" y="252"/>
      <point x="368" y="264"/>
      <point x="368" y="291" type="curve" smooth="yes"/>
      <point x="368" y="391"/>
      <point x="224" y="438"/>
      <point x="224" y="514" type="curve" smooth="yes"/>
      <point x="224" y="555"/>
      <point x="282" y="587"/>
      <point x="363" y="576" type="curve"/>
      <point x="270" y="608" type="line"/>
      <point x="263" y="555"/>
      <point x="337" y="492"/>
      <point x="408" y="431" type="curve"/>
      <point x="420" y="431" type="line"/>
      <point x="537" y="558" type="line"/>
      <point x="451" y="631"/>
      <point x="390" y="698"/>
      <point x="346" y="769" type="curve"/>
      <point x="334" y="769" type="line"/>
      <point x="178" y="719"/>
      <point x="44" y="669"/>
      <point x="44" y="524" type="curve" smooth="yes"/>
      <point x="44" y="380"/>
      <point x="187" y="325"/>
      <point x="187" y="278" type="curve" smooth="yes"/>
      <point x="187" y="264"/>
      <point x="183" y="255"/>
    </contour>
    <contour>
      <point x="155" y="96" type="curve" smooth="yes"/>
      <point x="155" y="22"/>
      <point x="206" y="-18"/>
      <point x="269" y="-18" type="curve" smooth="yes"/>
      <point x="332" y="-18"/>
      <point x="383" y="22"/>
      <point x="383" y="96" type="curve" smooth="yes"/>
      <point x="383" y="170"/>
      <point x="332" y="210"/>
      <point x="269" y="210" type="curve" smooth="yes"/>
      <point x="206" y="210"/>
      <point x="155" y="170"/>
    </contour>
  </outline>
</glyph>
<glyph name="meem-ar" format="2">
  <advance width="814"/>
  <unicode hex="0645"/>
  <note>
uni0645
</note>
  <anchor x="412" y="-68" name="bottom"/>
  <anchor x="366" y="519" name="top"/>
  <outline>
    <contour>
      <point x="307" y="38" type="line"/>
      <point x="181" y="173" type="line"/>
      <point x="-24" y="-156" type="line"/>
      <point x="-24" y="-168" type="line"/>
      <point x="200" y="-168" type="line"/>
    </contour>
    <contour>
      <point x="566" y="507" type="curve"/>
      <point x="546" y="519" type="line"/>
      <point x="339" y="519"/>
      <point x="120" y="414"/>
      <point x="120" y="196" type="curve" smooth="yes"/>
      <point x="120" y="-15"/>
      <point x="303" y="-68"/>
      <point x="412" y="-68" type="curve" smooth="yes"/>
      <point x="458" y="-68"/>
      <point x="499" y="-58"/>
      <point x="542" y="-44" type="curve"/>
      <point x="596" y="126" type="line"/>
      <point x="569" y="137" type="line"/>
      <point x="544" y="129"/>
      <point x="496" y="120"/>
      <point x="450" y="120" type="curve" smooth="yes"/>
      <point x="381" y="120"/>
      <point x="318" y="154"/>
      <point x="318" y="214" type="curve" smooth="yes"/>
      <point x="318" y="284"/>
      <point x="403" y="335"/>
      <point x="477" y="332" type="curve"/>
      <point x="412" y="360" type="line"/>
      <point x="489" y="151"/>
      <point x="526" y="78"/>
      <point x="606" y="-80" type="curve"/>
      <point x="618" y="-80" type="line"/>
      <point x="774" y="68" type="line"/>
      <point x="703" y="186"/>
      <point x="622" y="362"/>
    </contour>
  </outline>
</glyph>
<glyph name="kasratan-ar" format="2">
  <unicode hex="064D"/>
  <note>
uni064D
</note>
  <anchor x="215" y="-17" name="_bottom"/>
  <anchor x="215" y="-304" name="bottom"/>
  <outline>
    <contour>
      <point x="73" y="-340" type="line"/>
      <point x="85" y="-340" type="line"/>
      <point x="340" y="-257" type="line"/>
      <point x="340" y="-186" type="line"/>
      <point x="328" y="-186" type="line"/>
      <point x="73" y="-269" type="line"/>
    </contour>
    <contour>
      <point x="73" y="-225" type="line"/>
      <point x="85" y="-225" type="line"/>
      <point x="340" y="-142" type="line"/>
      <point x="340" y="-71" type="line"/>
      <point x="328" y="-71" type="line"/>
      <point x="73" y="-154" type="line"/>
    </contour>
  </outline>
</glyph>
<glyph name="sukun-ar" format="2">
  <unicode hex="0652"/>
  <note>
uni0652
</note>
  <anchor x="197" y="517" name="_top"/>
  <anchor x="197" y="818" name="top"/>
  <outline>
    <contour>
      <point x="197" y="606" type="curve" smooth="yes"/>
      <point x="271" y="606"/>
      <point x="328" y="670"/>
      <point x="328" y="739" type="curve" smooth="yes"/>
      <point x="328" y="819"/>
      <point x="269" y="868"/>
      <point x="210" y="868" type="curve" smooth="yes"/>
      <point x="131" y="868"/>
      <point x="71" y="801"/>
      <point x="71" y="726" type="curve" smooth="yes"/>
      <point x="71" y="663"/>
      <point x="118" y="606"/>
    </contour>
    <contour>
      <point x="199" y="680" type="curve" smooth="yes"/>
      <point x="173" y="680"/>
      <point x="153" y="701"/>
      <point x="153" y="730" type="curve" smooth="yes"/>
      <point x="153" y="771"/>
      <point x="198" y="829"/>
      <point x="274" y="798" type="curve"/>
      <point x="206" y="836" type="line"/>
      <point x="141" y="813" type="line"/>
      <point x="208" y="822"/>
      <point x="245" y="750"/>
      <point x="252" y="709" type="curve"/>
      <point x="234" y="689"/>
      <point x="218" y="680"/>
    </contour>
  </outline>
</glyph>
<glyph name="four-ar" format="2">
  <advance width="565"/>
  <unicode hex="0664"/>
  <note>
uni0664
</note>
  <outline>
    <contour>
      <point x="51" y="196" type="curve" smooth="yes"/>
      <point x="51" y="72"/>
      <point x="156" y="0"/>
      <point x="298" y="0" type="curve" smooth="yes"/>
      <point x="498" y="0" type="line"/>
      <point x="569" y="172" type="line"/>
      <point x="569" y="184" type="line"/>
      <point x="349" y="184" type="line" smooth="yes"/>
      <point x="237" y="184"/>
      <point x="203" y="204"/>
      <point x="202" y="238" type="curve"/>
      <point x="175" y="198" type="line"/>
      <point x="218" y="181" type="line"/>
      <point x="190" y="215"/>
      <point x="239" y="273"/>
      <point x="346" y="273" type="curve" smooth="yes"/>
      <point x="386" y="273" type="line"/>
      <point x="451" y="433" type="line"/>
      <point x="451" y="445" type="line"/>
      <point x="295" y="445" type="line" smooth="yes"/>
      <point x="260" y="445"/>
      <point x="231" y="456"/>
      <point x="231" y="480" type="curve" smooth="yes"/>
      <point x="231" y="521"/>
      <point x="329" y="561"/>
      <point x="462" y="607" type="curve"/>
      <point x="412" y="790" type="line"/>
      <point x="400" y="790" type="line"/>
      <point x="118" y="679"/>
      <point x="54" y="585"/>
      <point x="54" y="490" type="curve" smooth="yes"/>
      <point x="54" y="416"/>
      <point x="121" y="352"/>
      <point x="191" y="350" type="curve"/>
      <point x="195" y="400" type="line"/>
      <point x="100" y="354"/>
      <point x="51" y="275"/>
    </contour>
  </outline>
</glyph>
<glyph name="nine-ar" format="2">
  <advance width="609"/>
  <unicode hex="0669"/>
  <note>
uni0669
</note>
  <outline>
    <contour>
      <point x="378" y="267" type="line"/>
      <point x="345" y="253"/>
      <point x="306" y="238"/>
      <point x="236" y="238" type="curve" smooth="yes"/>
      <point x="139" y="238"/>
      <point x="14" y="299"/>
      <point x="14" y="463" type="curve" smooth="yes"/>
      <point x="14" y="617"/>
      <point x="139" y="775"/>
      <point x="309" y="775" type="curve" smooth="yes"/>
      <point x="414" y="775"/>
      <point x="529" y="680"/>
      <point x="529" y="488" type="curve" smooth="yes"/>
      <point x="529" y="0" type="line"/>
      <point x="333" y="0" type="line"/>
      <point x="332" y="407" type="line" smooth="yes"/>
      <point x="332" y="527"/>
      <point x="320" y="615"/>
      <point x="229" y="648" type="curve"/>
      <point x="303" y="635" type="line"/>
      <point x="243" y="608"/>
      <point x="206" y="542"/>
      <point x="204" y="489" type="curve" smooth="yes"/>
      <point x="203" y="446"/>
      <point x="224" y="412"/>
      <point x="274" y="412" type="curve" smooth="yes"/>
      <point x="309" y="412"/>
      <point x="356" y="427"/>
      <point x="384" y="443" type="curve"/>
    </contour>
  </outline>
</glyph>
<glyph name="percent-ar" format="2">
  <advance width="763"/>
  <unicode hex="066A"/>
  <note>
uni066A
</note>
  <outline>
    <contour>
      <point x="100" y="12" type="line"/>
      <point x="100" y="0" type="line"/>
      <point x="247" y="0" type="line"/>
      <point x="645" y="708" type="line"/>
      <point x="645" y="720" type="line"/>
      <point x="498" y="720" type="line"/>
    </contour>
    <contour>
      <point x="169" y="439" type="curve" smooth="yes"/>
      <point x="232" y="439"/>
      <point x="283" y="479"/>
      <point x="283" y="553" type="curve" smooth="yes"/>
      <point x="283" y="627"/>
      <point x="232" y="667"/>
      <point x="169" y="667" type="curve" smooth="yes"/>
      <point x="106" y="667"/>
      <point x="55" y="627"/>
      <point x="55" y="553" type="curve" smooth="yes"/>
      <point x="55" y="479"/>
      <point x="106" y="439"/>
    </contour>
    <contour>
      <point x="478" y="174" type="curve" smooth="yes"/>
      <point x="478" y="100"/>
      <point x="529" y="60"/>
      <point x="592" y="60" type="curve" smooth="yes"/>
      <point x="655" y="60"/>
      <point x="706" y="100"/>
      <point x="706" y="174" type="curve" smooth="yes"/>
      <point x="706" y="248"/>
      <point x="655" y="288"/>
      <point x="592" y="288" type="curve" smooth="yes"/>
      <point x="529" y="288"/>
      <point x="478" y="248"/>
    </contour>
  </outline>
</glyph>
<glyph name="behDotless-ar" format="2">
  <advance width="1128"/>
  <unicode hex="066E"/>
  <note>
uni066E
</note>
  <anchor x="872" y="0" name="*entry"/>
  <anchor x="548" y="0" name="bottom"/>
  <anchor x="548" y="0" name="ring"/>
  <anchor x="549" y="389" name="top"/>
  <outline>
    <contour>
      <point x="88" y="244" type="line"/>
      <point x="44" y="76" type="line"/>
      <point x="70" y="64"/>
      <point x="133" y="45"/>
      <point x="172" y="36" type="curve" smooth="yes"/>
      <point x="317" y="2"/>
      <point x="428" y="0"/>
      <point x="548" y="0" type="curve" smooth="yes"/>
      <point x="872" y="0" type="line" smooth="yes"/>
      <point x="956" y="0"/>
      <point x="1020" y="8"/>
      <point x="1060" y="24" type="curve"/>
      <point x="1064" y="32" type="line"/>
      <point x="1056" y="68"/>
      <point x="1056" y="152"/>
      <point x="1056" y="192" type="curve" smooth="yes"/>
      <point x="1056" y="548" type="line"/>
      <point x="1044" y="548" type="line"/>
      <point x="844" y="528" type="line"/>
      <point x="844" y="264" type="line" smooth="yes"/>
      <point x="844" y="203"/>
      <point x="849" y="161"/>
      <point x="869" y="147" type="curve"/>
      <point x="938" y="176" type="line"/>
      <point x="548" y="176" type="line" smooth="yes"/>
      <point x="462" y="176"/>
      <point x="305" y="178"/>
      <point x="200" y="208" type="curve" smooth="yes"/>
      <point x="177" y="215"/>
      <point x="122" y="233"/>
      <point x="100" y="244" type="curve"/>
    </contour>
  </outline>
</glyph>
<glyph name="fehDotless-ar" format="2">
  <advance width="1212"/>
  <unicode hex="06A1"/>
  <note>
uni06A1
</note>
  <anchor x="548" y="0" name="bottom"/>
  <anchor x="880" y="601" name="top"/>
  <outline>
    <contour>
      <point x="548" y="0" type="curve" smooth="yes"/>
      <point x="956" y="0" type="line" smooth="yes"/>
      <point x="1040" y="0"/>
      <point x="1096" y="8"/>
      <point x="1136" y="24" type="curve"/>
      <point x="1140" y="32" type="line"/>
      <point x="1140" y="375" type="line" smooth="yes"/>
      <point x="1140" y="415"/>
      <point x="1144" y="499"/>
      <point x="1152" y="535" type="curve"/>
      <point x="1148" y="543" type="line"/>
      <point x="1071" y="569"/>
      <point x="972" y="587"/>
      <point x="900" y="587" type="curve" smooth="yes"/>
      <point x="729" y="587"/>
      <point x="600" y="500"/>
      <point x="600" y="346" type="curve" smooth="yes"/>
      <point x="600" y="261"/>
      <point x="640" y="196"/>
      <point x="691" y="151" type="curve"/>
      <point x="738" y="176" type="line"/>
      <point x="548" y="176" type="line" smooth="yes"/>
      <point x="462" y="176"/>
      <point x="305" y="178"/>
      <point x="200" y="208" type="curve" smooth="yes"/>
      <point x="177" y="215"/>
      <point x="122" y="233"/>
      <point x="100" y="244" type="curve"/>
      <point x="88" y="244" type="line"/>
      <point x="44" y="76" type="line"/>
      <point x="70" y="64"/>
      <point x="133" y="45"/>
      <point x="172" y="36" type="curve" smooth="yes"/>
      <point x="317" y="2"/>
      <point x="428" y="0"/>
    </contour>
    <contour>
      <point x="808" y="335" type="curve" smooth="yes"/>
      <point x="808" y="378"/>
      <point x="837" y="419"/>
      <point x="891" y="419" type="curve" smooth="yes"/>
      <point x="922" y="419"/>
      <point x="950" y="406"/>
      <point x="961" y="402" type="curve"/>
      <point x="945" y="446" type="line"/>
      <point x="936" y="408"/>
      <point x="928" y="369"/>
      <point x="928" y="308" type="curve" smooth="yes"/>
      <point x="928" y="98" type="line"/>
      <point x="982" y="161" type="line"/>
      <point x="883" y="166"/>
      <point x="808" y="255"/>
    </contour>
  </outline>
</glyph>
<glyph name="hehDoachashmee-ar" format="2">
  <advance width="1016"/>
  <unicode hex="06BE"/>
  <note>
uni06BE
</note>
  <anchor x="576" y="560" name="top"/>
  <outline>
    <contour>
      <point x="403" y="2" type="curve"/>
      <point x="511" y="86" type="line"/>
      <point x="652" y="112"/>
      <point x="768" y="218"/>
      <point x="768" y="358" type="curve" smooth="yes"/>
      <point x="768" y="474"/>
      <point x="695" y="560"/>
      <point x="576" y="560" type="curve" smooth="yes"/>
      <point x="417" y="560"/>
      <point x="272" y="399"/>
      <point x="272" y="220" type="curve" smooth="yes"/>
      <point x="272" y="25"/>
      <point x="439" y="-80"/>
      <point x="640" y="-80" type="curve" smooth="yes"/>
      <point x="776" y="-80"/>
      <point x="861" y="-34"/>
      <point x="936" y="16" type="curve"/>
      <point x="936" y="592" type="line"/>
      <point x="924" y="592" type="line"/>
      <point x="736" y="576" type="line"/>
      <point x="736" y="26" type="line"/>
      <point x="801" y="154" type="line"/>
      <point x="754" y="117"/>
      <point x="705" y="88"/>
      <point x="644" y="88" type="curve" smooth="yes"/>
      <point x="544" y="88"/>
      <point x="472" y="158"/>
      <point x="472" y="248" type="curve" smooth="yes"/>
      <point x="472" y="317"/>
      <point x="506" y="417"/>
      <point x="598" y="452" type="curve"/>
      <point x="423" y="423" type="line"/>
      <point x="571" y="435"/>
      <point x="620" y="390"/>
      <point x="620" y="352" type="curve" smooth="yes"/>
      <point x="620" y="283"/>
      <point x="526" y="176"/>
      <point x="361" y="176" type="curve" smooth="yes"/>
      <point x="285" y="176"/>
      <point x="169" y="210"/>
      <point x="100" y="244" type="curve"/>
      <point x="88" y="244" type="line"/>
      <point x="44" y="76" type="line"/>
      <point x="128" y="37"/>
      <point x="279" y="2"/>
    </contour>
  </outline>
</glyph>
<glyph name="yehbarree-ar" format="2">
  <advance width="901"/>
  <unicode hex="06D2"/>
  <note>
uni06D2
</note>
  <anchor x="388" y="0" name="bottom"/>
  <anchor x="147" y="453" name="top"/>
  <outline>
    <contour>
      <point x="28" y="188" type="curve" smooth="yes"/>
      <point x="28" y="67"/>
      <point x="145" y="0"/>
      <point x="282" y="0" type="curve" smooth="yes"/>
      <point x="798" y="0" type="line"/>
      <point x="869" y="164" type="line"/>
      <point x="869" y="176" type="line"/>
      <point x="313" y="176" type="line" smooth="yes"/>
      <point x="205" y="176"/>
      <point x="172" y="188"/>
      <point x="164" y="221" type="curve"/>
      <point x="191" y="163" type="line"/>
      <point x="155" y="207"/>
      <point x="258" y="242"/>
      <point x="320" y="276" type="curve" smooth="yes"/>
      <point x="388" y="315"/>
      <point x="442" y="374"/>
      <point x="449" y="410" type="curve"/>
      <point x="413" y="422" type="line"/>
      <point x="431" y="384"/>
      <point x="454" y="323"/>
      <point x="468" y="271" type="curve"/>
      <point x="480" y="271" type="line"/>
      <point x="631" y="347" type="line"/>
      <point x="595" y="456"/>
      <point x="568" y="505"/>
      <point x="527" y="555" type="curve"/>
      <point x="395" y="534" type="line"/>
      <point x="361" y="491"/>
      <point x="287" y="454"/>
      <point x="215" y="412" type="curve" smooth="yes"/>
      <point x="120" y="357"/>
      <point x="28" y="292"/>
    </contour>
  </outline>
</glyph>
<glyph name="endash" format="2">
  <advance width="500"/>
  <unicode hex="2013"/>
  <note>
endash
</note>
  <outline>
    <contour>
      <point x="44" y="396" type="line"/>
      <point x="16" y="256" type="line"/>
      <point x="484" y="256" type="line"/>
      <point x="512" y="396" type="line"/>
    </contour>
  </outline>
</glyph>
<glyph name="quoteleft" format="2">
  <advance width="300"/>
  <unicode hex="2018"/>
  <note>
quoteleft
</note>
  <outline>
    <contour>
      <point x="260" y="564" type="curve"/>
      <point x="380" y="720" type="line"/>
      <point x="380" y="728" type="line"/>
      <point x="232" y="728" type="line"/>
      <point x="156" y="620" type="line" smooth="yes"/>
      <point x="126" y="578"/>
      <point x="76" y="514"/>
      <point x="76" y="452" type="curve" smooth="yes"/>
      <point x="76" y="396"/>
      <point x="120" y="360"/>
      <point x="176" y="360" type="curve" smooth="yes"/>
      <point x="249" y="360"/>
      <point x="304" y="414"/>
      <point x="304" y="488" type="curve" smooth="yes"/>
      <point x="304" y="527"/>
      <point x="282" y="552"/>
    </contour>
  </outline>
</glyph>
<glyph name="quotedblleft" format="2">
  <advance width="584"/>
  <unicode hex="201C"/>
  <note>
quotedblleft
</note>
  <outline>
    <contour>
      <point x="460" y="360" type="curve" smooth="yes"/>
      <point x="533" y="360"/>
      <point x="588" y="414"/>
      <point x="588" y="488" type="curve" smooth="yes"/>
      <point x="588" y="527"/>
      <point x="566" y="552"/>
      <point x="544" y="564" type="curve"/>
      <point x="664" y="720" type="line"/>
      <point x="664" y="728" type="line"/>
      <point x="516" y="728" type="line"/>
      <point x="440" y="620" type="line" smooth="yes"/>
      <point x="410" y="578"/>
      <point x="360" y="514"/>
      <point x="360" y="452" type="curve" smooth="yes"/>
      <point x="360" y="396"/>
      <point x="404" y="360"/>
    </contour>
    <contour>
      <point x="176" y="360" type="curve" smooth="yes"/>
      <point x="249" y="360"/>
      <point x="304" y="414"/>
      <point x="304" y="488" type="curve" smooth="yes"/>
      <point x="304" y="527"/>
      <point x="282" y="552"/>
      <point x="260" y="564" type="curve"/>
      <point x="380" y="720" type="line"/>
      <point x="380" y="728" type="line"/>
      <point x="232" y="728" type="line"/>
      <point x="156" y="620" type="line" smooth="yes"/>
      <point x="126" y="578"/>
      <point x="76" y="514"/>
      <point x="76" y="452" type="curve" smooth="yes"/>
      <point x="76" y="396"/>
      <point x="120" y="360"/>
    </contour>
  </outline>
</glyph>
<glyph name="quotedblright" format="2">
  <advance width="584"/>
  <unicode hex="201D"/>
  <note>
quotedblright
</note>
  <outline>
    <contour>
      <point x="316" y="360" type="line"/>
      <point x="464" y="360" type="line"/>
      <point x="540" y="468" type="line" smooth="yes"/>
      <point x="570" y="510"/>
      <point x="620" y="574"/>
      <point x="620" y="636" type="curve" smooth="yes"/>
      <point x="620" y="692"/>
      <point x="576" y="728"/>
      <point x="520" y="728" type="curve" smooth="yes"/>
      <point x="447" y="728"/>
      <point x="392" y="674"/>
      <point x="392" y="600" type="curve" smooth="yes"/>
      <point x="392" y="561"/>
      <point x="414" y="536"/>
      <point x="436" y="524" type="curve"/>
      <point x="316" y="368" type="line"/>
    </contour>
    <contour>
      <point x="32" y="360" type="line"/>
      <point x="180" y="360" type="line"/>
      <point x="256" y="468" type="line" smooth="yes"/>
      <point x="286" y="510"/>
      <point x="336" y="574"/>
      <point x="336" y="636" type="curve" smooth="yes"/>
      <point x="336" y="692"/>
      <point x="292" y="728"/>
      <point x="236" y="728" type="curve" smooth="yes"/>
      <point x="163" y="728"/>
      <point x="108" y="674"/>
      <point x="108" y="600" type="curve" smooth="yes"/>
      <point x="108" y="561"/>
      <point x="130" y="536"/>
      <point x="152" y="524" type="curve"/>
      <point x="32" y="368" type="line"/>
    </contour>
  </outline>
</glyph>
<glyph name="quotedblbase" format="2">
  <advance width="584"/>
  <unicode hex="201E"/>
  <note>
quotedblbase
</note>
  <outline>
    <contour>
      <point x="212" y="-160" type="line"/>
      <point x="360" y="-160" type="line"/>
      <point x="436" y="-52" type="line" smooth="yes"/>
      <point x="466" y="-10"/>
      <point x="516" y="54"/>
      <point x="516" y="116" type="curve" smooth="yes"/>
      <point x="516" y="172"/>
      <point x="472" y="208"/>
      <point x="416" y="208" type="curve" smooth="yes"/>
      <point x="343" y="208"/>
      <point x="288" y="154"/>
      <point x="288" y="80" type="curve" smooth="yes"/>
      <point x="288" y="41"/>
      <point x="310" y="16"/>
      <point x="332" y="4" type="curve"/>
      <point x="212" y="-152" type="line"/>
    </contour>
    <contour>
      <point x="-72" y="-160" type="line"/>
      <point x="76" y="-160" type="line"/>
      <point x="152" y="-52" type="line" smooth="yes"/>
      <point x="182" y="-10"/>
      <point x="232" y="54"/>
      <point x="232" y="116" type="curve" smooth="yes"/>
      <point x="232" y="172"/>
      <point x="188" y="208"/>
      <point x="132" y="208" type="curve" smooth="yes"/>
      <point x="59" y="208"/>
      <point x="4" y="154"/>
      <point x="4" y="80" type="curve" smooth="yes"/>
      <point x="4" y="41"/>
      <point x="26" y="16"/>
      <point x="48" y="4" type="curve"/>
      <point x="-72" y="-152" type="line"/>
    </contour>
  </outline>
</glyph>
<glyph name="bullet" format="2">
  <advance width="504"/>
  <unicode hex="2022"/>
  <note>
bullet
</note>
  <outline>
    <contour>
      <point x="272" y="200" type="curve" smooth="yes"/>
      <point x="360" y="200"/>
      <point x="436" y="264"/>
      <point x="436" y="364" type="curve" smooth="yes"/>
      <point x="436" y="464"/>
      <point x="360" y="528"/>
      <point x="272" y="528" type="curve" smooth="yes"/>
      <point x="184" y="528"/>
      <point x="108" y="464"/>
      <point x="108" y="364" type="curve" smooth="yes"/>
      <point x="108" y="264"/>
      <point x="184" y="200"/>
    </contour>
  </outline>
</glyph>
<glyph name="guilsinglleft" format="2">
  <advance width="364"/>
  <unicode hex="2039"/>
  <note>
guilsinglleft
</note>
  <outline>
    <contour>
      <point x="252" y="36" type="line"/>
      <point x="260" y="36" type="line"/>
      <point x="290" y="196" type="line"/>
      <point x="174" y="294" type="line"/>
      <point x="328" y="392" type="line"/>
      <point x="364" y="580" type="line"/>
      <point x="356" y="580" type="line"/>
      <point x="48" y="360" type="line"/>
      <point x="28" y="256" type="line"/>
    </contour>
  </outline>
</glyph>
<glyph name="guilsinglright" format="2">
  <advance width="363"/>
  <unicode hex="203A"/>
  <note>
guilsinglright
</note>
  <outline>
    <contour>
      <point x="13" y="36" type="line"/>
      <point x="21" y="36" type="line"/>
      <point x="329" y="256" type="line"/>
      <point x="349" y="360" type="line"/>
      <point x="125" y="580" type="line"/>
      <point x="117" y="580" type="line"/>
      <point x="87" y="420" type="line"/>
      <point x="203" y="322" type="line"/>
      <point x="49" y="224" type="line"/>
    </contour>
  </outline>
</glyph>
<glyph name="zeroinferior" format="2">
  <advance width="397"/>
  <unicode hex="2080"/>
  <note>
uni2080
</note>
  <outline>
    <contour>
      <point x="134" y="-168" type="curve" smooth="yes"/>
      <point x="287" y="-168"/>
      <point x="345" y="-24"/>
      <point x="345" y="84" type="curve" smooth="yes"/>
      <point x="345" y="181"/>
      <point x="293" y="248"/>
      <point x="180" y="248" type="curve" smooth="yes"/>
      <point x="29" y="248"/>
      <point x="-31" y="106"/>
      <point x="-31" y="-2" type="curve" smooth="yes"/>
      <point x="-31" y="-101"/>
      <point x="19" y="-168"/>
    </contour>
    <contour>
      <point x="140" y="-59" type="curve" smooth="yes"/>
      <point x="123" y="-59"/>
      <point x="118" y="-41"/>
      <point x="118" y="-18" type="curve" smooth="yes"/>
      <point x="118" y="36"/>
      <point x="138" y="138"/>
      <point x="174" y="138" type="curve" smooth="yes"/>
      <point x="191" y="138"/>
      <point x="196" y="120"/>
      <point x="196" y="97" type="curve" smooth="yes"/>
      <point x="196" y="43"/>
      <point x="176" y="-59"/>
    </contour>
  </outline>
</glyph>
<glyph name="oneinferior" format="2">
  <advance width="397"/>
  <unicode hex="2081"/>
  <note>
uni2081
</note>
  <outline>
    <contour>
      <point x="64" y="-56" type="line"/>
      <point x="220" y="-56" type="line"/>
      <point x="258" y="146" type="line" smooth="yes"/>
      <point x="262" y="169"/>
      <point x="271" y="213"/>
      <point x="280" y="233" type="curve"/>
      <point x="280" y="239" type="line"/>
      <point x="268" y="240"/>
      <point x="235" y="247"/>
      <point x="181" y="247" type="curve" smooth="yes"/>
      <point x="102" y="247"/>
      <point x="63" y="242"/>
      <point x="38" y="239" type="curve"/>
      <point x="14" y="127" type="line"/>
      <point x="103" y="127" type="line"/>
      <point x="98" y="117"/>
      <point x="92" y="92"/>
      <point x="89" y="79" type="curve"/>
    </contour>
    <contour>
      <point x="317" y="-40" type="line"/>
      <point x="-28" y="-40" type="line"/>
      <point x="-52" y="-160" type="line"/>
      <point x="292" y="-160" type="line"/>
    </contour>
  </outline>
</glyph>
<glyph name="threeinferior" format="2">
  <advance width="397"/>
  <unicode hex="2083"/>
  <note>
uni2083
</note>
  <outline>
    <contour>
      <point x="87" y="-168" type="curve" smooth="yes"/>
      <point x="247" y="-168"/>
      <point x="320" y="-115"/>
      <point x="320" y="-28" type="curve" smooth="yes"/>
      <point x="320" y="45"/>
      <point x="252" y="102"/>
      <point x="133" y="73" type="curve"/>
      <point x="150" y="20" type="line"/>
      <point x="317" y="165" type="line" smooth="yes"/>
      <point x="339" y="183"/>
      <point x="354" y="202"/>
      <point x="346" y="231" type="curve"/>
      <point x="341" y="240" type="line"/>
      <point x="36" y="240" type="line"/>
      <point x="11" y="131" type="line"/>
      <point x="134" y="131" type="line"/>
      <point x="45" y="43" type="line"/>
      <point x="57" y="-4" type="line"/>
      <point x="121" y="-4" type="line" smooth="yes"/>
      <point x="150" y="-4"/>
      <point x="163" y="-15"/>
      <point x="163" y="-30" type="curve" smooth="yes"/>
      <point x="163" y="-59"/>
      <point x="123" y="-64"/>
      <point x="87" y="-64" type="curve" smooth="yes"/>
      <point x="46" y="-64"/>
      <point x="4" y="-47"/>
      <point x="-7" y="-39" type="curve"/>
      <point x="-15" y="-39" type="line"/>
      <point x="-36" y="-153" type="line"/>
      <point x="-20" y="-159"/>
      <point x="43" y="-168"/>
    </contour>
  </outline>
</glyph>
<glyph name="fourinferior" format="2">
  <advance width="397"/>
  <unicode hex="2084"/>
  <note>
uni2084
</note>
  <outline>
    <contour>
      <point x="122" y="-160" type="line"/>
      <point x="265" y="-160" type="line"/>
      <point x="324" y="145" type="line" smooth="yes"/>
      <point x="328" y="167"/>
      <point x="341" y="206"/>
      <point x="350" y="226" type="curve"/>
      <point x="350" y="231" type="line"/>
      <point x="330" y="237"/>
      <point x="304" y="243"/>
      <point x="265" y="243" type="curve" smooth="yes"/>
      <point x="167" y="243"/>
      <point x="72" y="241"/>
      <point x="15" y="106" type="curve" smooth="yes"/>
      <point x="-24" y="10" type="line"/>
      <point x="-43" y="-89" type="line"/>
      <point x="309" y="-89" type="line"/>
      <point x="332" y="25" type="line"/>
      <point x="118" y="25" type="line"/>
      <point x="146" y="91" type="line" smooth="yes"/>
      <point x="154" y="108"/>
      <point x="158" y="123"/>
      <point x="196" y="123" type="curve"/>
      <point x="182" y="136" type="line"/>
      <point x="179" y="132"/>
      <point x="172" y="116"/>
      <point x="170" y="101" type="curve"/>
    </contour>
  </outline>
</glyph>
<glyph name="fiveinferior" format="2">
  <advance width="397"/>
  <unicode hex="2085"/>
  <note>
uni2085
</note>
  <outline>
    <contour>
      <point x="-21" y="-37" type="line"/>
      <point x="-43" y="-150" type="line"/>
      <point x="-25" y="-157"/>
      <point x="29" y="-168"/>
      <point x="75" y="-168" type="curve" smooth="yes"/>
      <point x="235" y="-168"/>
      <point x="316" y="-116"/>
      <point x="316" y="-22" type="curve"/>
      <point x="315" y="38"/>
      <point x="270" y="86"/>
      <point x="170" y="86" type="curve" smooth="yes"/>
      <point x="158" y="86"/>
      <point x="141" y="86"/>
      <point x="129" y="86" type="curve"/>
      <point x="156" y="56" type="line"/>
      <point x="163" y="102" type="line" smooth="yes"/>
      <point x="165" y="117"/>
      <point x="167" y="134"/>
      <point x="165" y="150" type="curve"/>
      <point x="157" y="131" type="line"/>
      <point x="322" y="131" type="line"/>
      <point x="345" y="240" type="line"/>
      <point x="125" y="240" type="line" smooth="yes"/>
      <point x="87" y="240"/>
      <point x="66" y="236"/>
      <point x="44" y="231" type="curve"/>
      <point x="44" y="217" type="line"/>
      <point x="40" y="190"/>
      <point x="35" y="166"/>
      <point x="31" y="146" type="curve" smooth="yes"/>
      <point x="-2" y="-6" type="line"/>
      <point x="5" y="-9" type="line"/>
      <point x="27" y="-7"/>
      <point x="46" y="-2"/>
      <point x="90" y="-2" type="curve" smooth="yes"/>
      <point x="143" y="-2"/>
      <point x="159" y="-13"/>
      <point x="159" y="-25" type="curve" smooth="yes"/>
      <point x="160" y="-54"/>
      <point x="126" y="-59"/>
      <point x="78" y="-59" type="curve" smooth="yes"/>
      <point x="32" y="-59"/>
      <point x="6" y="-47"/>
      <point x="-13" y="-37" type="curve"/>
    </contour>
  </outline>
</glyph>
<glyph name="sixinferior" format="2">
  <advance width="397"/>
  <unicode hex="2086"/>
  <note>
uni2086
</note>
  <outline>
    <contour>
      <point x="138" y="-168" type="curve" smooth="yes"/>
      <point x="237" y="-168"/>
      <point x="324" y="-122"/>
      <point x="324" y="-8" type="curve" smooth="yes"/>
      <point x="324" y="40"/>
      <point x="295" y="103"/>
      <point x="198" y="103" type="curve" smooth="yes"/>
      <point x="163" y="103"/>
      <point x="135" y="95"/>
      <point x="121" y="88" type="curve"/>
      <point x="49" y="88" type="line"/>
      <point x="49" y="-12" type="line"/>
      <point x="78" y="-12" type="line"/>
      <point x="104" y="2"/>
      <point x="129" y="8"/>
      <point x="145" y="8" type="curve" smooth="yes"/>
      <point x="169" y="8"/>
      <point x="176" y="-5"/>
      <point x="176" y="-23" type="curve" smooth="yes"/>
      <point x="176" y="-44"/>
      <point x="165" y="-62"/>
      <point x="144" y="-62" type="curve" smooth="yes"/>
      <point x="123" y="-62"/>
      <point x="118" y="-46"/>
      <point x="118" y="-24" type="curve" smooth="yes"/>
      <point x="118" y="87"/>
      <point x="148" y="138"/>
      <point x="245" y="138" type="curve" smooth="yes"/>
      <point x="264" y="138"/>
      <point x="282" y="136"/>
      <point x="298" y="130" type="curve"/>
      <point x="307" y="130" type="line"/>
      <point x="328" y="244" type="line"/>
      <point x="308" y="247"/>
      <point x="272" y="248"/>
      <point x="253" y="248" type="curve" smooth="yes"/>
      <point x="32" y="248"/>
      <point x="-33" y="114"/>
      <point x="-31" y="-15" type="curve" smooth="yes"/>
      <point x="-31" y="-103"/>
      <point x="22" y="-168"/>
    </contour>
  </outline>
</glyph>
<glyph name="lira" format="2">
  <advance width="616"/>
  <unicode hex="20A4"/>
  <outline>
    <contour>
      <point x="103" y="0" type="line"/>
      <point x="311" y="0" type="line"/>
      <point x="402" y="468" type="line" smooth="yes"/>
      <point x="417" y="544"/>
      <point x="464" y="584"/>
      <point x="536" y="584" type="curve" smooth="yes"/>
      <point x="558" y="584"/>
      <point x="580" y="580"/>
      <point x="594" y="572" type="curve"/>
      <point x="606" y="572" type="line"/>
      <point x="634" y="716" type="line"/>
      <point x="612" y="724"/>
      <point x="577" y="732"/>
      <point x="529" y="732" type="curve" smooth="yes"/>
      <point x="355" y="732"/>
      <point x="228" y="648"/>
      <point x="192" y="460" type="curve" smooth="yes"/>
    </contour>
    <contour>
      <point x="-13" y="0" type="line" name="hr00"/>
      <point x="535" y="0" type="line"/>
      <point x="564" y="152" type="line"/>
      <point x="16" y="152" type="line"/>
    </contour>
    <contour>
      <point x="41" y="216" type="line"/>
      <point x="489" y="216" type="line"/>
      <point x="515" y="348" type="line"/>
      <point x="67" y="348" type="line"/>
    </contour>
    <contour>
      <point x="75" y="392" type="line"/>
      <point x="523" y="392" type="line"/>
      <point x="549" y="524" type="line"/>
      <point x="101" y="524" type="line"/>
    </contour>
  </outline>
</glyph>
<glyph name="naira" format="2">
  <advance width="784"/>
  <unicode hex="20A6"/>
  <outline>
    <contour>
      <point x="26" y="0" type="line"/>
      <point x="226" y="0" type="line"/>
      <point x="328" y="527" type="line"/>
      <point x="263" y="502" type="line"/>
      <point x="482" y="0" type="line"/>
      <point x="650" y="0" type="line"/>
      <point x="790" y="720" type="line"/>
      <point x="590" y="720" type="line"/>
      <point x="488" y="193" type="line"/>
      <point x="553" y="218" type="line"/>
      <point x="334" y="720" type="line"/>
      <point x="166" y="720" type="line"/>
    </contour>
    <contour>
      <point x="-4" y="196" type="line"/>
      <point x="756" y="196" type="line"/>
      <point x="777" y="304" type="line"/>
      <point x="17" y="304" type="line"/>
    </contour>
    <contour>
      <point x="39" y="419" type="line"/>
      <point x="799" y="419" type="line"/>
      <point x="820" y="527" type="line"/>
      <point x="60" y="527" type="line"/>
    </contour>
  </outline>
</glyph>
<glyph name="dong" format="2">
  <advance width="684"/>
  <unicode hex="20AB"/>
  <outline>
    <contour>
      <point x="755" y="766" type="line"/>
      <point x="383" y="766" type="line"/>
      <point x="363" y="666" type="line"/>
      <point x="735" y="666" type="line"/>
    </contour>
    <contour>
      <point x="330" y="136" type="curve" smooth="yes"/>
      <point x="432" y="136"/>
      <point x="511" y="152"/>
      <point x="572" y="176" type="curve"/>
      <point x="577" y="184" type="line"/>
      <point x="576" y="220"/>
      <point x="590" y="292"/>
      <point x="598" y="332" type="curve" smooth="yes"/>
      <point x="694" y="826" type="line"/>
      <point x="482" y="826" type="line"/>
      <point x="477" y="818" type="line"/>
      <point x="478" y="789"/>
      <point x="464" y="692"/>
      <point x="453" y="635" type="curve"/>
      <point x="439" y="565" type="line"/>
      <point x="477" y="616" type="line"/>
      <point x="469" y="619"/>
      <point x="435" y="631"/>
      <point x="370" y="631" type="curve" smooth="yes"/>
      <point x="192" y="631"/>
      <point x="78" y="506"/>
      <point x="78" y="355" type="curve" smooth="yes"/>
      <point x="78" y="192"/>
      <point x="186" y="136"/>
    </contour>
    <contour>
      <point x="392" y="230" type="curve"/>
      <point x="412" y="280" type="line"/>
      <point x="399" y="276"/>
      <point x="382" y="272"/>
      <point x="362" y="272" type="curve" smooth="yes"/>
      <point x="309" y="272"/>
      <point x="285" y="303"/>
      <point x="285" y="368" type="curve" smooth="yes"/>
      <point x="285" y="439"/>
      <point x="326" y="496"/>
      <point x="394" y="496" type="curve" smooth="yes"/>
      <point x="418" y="496"/>
      <point x="433" y="490"/>
      <point x="452" y="484" type="curve"/>
      <point x="435" y="541" type="line"/>
      <point x="395" y="336" type="line" smooth="yes"/>
      <point x="388" y="298"/>
      <point x="379" y="256"/>
    </contour>
    <contour>
      <point x="555" y="92" type="line"/>
      <point x="61" y="92" type="line"/>
      <point x="36" y="-40" type="line"/>
      <point x="530" y="-40" type="line"/>
    </contour>
  </outline>
</glyph>
<glyph name="euro" format="2">
  <advance width="616"/>
  <unicode hex="20AC"/>
  <note>
Euro
</note>
  <outline>
    <contour>
      <point x="420" y="-12" type="curve" smooth="yes"/>
      <point x="452" y="-12"/>
      <point x="492" y="-8"/>
      <point x="528" y="4" type="curve"/>
      <point x="560" y="168" type="line"/>
      <point x="548" y="168" type="line"/>
      <point x="522" y="156"/>
      <point x="492" y="148"/>
      <point x="456" y="148" type="curve" smooth="yes"/>
      <point x="356" y="148"/>
      <point x="332" y="200"/>
      <point x="332" y="296" type="curve" smooth="yes"/>
      <point x="332" y="444"/>
      <point x="408" y="572"/>
      <point x="540" y="572" type="curve" smooth="yes"/>
      <point x="576" y="572"/>
      <point x="598" y="564"/>
      <point x="620" y="552" type="curve"/>
      <point x="632" y="552" type="line"/>
      <point x="664" y="716" type="line"/>
      <point x="640" y="724"/>
      <point x="592" y="732"/>
      <point x="544" y="732" type="curve" smooth="yes"/>
      <point x="296" y="732"/>
      <point x="132" y="548"/>
      <point x="132" y="280" type="curve" smooth="yes"/>
      <point x="132" y="108"/>
      <point x="208" y="-12"/>
    </contour>
    <contour>
      <point x="28" y="212" type="line"/>
      <point x="452" y="212" type="line"/>
      <point x="474" y="328" type="line"/>
      <point x="50" y="328" type="line"/>
    </contour>
    <contour>
      <point x="62" y="392" type="line"/>
      <point x="486" y="392" type="line"/>
      <point x="508" y="508" type="line"/>
      <point x="84" y="508" type="line"/>
    </contour>
  </outline>
</glyph>
<glyph name="peso" format="2">
  <advance width="722"/>
  <unicode hex="20B1"/>
  <outline>
    <contour>
      <point x="156" y="136" type="line"/>
      <point x="322" y="136" type="line" smooth="yes"/>
      <point x="555" y="136"/>
      <point x="697" y="291"/>
      <point x="697" y="472" type="curve" smooth="yes"/>
      <point x="697" y="646"/>
      <point x="583" y="720"/>
      <point x="408" y="720" type="curve" smooth="yes"/>
      <point x="270" y="720" type="line"/>
      <point x="240" y="568" type="line"/>
      <point x="398" y="568" type="line" smooth="yes"/>
      <point x="462" y="568"/>
      <point x="493" y="529"/>
      <point x="493" y="471" type="curve" smooth="yes"/>
      <point x="493" y="351"/>
      <point x="439" y="280"/>
      <point x="332" y="280" type="curve" smooth="yes"/>
      <point x="184" y="280" type="line"/>
    </contour>
    <contour>
      <point x="18" y="0" type="line"/>
      <point x="230" y="0" type="line"/>
      <point x="370" y="720" type="line"/>
      <point x="158" y="720" type="line"/>
    </contour>
    <contour>
      <point x="23" y="316" type="line"/>
      <point x="721" y="316" type="line"/>
      <point x="739" y="408" type="line"/>
      <point x="41" y="408" type="line"/>
    </contour>
    <contour>
      <point x="49" y="448" type="line"/>
      <point x="747" y="448" type="line"/>
      <point x="765" y="540" type="line"/>
      <point x="67" y="540" type="line"/>
    </contour>
  </outline>
</glyph>
<glyph name="rupeeIndian" format="2">
  <advance width="644"/>
  <unicode hex="20B9"/>
  <outline>
    <contour>
      <point x="218" y="0" type="line"/>
      <point x="478" y="0" type="line"/>
      <point x="478" y="12" type="line"/>
      <point x="264" y="222" type="line"/>
      <point x="135" y="164" type="line"/>
      <point x="194" y="164" type="line" smooth="yes"/>
      <point x="397" y="164"/>
      <point x="593" y="316"/>
      <point x="593" y="483" type="curve" smooth="yes"/>
      <point x="593" y="642"/>
      <point x="509" y="720"/>
      <point x="302" y="720" type="curve" smooth="yes"/>
      <point x="150" y="720" type="line"/>
      <point x="118" y="556" type="line"/>
      <point x="280" y="556" type="line" smooth="yes"/>
      <point x="350" y="556"/>
      <point x="378" y="534"/>
      <point x="378" y="477" type="curve" smooth="yes"/>
      <point x="378" y="395"/>
      <point x="325" y="332"/>
      <point x="231" y="332" type="curve" smooth="yes"/>
      <point x="95" y="332" type="line"/>
      <point x="38" y="208" type="line"/>
    </contour>
    <contour>
      <point x="86" y="390" type="line"/>
      <point x="638" y="390" type="line"/>
      <point x="662" y="514" type="line"/>
      <point x="110" y="514" type="line"/>
    </contour>
    <contour>
      <point x="147" y="592" type="line"/>
      <point x="677" y="592" type="line"/>
      <point x="702" y="720" type="line"/>
      <point x="172" y="720" type="line"/>
    </contour>
  </outline>
</glyph>
<glyph name="liraTurkish" format="2">
  <advance width="632"/>
  <unicode hex="20BA"/>
  <outline>
    <contour>
      <point x="253" y="-8" type="curve" smooth="yes"/>
      <point x="425" y="-8"/>
      <point x="558" y="52"/>
      <point x="612" y="232" type="curve" smooth="yes"/>
      <point x="635" y="308" type="line"/>
      <point x="635" y="324" type="line"/>
      <point x="458" y="324" type="line"/>
      <point x="435" y="248" type="line" smooth="yes"/>
      <point x="417" y="189"/>
      <point x="377" y="156"/>
      <point x="321" y="156" type="curve" smooth="yes"/>
      <point x="272" y="156"/>
      <point x="262" y="162"/>
      <point x="247" y="168" type="curve"/>
      <point x="243" y="120" type="line"/>
      <point x="267" y="137"/>
      <point x="285" y="175"/>
      <point x="294" y="220" type="curve" smooth="yes"/>
      <point x="391" y="720" type="line"/>
      <point x="191" y="720" type="line"/>
      <point x="87" y="184" type="line" smooth="yes"/>
      <point x="79" y="144"/>
      <point x="58" y="60"/>
      <point x="43" y="24" type="curve"/>
      <point x="45" y="12" type="line"/>
      <point x="98" y="0"/>
      <point x="158" y="-8"/>
    </contour>
    <contour>
      <point x="29" y="240" type="line"/>
      <point x="37" y="240" type="line"/>
      <point x="431" y="352" type="line"/>
      <point x="452" y="460" type="line"/>
      <point x="444" y="460" type="line"/>
      <point x="50" y="348" type="line"/>
    </contour>
    <contour>
      <point x="61" y="400" type="line"/>
      <point x="69" y="400" type="line"/>
      <point x="462" y="512" type="line"/>
      <point x="483" y="620" type="line"/>
      <point x="475" y="620" type="line"/>
      <point x="82" y="508" type="line"/>
    </contour>
  </outline>
</glyph>
<glyph name="manat" format="2">
  <advance width="696"/>
  <unicode hex="20BC"/>
  <outline>
    <contour>
      <point x="-7" y="0" type="line"/>
      <point x="169" y="0" type="line"/>
      <point x="226" y="292" type="line" smooth="yes"/>
      <point x="253" y="432"/>
      <point x="304" y="508"/>
      <point x="400" y="508" type="curve" smooth="yes"/>
      <point x="496" y="508"/>
      <point x="517" y="432"/>
      <point x="490" y="292" type="curve" smooth="yes"/>
      <point x="433" y="0" type="line"/>
      <point x="609" y="0" type="line"/>
      <point x="659" y="260" type="line" smooth="yes"/>
      <point x="708" y="516"/>
      <point x="660" y="652"/>
      <point x="408" y="652" type="curve" smooth="yes"/>
      <point x="196" y="652"/>
      <point x="92" y="516"/>
      <point x="43" y="260" type="curve" smooth="yes"/>
    </contour>
    <contour>
      <point x="253" y="102" type="line"/>
      <point x="393" y="102" type="line"/>
      <point x="515" y="732" type="line"/>
      <point x="375" y="732" type="line"/>
    </contour>
  </outline>
</glyph>
<glyph name="literSign" format="2">
  <advance width="441"/>
  <unicode hex="2113"/>
  <note>
afii61289
</note>
  <outline>
    <contour>
      <point x="157" y="29" type="curve" smooth="yes"/>
      <point x="182" y="3"/>
      <point x="218" y="-12"/>
      <point x="267" y="-12" type="curve" smooth="yes"/>
      <point x="351" y="-12"/>
      <point x="414" y="39"/>
      <point x="449" y="120" type="curve"/>
      <point x="425" y="137" type="line"/>
      <point x="387" y="83"/>
      <point x="349" y="51"/>
      <point x="298" y="51" type="curve" smooth="yes"/>
      <point x="246" y="51"/>
      <point x="200" y="84"/>
      <point x="200" y="200" type="curve" smooth="yes"/>
      <point x="200" y="297" type="line"/>
      <point x="271" y="352"/>
      <point x="395" y="452"/>
      <point x="395" y="594" type="curve" smooth="yes"/>
      <point x="395" y="679"/>
      <point x="354" y="732"/>
      <point x="286" y="732" type="curve" smooth="yes"/>
      <point x="253" y="732"/>
      <point x="224" y="722"/>
      <point x="195" y="697" type="curve"/>
      <point x="146" y="651"/>
      <point x="116" y="587"/>
      <point x="116" y="432" type="curve" smooth="yes"/>
      <point x="116" y="286" type="line"/>
      <point x="91" y="263"/>
      <point x="65" y="242"/>
      <point x="38" y="220" type="curve"/>
      <point x="51" y="194" type="line"/>
      <point x="114" y="239" type="line"/>
      <point x="116" y="237" type="line"/>
      <point x="116" y="178" type="line" smooth="yes"/>
      <point x="116" y="112"/>
      <point x="127" y="61"/>
    </contour>
    <contour>
      <point x="202" y="348" type="curve"/>
      <point x="200" y="349" type="line"/>
      <point x="200" y="501" type="line" smooth="yes"/>
      <point x="200" y="642"/>
      <point x="227" y="693"/>
      <point x="273" y="693" type="curve" smooth="yes"/>
      <point x="310" y="693"/>
      <point x="333" y="661"/>
      <point x="333" y="595" type="curve" smooth="yes"/>
      <point x="333" y="492"/>
      <point x="269" y="405"/>
    </contour>
  </outline>
</glyph>
<glyph name="trademark" format="2">
  <advance width="1014"/>
  <unicode hex="2122"/>
  <note>
trademark
</note>
  <outline>
    <contour>
      <point x="520" y="320" type="line"/>
      <point x="668" y="320" type="line"/>
      <point x="668" y="579" type="line"/>
      <point x="631" y="566" type="line"/>
      <point x="724" y="380" type="line"/>
      <point x="804" y="380" type="line"/>
      <point x="895" y="569" type="line"/>
      <point x="859" y="581" type="line"/>
      <point x="859" y="320" type="line"/>
      <point x="1007" y="320" type="line"/>
      <point x="1007" y="720" type="line"/>
      <point x="855" y="720" type="line"/>
      <point x="732" y="481" type="line"/>
      <point x="801" y="481" type="line"/>
      <point x="672" y="720" type="line"/>
      <point x="520" y="720" type="line"/>
    </contour>
    <contour>
      <point x="199" y="320" type="line"/>
      <point x="356" y="320" type="line"/>
      <point x="356" y="600" type="line"/>
      <point x="471" y="600" type="line"/>
      <point x="471" y="720" type="line"/>
      <point x="85" y="720" type="line"/>
      <point x="85" y="600" type="line"/>
      <point x="199" y="600" type="line"/>
    </contour>
  </outline>
</glyph>
<glyph name="leftArrow" format="2">
  <advance width="772"/>
  <unicode hex="2190"/>
  <note>
uni2190
</note>
  <outline>
    <contour>
      <point x="752" y="200" type="line"/>
      <point x="752" y="352" type="line"/>
      <point x="416" y="348" type="line" smooth="yes"/>
      <point x="347" y="347"/>
      <point x="298" y="343"/>
      <point x="260" y="338" type="curve"/>
      <point x="276" y="353"/>
      <point x="290" y="368"/>
      <point x="300" y="380" type="curve" smooth="yes"/>
      <point x="376" y="468" type="line"/>
      <point x="280" y="552" type="line"/>
      <point x="132" y="380" type="line" smooth="yes"/>
      <point x="113" y="359"/>
      <point x="84" y="328"/>
      <point x="56" y="304" type="curve"/>
      <point x="56" y="248" type="line"/>
      <point x="84" y="224"/>
      <point x="113" y="193"/>
      <point x="132" y="172" type="curve" smooth="yes"/>
      <point x="280" y="0" type="line"/>
      <point x="376" y="84" type="line"/>
      <point x="300" y="172" type="line" smooth="yes"/>
      <point x="290" y="183"/>
      <point x="276" y="199"/>
      <point x="260" y="213" type="curve"/>
      <point x="297" y="209"/>
      <point x="349" y="205"/>
      <point x="416" y="204" type="curve" smooth="yes"/>
    </contour>
  </outline>
</glyph>
<glyph name="downArrow" format="2">
  <advance width="632"/>
  <unicode hex="2193"/>
  <note>
uni2193
</note>
  <outline>
    <contour>
      <point x="412" y="624" type="line"/>
      <point x="260" y="624" type="line"/>
      <point x="264" y="288" type="line" smooth="yes"/>
      <point x="265" y="219"/>
      <point x="268" y="170"/>
      <point x="273" y="132" type="curve"/>
      <point x="259" y="148"/>
      <point x="243" y="162"/>
      <point x="232" y="172" type="curve" smooth="yes"/>
      <point x="144" y="248" type="line"/>
      <point x="60" y="152" type="line"/>
      <point x="232" y="4" type="line" smooth="yes"/>
      <point x="253" y="-15"/>
      <point x="284" y="-44"/>
      <point x="308" y="-72" type="curve"/>
      <point x="364" y="-72" type="line"/>
      <point x="388" y="-44"/>
      <point x="419" y="-15"/>
      <point x="440" y="4" type="curve" smooth="yes"/>
      <point x="612" y="152" type="line"/>
      <point x="528" y="248" type="line"/>
      <point x="440" y="172" type="line" smooth="yes"/>
      <point x="428" y="162"/>
      <point x="413" y="148"/>
      <point x="398" y="132" type="curve"/>
      <point x="403" y="169"/>
      <point x="407" y="221"/>
      <point x="408" y="288" type="curve" smooth="yes"/>
    </contour>
  </outline>
</glyph>
<glyph name="partialdiff" format="2">
  <advance width="616"/>
  <unicode hex="2202"/>
  <note>
partialdiff
</note>
  <outline>
    <contour>
      <point x="260" y="-12" type="curve" smooth="yes"/>
      <point x="513" y="-12"/>
      <point x="608" y="211"/>
      <point x="608" y="444" type="curve" smooth="yes"/>
      <point x="608" y="609"/>
      <point x="523" y="732"/>
      <point x="308" y="732" type="curve" smooth="yes"/>
      <point x="259" y="732"/>
      <point x="222" y="725"/>
      <point x="188" y="716" type="curve"/>
      <point x="164" y="580" type="line"/>
      <point x="172" y="580" type="line"/>
      <point x="198" y="589"/>
      <point x="232" y="600"/>
      <point x="280" y="600" type="curve" smooth="yes"/>
      <point x="411" y="600"/>
      <point x="452" y="540"/>
      <point x="452" y="448" type="curve" smooth="yes"/>
      <point x="452" y="442"/>
      <point x="451" y="436"/>
      <point x="451" y="430" type="curve"/>
      <point x="424" y="449"/>
      <point x="378" y="468"/>
      <point x="312" y="468" type="curve" smooth="yes"/>
      <point x="141" y="468"/>
      <point x="36" y="357"/>
      <point x="36" y="188" type="curve" smooth="yes"/>
      <point x="36" y="64"/>
      <point x="122" y="-12"/>
    </contour>
    <contour>
      <point x="328" y="348" type="curve" smooth="yes"/>
      <point x="385" y="348"/>
      <point x="414" y="325"/>
      <point x="434" y="298" type="curve"/>
      <point x="411" y="204"/>
      <point x="363" y="112"/>
      <point x="272" y="112" type="curve" smooth="yes"/>
      <point x="210" y="112"/>
      <point x="188" y="148"/>
      <point x="188" y="196" type="curve" smooth="yes"/>
      <point x="188" y="286"/>
      <point x="237" y="348"/>
    </contour>
  </outline>
</glyph>
<glyph name="minus" format="2">
  <advance width="616"/>
  <unicode hex="2212"/>
  <note>
minus
</note>
  <outline>
    <contour>
      <point x="76" y="380" type="line"/>
      <point x="76" y="252" type="line"/>
      <point x="564" y="252" type="line"/>
      <point x="564" y="380" type="line"/>
    </contour>
  </outline>
</glyph>
<glyph name="infinity" format="2">
  <advance width="728"/>
  <unicode hex="221E"/>
  <note>
infinity
</note>
  <outline>
    <contour>
      <point x="544" y="168" type="curve" smooth="yes"/>
      <point x="648" y="168"/>
      <point x="720" y="232"/>
      <point x="720" y="336" type="curve" smooth="yes"/>
      <point x="720" y="440"/>
      <point x="648" y="504"/>
      <point x="544" y="504" type="curve" smooth="yes"/>
      <point x="465" y="504"/>
      <point x="429" y="472"/>
      <point x="344" y="376" type="curve" smooth="yes"/>
      <point x="261" y="283"/>
      <point x="249" y="268"/>
      <point x="208" y="268" type="curve" smooth="yes"/>
      <point x="160" y="268"/>
      <point x="136" y="292"/>
      <point x="136" y="336" type="curve" smooth="yes"/>
      <point x="136" y="380"/>
      <point x="172" y="404"/>
      <point x="208" y="404" type="curve" smooth="yes"/>
      <point x="249" y="404"/>
      <point x="261" y="389"/>
      <point x="344" y="296" type="curve" smooth="yes"/>
      <point x="429" y="200"/>
      <point x="465" y="168"/>
    </contour>
    <contour>
      <point x="208" y="168" type="curve" smooth="yes"/>
      <point x="287" y="168"/>
      <point x="323" y="200"/>
      <point x="408" y="296" type="curve" smooth="yes"/>
      <point x="491" y="389"/>
      <point x="503" y="404"/>
      <point x="544" y="404" type="curve" smooth="yes"/>
      <point x="580" y="404"/>
      <point x="616" y="380"/>
      <point x="616" y="336" type="curve" smooth="yes"/>
      <point x="616" y="292"/>
      <point x="580" y="268"/>
      <point x="544" y="268" type="curve" smooth="yes"/>
      <point x="503" y="268"/>
      <point x="491" y="283"/>
      <point x="408" y="376" type="curve" smooth="yes"/>
      <point x="323" y="472"/>
      <point x="287" y="504"/>
      <point x="208" y="504" type="curve" smooth="yes"/>
      <point x="104" y="504"/>
      <point x="32" y="440"/>
      <point x="32" y="336" type="curve" smooth="yes"/>
      <point x="32" y="232"/>
      <point x="104" y="168"/>
    </contour>
  </outline>
</glyph>
<glyph name="approxequal" format="2">
  <advance width="616"/>
  <unicode hex="2248"/>
  <note>
approxequal
</note>
  <outline>
    <contour>
      <point x="567" y="564" type="curve"/>
      <point x="444" y="564" type="line"/>
      <point x="444" y="516"/>
      <point x="440" y="478"/>
      <point x="410" y="478" type="curve" smooth="yes"/>
      <point x="381" y="478"/>
      <point x="365" y="502"/>
      <point x="340" y="525" type="curve" smooth="yes"/>
      <point x="318" y="545"/>
      <point x="288" y="564"/>
      <point x="235" y="564" type="curve" smooth="yes"/>
      <point x="126" y="564"/>
      <point x="75" y="478"/>
      <point x="75" y="348" type="curve"/>
      <point x="198" y="348" type="line"/>
      <point x="198" y="396"/>
      <point x="202" y="434"/>
      <point x="232" y="434" type="curve" smooth="yes"/>
      <point x="261" y="434"/>
      <point x="277" y="410"/>
      <point x="302" y="387" type="curve" smooth="yes"/>
      <point x="324" y="367"/>
      <point x="354" y="348"/>
      <point x="407" y="348" type="curve" smooth="yes"/>
      <point x="516" y="348"/>
      <point x="567" y="434"/>
    </contour>
    <contour>
      <point x="567" y="284" type="curve"/>
      <point x="444" y="284" type="line"/>
      <point x="444" y="236"/>
      <point x="440" y="198"/>
      <point x="410" y="198" type="curve" smooth="yes"/>
      <point x="381" y="198"/>
      <point x="365" y="222"/>
      <point x="340" y="245" type="curve" smooth="yes"/>
      <point x="318" y="265"/>
      <point x="288" y="284"/>
      <point x="235" y="284" type="curve" smooth="yes"/>
      <point x="126" y="284"/>
      <point x="75" y="198"/>
      <point x="75" y="68" type="curve"/>
      <point x="198" y="68" type="line"/>
      <point x="198" y="116"/>
      <point x="202" y="154"/>
      <point x="232" y="154" type="curve" smooth="yes"/>
      <point x="261" y="154"/>
      <point x="277" y="130"/>
      <point x="302" y="107" type="curve" smooth="yes"/>
      <point x="324" y="87"/>
      <point x="354" y="68"/>
      <point x="407" y="68" type="curve" smooth="yes"/>
      <point x="516" y="68"/>
      <point x="567" y="154"/>
    </contour>
  </outline>
</glyph>
<glyph name="notequal" format="2">
  <advance width="616"/>
  <unicode hex="2260"/>
  <note>
notequal
</note>
  <outline>
    <contour>
      <point x="104" y="32" type="line"/>
      <point x="204" y="32" type="line"/>
      <point x="536" y="600" type="line"/>
      <point x="436" y="600" type="line"/>
    </contour>
    <contour>
      <point x="76" y="140" type="line"/>
      <point x="564" y="140" type="line"/>
      <point x="564" y="268" type="line"/>
      <point x="76" y="268" type="line"/>
    </contour>
    <contour>
      <point x="76" y="364" type="line"/>
      <point x="564" y="364" type="line"/>
      <point x="564" y="492" type="line"/>
      <point x="76" y="492" type="line"/>
    </contour>
  </outline>
</glyph>
<glyph name="lessequal" format="2">
  <advance width="616"/>
  <unicode hex="2264"/>
  <note>
lessequal
</note>
  <outline>
    <contour>
      <point x="96" y="128" type="line"/>
      <point x="96" y="0" type="line"/>
      <point x="544" y="0" type="line"/>
      <point x="544" y="128" type="line"/>
    </contour>
    <contour>
      <point x="96" y="408" type="line"/>
      <point x="536" y="188" type="line"/>
      <point x="544" y="188" type="line"/>
      <point x="544" y="328" type="line"/>
      <point x="284" y="448" type="line"/>
      <point x="544" y="572" type="line"/>
      <point x="544" y="708" type="line"/>
      <point x="536" y="708" type="line"/>
      <point x="96" y="488" type="line"/>
    </contour>
  </outline>
</glyph>
<glyph name="rightBlackTriangle" format="2">
  <advance width="648"/>
  <unicode hex="25B6"/>
  <note>
uni25B6
</note>
  <outline>
    <contour>
      <point x="116" y="562" type="line"/>
      <point x="116" y="-30" type="line"/>
      <point x="648" y="266" type="line"/>
    </contour>
  </outline>
</glyph>
<glyph name="leftBlackTriangle" format="2">
  <advance width="648"/>
  <unicode hex="25C0"/>
  <note>
uni25C0
</note>
  <outline>
    <contour>
      <point x="40" y="266" type="line"/>
      <point x="572" y="-30" type="line"/>
      <point x="572" y="562" type="line"/>
    </contour>
  </outline>
</glyph>
<glyph name="mediumBlackSquare" format="2">
  <advance width="748"/>
  <unicode hex="25FC"/>
  <note>
uni25FC
</note>
  <outline>
    <contour>
      <point x="116" y="536" type="line"/>
      <point x="116" y="0" type="line"/>
      <point x="672" y="0" type="line"/>
      <point x="672" y="536" type="line"/>
    </contour>
  </outline>
</glyph>
<glyph name="parenleft-ar" format="2">
  <advance width="500"/>
  <unicode hex="FD3E"/>
  <outline>
    <contour>
      <point x="332" y="456" type="line"/>
      <point x="348" y="587"/>
      <point x="399" y="696"/>
      <point x="470" y="780" type="curve"/>
      <point x="470" y="784" type="line"/>
      <point x="262" y="784" type="line"/>
      <point x="204" y="716"/>
      <point x="153" y="598"/>
      <point x="136" y="459" type="curve"/>
    </contour>
    <contour>
      <point x="141" y="229" type="line"/>
      <point x="161" y="105"/>
      <point x="208" y="-1"/>
      <point x="262" y="-64" type="curve"/>
      <point x="470" y="-64" type="line"/>
      <point x="470" y="-60" type="line"/>
      <point x="406" y="15"/>
      <point x="359" y="110"/>
      <point x="338" y="223" type="curve"/>
    </contour>
    <contour>
      <point x="446" y="350" type="curve" smooth="yes"/>
      <point x="446" y="483"/>
      <point x="352" y="532"/>
      <point x="238" y="532" type="curve" smooth="yes"/>
      <point x="125" y="532"/>
      <point x="30" y="483"/>
      <point x="30" y="350" type="curve" smooth="yes"/>
      <point x="30" y="217"/>
      <point x="125" y="168"/>
      <point x="238" y="168" type="curve" smooth="yes"/>
      <point x="352" y="168"/>
      <point x="446" y="217"/>
    </contour>
    <contour>
      <point x="337" y="350" type="curve" smooth="yes"/>
      <point x="337" y="321"/>
      <point x="286" y="318"/>
      <point x="238" y="318" type="curve" smooth="yes"/>
      <point x="191" y="318"/>
      <point x="139" y="321"/>
      <point x="139" y="350" type="curve" smooth="yes"/>
      <point x="139" y="379"/>
      <point x="191" y="382"/>
      <point x="238" y="382" type="curve" smooth="yes"/>
      <point x="286" y="382"/>
      <point x="337" y="379"/>
    </contour>
  </outline>
</glyph>
<glyph name="_loop-ar" format="2">
  <advance width="940"/>
  <guideline x="1204" y="464" angle="0" name="horizontal bar"/>
  <anchor x="676" y="0" name="*entry"/>
  <anchor x="33" y="0" name="*exit"/>
  <anchor x="352" y="0" name="bottom"/>
  <anchor x="349" y="488" name="top"/>
  <anchor x="-158" y="147" name="verticalbar"/>
  <outline>
    <contour>
      <point x="10" y="176" type="line"/>
      <point x="10" y="0" type="line"/>
      <point x="602" y="0" type="line" smooth="yes"/>
      <point x="824" y="0"/>
      <point x="890" y="113"/>
      <point x="890" y="234" type="curve" smooth="yes"/>
      <point x="890" y="327"/>
      <point x="825" y="424"/>
      <point x="774" y="476" type="curve"/>
      <point x="762" y="476" type="line"/>
      <point x="722" y="468"/>
      <point x="654" y="464"/>
      <point x="586" y="464" type="curve" smooth="yes"/>
      <point x="78" y="464" type="line"/>
      <point x="10" y="288" type="line"/>
      <point x="542" y="288" type="line" smooth="yes"/>
      <point x="597" y="288"/>
      <point x="646" y="294"/>
      <point x="740" y="316" type="curve"/>
      <point x="657" y="316" type="line"/>
      <point x="667" y="302"/>
      <point x="686" y="277"/>
      <point x="686" y="242" type="curve" smooth="yes"/>
      <point x="686" y="210"/>
      <point x="661" y="176"/>
      <point x="562" y="176" type="curve" smooth="yes"/>
    </contour>
  </outline>
</glyph>
<glyph name="_part.bowl-ar" format="2">
  <advance width="516"/>
  <anchor x="512" y="0" name="*entry"/>
  <anchor x="198" y="-260" name="bottom"/>
  <anchor x="107" y="71" name="top"/>
  <outline>
    <contour>
      <point x="40" y="12" type="curve"/>
      <point x="28" y="12" type="line"/>
      <point x="-40" y="-160" type="line"/>
      <point x="-40" y="-160"/>
      <point x="48" y="-260"/>
      <point x="198" y="-260" type="curve" smooth="yes"/>
      <point x="373" y="-260"/>
      <point x="516" y="-140"/>
      <point x="516" y="168" type="curve" smooth="yes"/>
      <point x="516" y="246"/>
      <point x="511" y="351"/>
      <point x="492" y="494" type="curve"/>
      <point x="480" y="494" type="line"/>
      <point x="276" y="474" type="line"/>
      <point x="291" y="395"/>
      <point x="304" y="249"/>
      <point x="304" y="140" type="curve" smooth="yes"/>
      <point x="304" y="46"/>
      <point x="286" y="-67"/>
      <point x="257" y="-106" type="curve"/>
      <point x="302" y="-66" type="line"/>
      <point x="295" y="-58"/>
      <point x="272" y="-80"/>
      <point x="232" y="-80" type="curve" smooth="yes"/>
      <point x="175" y="-80"/>
      <point x="93" y="-53"/>
    </contour>
  </outline>
</glyph>
<glyph name="_part.dot" format="2">
  <anchor x="232" y="548" name="_top"/>
  <outline>
    <contour>
      <point x="252" y="620" type="curve" smooth="yes"/>
      <point x="320" y="620"/>
      <point x="376" y="668"/>
      <point x="376" y="740" type="curve" smooth="yes"/>
      <point x="376" y="788"/>
      <point x="344" y="828"/>
      <point x="280" y="828" type="curve" smooth="yes"/>
      <point x="212" y="828"/>
      <point x="156" y="780"/>
      <point x="156" y="708" type="curve" smooth="yes"/>
      <point x="156" y="660"/>
      <point x="188" y="620"/>
    </contour>
  </outline>
</glyph>
<glyph name="_part.f.liga" format="2">
  <advance width="400"/>
  <outline>
    <contour>
      <point x="52" y="0" type="line"/>
      <point x="264" y="0" type="line"/>
      <point x="370" y="548" type="line" smooth="yes"/>
      <point x="380" y="600"/>
      <point x="412" y="624"/>
      <point x="462" y="624" type="curve" smooth="yes"/>
      <point x="480" y="624"/>
      <point x="498" y="620"/>
      <point x="508" y="616" type="curve"/>
      <point x="520" y="616" type="line"/>
      <point x="550" y="764" type="line"/>
      <point x="530" y="770"/>
      <point x="496" y="776"/>
      <point x="456" y="776" type="curve" smooth="yes"/>
      <point x="304" y="776"/>
      <point x="192" y="720"/>
      <point x="158" y="548" type="curve" smooth="yes"/>
    </contour>
    <contour>
      <point x="32" y="388" type="line"/>
      <point x="644" y="388" type="line"/>
      <point x="676" y="548" type="line"/>
      <point x="64" y="548" type="line"/>
    </contour>
  </outline>
</glyph>
<glyph name="a.inferior" format="2">
  <advance width="462"/>
  <note>
a.inferior
</note>
  <outline>
    <contour>
      <point x="162" y="-169" type="curve" smooth="yes"/>
      <point x="227" y="-169"/>
      <point x="282" y="-160"/>
      <point x="339" y="-146" type="curve"/>
      <point x="345" y="-141" type="line"/>
      <point x="342" y="-103"/>
      <point x="352" y="-57"/>
      <point x="359" y="-21" type="curve" smooth="yes"/>
      <point x="374" y="53" type="line" smooth="yes"/>
      <point x="403" y="202"/>
      <point x="326" y="253"/>
      <point x="182" y="253" type="curve" smooth="yes"/>
      <point x="138" y="253"/>
      <point x="89" y="247"/>
      <point x="53" y="239" type="curve"/>
      <point x="30" y="117" type="line"/>
      <point x="39" y="117" type="line"/>
      <point x="64" y="127"/>
      <point x="103" y="135"/>
      <point x="147" y="135" type="curve" smooth="yes"/>
      <point x="200" y="135"/>
      <point x="229" y="118"/>
      <point x="211" y="60" type="curve"/>
      <point x="203" y="9" type="line"/>
      <point x="195" y="-20"/>
      <point x="194" y="-61"/>
      <point x="204" y="-76" type="curve"/>
      <point x="212" y="-60" type="line"/>
      <point x="202" y="-64"/>
      <point x="174" y="-66"/>
      <point x="167" y="-66" type="curve" smooth="yes"/>
      <point x="135" y="-66"/>
      <point x="117" y="-61"/>
      <point x="117" y="-37" type="curve" smooth="yes"/>
      <point x="117" y="-15"/>
      <point x="140" y="-3"/>
      <point x="170" y="-3" type="curve" smooth="yes"/>
      <point x="195" y="-3"/>
      <point x="198" y="-5"/>
      <point x="209" y="-10" type="curve"/>
      <point x="229" y="79" type="line"/>
      <point x="212" y="82"/>
      <point x="189" y="85"/>
      <point x="163" y="85" type="curve" smooth="yes"/>
      <point x="52" y="85"/>
      <point x="-33" y="48"/>
      <point x="-33" y="-48" type="curve" smooth="yes"/>
      <point x="-33" y="-142"/>
      <point x="32" y="-169"/>
    </contour>
  </outline>
</glyph>
<glyph name="a.sc" format="2">
  <advance width="668"/>
  <note>
a.sc
</note>
  <anchor x="278" y="0" name="bottom"/>
  <anchor x="556" y="0" name="ogonek"/>
  <anchor x="435" y="572" name="top"/>
  <outline>
    <contour>
      <point x="-24" y="0" type="line"/>
      <point x="188" y="0" type="line"/>
      <point x="324" y="360" type="line" smooth="yes"/>
      <point x="340" y="401"/>
      <point x="364" y="420"/>
      <point x="408" y="420" type="curve" smooth="yes"/>
      <point x="428" y="420"/>
      <point x="440" y="416"/>
      <point x="444" y="416" type="curve"/>
      <point x="448" y="448" type="line"/>
      <point x="440" y="444"/>
      <point x="424" y="402"/>
      <point x="416" y="360" type="curve" smooth="yes"/>
      <point x="348" y="0" type="line"/>
      <point x="556" y="0" type="line"/>
      <point x="640" y="444" type="line" smooth="yes"/>
      <point x="646" y="476"/>
      <point x="656" y="512"/>
      <point x="668" y="540" type="curve"/>
      <point x="664" y="552" type="line"/>
      <point x="615" y="566"/>
      <point x="560" y="580"/>
      <point x="480" y="580" type="curve" smooth="yes"/>
      <point x="332" y="580"/>
      <point x="192" y="561"/>
      <point x="116" y="364" type="curve" smooth="yes"/>
    </contour>
    <contour>
      <point x="204" y="120" type="line"/>
      <point x="408" y="120" type="line"/>
      <point x="436" y="272" type="line"/>
      <point x="248" y="272" type="line"/>
    </contour>
  </outline>
</glyph>
<glyph name="ain-ar.medi" format="2">
  <advance width="700"/>
  <note>
uni0639.medi
</note>
  <anchor x="346" y="0" name="bottom"/>
  <anchor x="356" y="608" name="top"/>
  <outline>
    <contour>
      <point x="0" y="176" type="line"/>
      <point x="-20" y="156" type="line"/>
      <point x="-20" y="0" type="line"/>
      <point x="700" y="0" type="line"/>
      <point x="720" y="20" type="line"/>
      <point x="720" y="176" type="line"/>
      <point x="477" y="176" type="line"/>
      <point x="520" y="145" type="line"/>
      <point x="587" y="185"/>
      <point x="642" y="263"/>
      <point x="642" y="352" type="curve" smooth="yes"/>
      <point x="642" y="479"/>
      <point x="536" y="572"/>
      <point x="374" y="572" type="curve" smooth="yes"/>
      <point x="251" y="572"/>
      <point x="129" y="516"/>
      <point x="38" y="440" type="curve"/>
      <point x="42" y="428" type="line"/>
      <point x="76" y="394"/>
      <point x="131" y="282"/>
      <point x="150" y="232" type="curve" smooth="yes"/>
      <point x="215" y="63" type="line"/>
      <point x="260" y="176" type="line"/>
    </contour>
    <contour>
      <point x="390" y="100" type="line"/>
      <point x="346" y="228" type="line" smooth="yes"/>
      <point x="307" y="340"/>
      <point x="293" y="378"/>
      <point x="243" y="427" type="curve"/>
      <point x="238" y="367" type="line"/>
      <point x="261" y="386"/>
      <point x="305" y="416"/>
      <point x="355" y="416" type="curve" smooth="yes"/>
      <point x="405" y="416"/>
      <point x="446" y="380"/>
      <point x="446" y="320" type="curve" smooth="yes"/>
      <point x="446" y="221"/>
      <point x="376" y="173"/>
      <point x="311" y="134" type="curve"/>
    </contour>
  </outline>
</glyph>
<glyph name="alefMaksura-ar.fina.ss01" format="2">
  <advance width="628"/>
  <note>
uni0649.long
</note>
  <outline>
    <contour>
      <point x="628" y="0" type="curve"/>
      <point x="648" y="20" type="line"/>
      <point x="648" y="176" type="line"/>
      <point x="494" y="176"/>
      <point x="462" y="213"/>
      <point x="360" y="364" type="curve"/>
      <point x="348" y="364" type="line"/>
      <point x="225" y="302"/>
      <point x="48" y="153"/>
      <point x="48" y="-20" type="curve" smooth="yes"/>
      <point x="48" y="-163"/>
      <point x="164" y="-256"/>
      <point x="324" y="-256" type="curve" smooth="yes"/>
      <point x="528" y="-256" type="line"/>
      <point x="580" y="-96" type="line"/>
      <point x="580" y="-84" type="line"/>
      <point x="420" y="-84" type="line" smooth="yes"/>
      <point x="327" y="-84"/>
      <point x="252" y="-63"/>
      <point x="252" y="16" type="curve" smooth="yes"/>
      <point x="252" y="75"/>
      <point x="319" y="139"/>
      <point x="368" y="131" type="curve"/>
      <point x="269" y="196" type="line"/>
      <point x="366" y="30"/>
      <point x="425" y="0"/>
    </contour>
  </outline>
</glyph>
<glyph name="asciitilde.sc" format="2">
  <advance width="568"/>
  <note>
asciitilde.sc
</note>
  <outline>
    <contour>
      <point x="68" y="196" type="curve"/>
      <point x="184" y="196" type="line"/>
      <point x="184" y="239"/>
      <point x="195" y="268"/>
      <point x="224" y="268" type="curve" smooth="yes"/>
      <point x="260" y="268"/>
      <point x="296" y="196"/>
      <point x="380" y="196" type="curve" smooth="yes"/>
      <point x="470" y="196"/>
      <point x="516" y="270"/>
      <point x="516" y="392" type="curve"/>
      <point x="400" y="392" type="line"/>
      <point x="400" y="349"/>
      <point x="389" y="320"/>
      <point x="360" y="320" type="curve" smooth="yes"/>
      <point x="324" y="320"/>
      <point x="288" y="392"/>
      <point x="204" y="392" type="curve" smooth="yes"/>
      <point x="114" y="392"/>
      <point x="68" y="318"/>
    </contour>
  </outline>
</glyph>
<glyph name="b.inferior" format="2">
  <advance width="514"/>
  <note>
b.inferior
</note>
  <outline>
    <contour>
      <point x="153" y="-169" type="curve" smooth="yes"/>
      <point x="329" y="-169"/>
      <point x="444" y="-92"/>
      <point x="444" y="74" type="curve" smooth="yes"/>
      <point x="444" y="183"/>
      <point x="384" y="246"/>
      <point x="285" y="246" type="curve" smooth="yes"/>
      <point x="252" y="246"/>
      <point x="226" y="238"/>
      <point x="203" y="229" type="curve"/>
      <point x="185" y="117" type="line"/>
      <point x="191" y="124"/>
      <point x="201" y="128"/>
      <point x="214" y="128" type="curve" smooth="yes"/>
      <point x="254" y="128"/>
      <point x="274" y="103"/>
      <point x="274" y="57" type="curve" smooth="yes"/>
      <point x="274" y="-3"/>
      <point x="244" y="-54"/>
      <point x="185" y="-54" type="curve" smooth="yes"/>
      <point x="161" y="-54"/>
      <point x="148" y="-49"/>
      <point x="128" y="-40" type="curve"/>
      <point x="132" y="-99" type="line"/>
      <point x="153" y="-78"/>
      <point x="162" y="-39"/>
      <point x="171" y="-5" type="curve"/>
      <point x="247" y="395" type="line"/>
      <point x="73" y="395" type="line"/>
      <point x="67" y="386" type="line"/>
      <point x="68" y="346"/>
      <point x="64" y="312"/>
      <point x="58" y="276" type="curve" smooth="yes"/>
      <point x="-1" y="-29" type="line" smooth="yes"/>
      <point x="-10" y="-74"/>
      <point x="-16" y="-101"/>
      <point x="-29" y="-143" type="curve"/>
      <point x="-26" y="-149" type="line"/>
      <point x="12" y="-160"/>
      <point x="93" y="-169"/>
    </contour>
  </outline>
</glyph>
<glyph name="braceleft.sc" format="2">
  <advance width="457"/>
  <note>
braceleft.sc
</note>
  <outline>
    <contour>
      <point x="248" y="-72" type="curve" smooth="yes"/>
      <point x="360" y="-72" type="line"/>
      <point x="388" y="60" type="line"/>
      <point x="312" y="60" type="line" smooth="yes"/>
      <point x="278" y="60"/>
      <point x="263" y="80"/>
      <point x="268" y="112" type="curve" smooth="yes"/>
      <point x="276" y="160" type="line" smooth="yes"/>
      <point x="284" y="209"/>
      <point x="266" y="260"/>
      <point x="196" y="268" type="curve"/>
      <point x="264" y="273"/>
      <point x="308" y="315"/>
      <point x="320" y="372" type="curve" smooth="yes"/>
      <point x="330" y="420" type="line" smooth="yes"/>
      <point x="338" y="457"/>
      <point x="356" y="472"/>
      <point x="396" y="472" type="curve" smooth="yes"/>
      <point x="464" y="472" type="line"/>
      <point x="492" y="604" type="line"/>
      <point x="388" y="604" type="line" smooth="yes"/>
      <point x="270" y="604"/>
      <point x="176" y="571"/>
      <point x="152" y="440" type="curve" smooth="yes"/>
      <point x="144" y="396" type="line" smooth="yes"/>
      <point x="138" y="365"/>
      <point x="117" y="336"/>
      <point x="76" y="336" type="curve" smooth="yes"/>
      <point x="32" y="336" type="line"/>
      <point x="4" y="196" type="line"/>
      <point x="44" y="196" type="line" smooth="yes"/>
      <point x="82" y="196"/>
      <point x="98" y="169"/>
      <point x="92" y="136" type="curve" smooth="yes"/>
      <point x="84" y="92" type="line" smooth="yes"/>
      <point x="64" y="-18"/>
      <point x="123" y="-72"/>
    </contour>
  </outline>
</glyph>
<glyph name="bracketleft.sc" format="2">
  <advance width="394"/>
  <note>
bracketleft.sc
</note>
  <outline>
    <contour>
      <point x="116" y="604" type="line"/>
      <point x="-16" y="-72" type="line"/>
      <point x="296" y="-72" type="line"/>
      <point x="324" y="64" type="line"/>
      <point x="190" y="64" type="line"/>
      <point x="269" y="468" type="line"/>
      <point x="404" y="468" type="line"/>
      <point x="428" y="604" type="line"/>
    </contour>
  </outline>
</glyph>
<glyph name="bullet.sc" format="2">
  <advance width="504"/>
  <note>
bullet.sc
</note>
  <outline>
    <contour>
      <point x="256" y="116" type="curve" smooth="yes"/>
      <point x="344" y="116"/>
      <point x="420" y="180"/>
      <point x="420" y="280" type="curve" smooth="yes"/>
      <point x="420" y="380"/>
      <point x="344" y="444"/>
      <point x="256" y="444" type="curve" smooth="yes"/>
      <point x="168" y="444"/>
      <point x="92" y="380"/>
      <point x="92" y="280" type="curve" smooth="yes"/>
      <point x="92" y="180"/>
      <point x="168" y="116"/>
    </contour>
  </outline>
</glyph>
<glyph name="c.inferior" format="2">
  <advance width="385"/>
  <note>
c.inferior
</note>
  <outline>
    <contour>
      <point x="-19" y="10" type="curve" smooth="yes"/>
      <point x="-19" y="-117"/>
      <point x="64" y="-169"/>
      <point x="196" y="-169" type="curve" smooth="yes"/>
      <point x="217" y="-169"/>
      <point x="251" y="-165"/>
      <point x="276" y="-158" type="curve"/>
      <point x="301" y="-30" type="line"/>
      <point x="291" y="-30" type="line"/>
      <point x="275" y="-36"/>
      <point x="259" y="-41"/>
      <point x="234" y="-41" type="curve" smooth="yes"/>
      <point x="180" y="-41"/>
      <point x="150" y="-20"/>
      <point x="150" y="24" type="curve" smooth="yes"/>
      <point x="150" y="87"/>
      <point x="196" y="125"/>
      <point x="255" y="125" type="curve" smooth="yes"/>
      <point x="286" y="125"/>
      <point x="305" y="119"/>
      <point x="317" y="113" type="curve"/>
      <point x="327" y="113" type="line"/>
      <point x="351" y="242" type="line"/>
      <point x="330" y="248"/>
      <point x="290" y="253"/>
      <point x="258" y="253" type="curve" smooth="yes"/>
      <point x="79" y="253"/>
      <point x="-19" y="152"/>
    </contour>
  </outline>
</glyph>
<glyph name="copyright.sc" format="2">
  <advance width="808"/>
  <note>
copyright.sc
</note>
  <outline>
    <contour>
      <point x="232" y="284" type="curve" smooth="yes"/>
      <point x="232" y="183"/>
      <point x="300" y="124"/>
      <point x="448" y="124" type="curve" smooth="yes"/>
      <point x="484" y="124"/>
      <point x="515" y="128"/>
      <point x="536" y="134" type="curve"/>
      <point x="536" y="224" type="line"/>
      <point x="528" y="224" type="line"/>
      <point x="514" y="220"/>
      <point x="490" y="216"/>
      <point x="460" y="216" type="curve" smooth="yes"/>
      <point x="392" y="216"/>
      <point x="368" y="243"/>
      <point x="368" y="284" type="curve" smooth="yes"/>
      <point x="368" y="319"/>
      <point x="392" y="356"/>
      <point x="460" y="356" type="curve" smooth="yes"/>
      <point x="490" y="356"/>
      <point x="514" y="352"/>
      <point x="528" y="348" type="curve"/>
      <point x="536" y="348" type="line"/>
      <point x="536" y="438" type="line"/>
      <point x="515" y="444"/>
      <point x="488" y="448"/>
      <point x="448" y="448" type="curve" smooth="yes"/>
      <point x="307" y="448"/>
      <point x="232" y="383"/>
    </contour>
    <contour>
      <point x="408" y="48" type="curve" smooth="yes"/>
      <point x="245" y="48"/>
      <point x="140" y="119"/>
      <point x="140" y="284" type="curve" smooth="yes"/>
      <point x="140" y="449"/>
      <point x="245" y="520"/>
      <point x="408" y="520" type="curve" smooth="yes"/>
      <point x="571" y="520"/>
      <point x="676" y="449"/>
      <point x="676" y="284" type="curve" smooth="yes"/>
      <point x="676" y="119"/>
      <point x="571" y="48"/>
    </contour>
    <contour>
      <point x="408" y="-28" type="curve" smooth="yes"/>
      <point x="631" y="-28"/>
      <point x="772" y="84"/>
      <point x="772" y="284" type="curve" smooth="yes"/>
      <point x="772" y="484"/>
      <point x="631" y="596"/>
      <point x="408" y="596" type="curve" smooth="yes"/>
      <point x="185" y="596"/>
      <point x="44" y="484"/>
      <point x="44" y="284" type="curve" smooth="yes"/>
      <point x="44" y="84"/>
      <point x="185" y="-28"/>
    </contour>
  </outline>
</glyph>
<glyph name="d.inferior" format="2">
  <advance width="521"/>
  <note>
d.inferior
</note>
  <outline>
    <contour>
      <point x="196" y="-169" type="curve" smooth="yes"/>
      <point x="282" y="-169"/>
      <point x="338" y="-153"/>
      <point x="385" y="-140" type="curve"/>
      <point x="392" y="-134" type="line"/>
      <point x="392" y="-94"/>
      <point x="399" y="-48"/>
      <point x="406" y="-10" type="curve" smooth="yes"/>
      <point x="484" y="395" type="line"/>
      <point x="310" y="395" type="line"/>
      <point x="304" y="386" type="line"/>
      <point x="306" y="346"/>
      <point x="301" y="312"/>
      <point x="295" y="276" type="curve" smooth="yes"/>
      <point x="246" y="23" type="line" smooth="yes"/>
      <point x="237" y="-25"/>
      <point x="238" y="-66"/>
      <point x="236" y="-88" type="curve"/>
      <point x="252" y="-39" type="line"/>
      <point x="240" y="-48"/>
      <point x="228" y="-51"/>
      <point x="210" y="-51" type="curve" smooth="yes"/>
      <point x="165" y="-51"/>
      <point x="150" y="-19"/>
      <point x="150" y="16" type="curve" smooth="yes"/>
      <point x="150" y="84"/>
      <point x="184" y="138"/>
      <point x="244" y="138" type="curve" smooth="yes"/>
      <point x="264" y="138"/>
      <point x="270" y="135"/>
      <point x="276" y="130" type="curve"/>
      <point x="300" y="242" type="line"/>
      <point x="286" y="248"/>
      <point x="266" y="253"/>
      <point x="237" y="253" type="curve" smooth="yes"/>
      <point x="44" y="253"/>
      <point x="-19" y="116"/>
      <point x="-19" y="16" type="curve" smooth="yes"/>
      <point x="-19" y="-124"/>
      <point x="74" y="-169"/>
    </contour>
  </outline>
</glyph>
<glyph name="d.sc" format="2">
  <advance width="696"/>
  <note>
d.sc
</note>
  <anchor x="292" y="0" name="bottom"/>
  <anchor x="176" y="286" name="center"/>
  <anchor x="404" y="572" name="top"/>
  <outline>
    <contour>
      <point x="148" y="0" type="line"/>
      <point x="292" y="0" type="line" smooth="yes"/>
      <point x="556" y="0"/>
      <point x="676" y="164"/>
      <point x="676" y="336" type="curve" smooth="yes"/>
      <point x="676" y="496"/>
      <point x="560" y="572"/>
      <point x="360" y="572" type="curve" smooth="yes"/>
      <point x="240" y="572" type="line"/>
      <point x="204" y="412" type="line"/>
      <point x="336" y="412" type="line" smooth="yes"/>
      <point x="432" y="412"/>
      <point x="460" y="380"/>
      <point x="460" y="324" type="curve" smooth="yes"/>
      <point x="460" y="212"/>
      <point x="392" y="160"/>
      <point x="300" y="160" type="curve" smooth="yes"/>
      <point x="180" y="160" type="line"/>
    </contour>
    <contour>
      <point x="16" y="0" type="line"/>
      <point x="224" y="0" type="line"/>
      <point x="336" y="572" type="line"/>
      <point x="128" y="572" type="line"/>
    </contour>
  </outline>
</glyph>
<glyph name="daggerdbl.sc" format="2">
  <advance width="546"/>
  <note>
daggerdbl.sc
</note>
  <outline>
    <contour>
      <point x="92" y="-196" type="line"/>
      <point x="284" y="-196" type="line"/>
      <point x="432" y="572" type="line"/>
      <point x="240" y="572" type="line"/>
    </contour>
    <contour>
      <point x="-12" y="0" type="line"/>
      <point x="468" y="0" type="line"/>
      <point x="496" y="144" type="line"/>
      <point x="16" y="144" type="line"/>
    </contour>
    <contour>
      <point x="36" y="268" type="line"/>
      <point x="516" y="268" type="line"/>
      <point x="544" y="412" type="line"/>
      <point x="64" y="412" type="line"/>
    </contour>
  </outline>
</glyph>
<glyph name="degree.sc" format="2">
  <advance width="432"/>
  <note>
degree.sc
</note>
  <outline>
    <contour>
      <point x="250" y="288" type="curve" smooth="yes"/>
      <point x="338" y="288"/>
      <point x="406" y="344"/>
      <point x="406" y="436" type="curve" smooth="yes"/>
      <point x="406" y="528"/>
      <point x="338" y="584"/>
      <point x="250" y="584" type="curve" smooth="yes"/>
      <point x="162" y="584"/>
      <point x="94" y="528"/>
      <point x="94" y="436" type="curve" smooth="yes"/>
      <point x="94" y="344"/>
      <point x="162" y="288"/>
    </contour>
    <contour>
      <point x="250" y="372" type="curve" smooth="yes"/>
      <point x="214" y="372"/>
      <point x="186" y="396"/>
      <point x="186" y="436" type="curve" smooth="yes"/>
      <point x="186" y="476"/>
      <point x="214" y="500"/>
      <point x="250" y="500" type="curve" smooth="yes"/>
      <point x="286" y="500"/>
      <point x="314" y="476"/>
      <point x="314" y="436" type="curve" smooth="yes"/>
      <point x="314" y="396"/>
      <point x="286" y="372"/>
    </contour>
  </outline>
</glyph>
<glyph name="dollar.sc" format="2">
  <advance width="568"/>
  <note>
dollar.sc
</note>
  <guideline x="330" y="332" angle="347.4712"/>
  <guideline x="254" y="188" angle="167.4712"/>
  <outline>
    <contour>
      <point x="228" y="-12" type="curve" smooth="yes"/>
      <point x="348" y="-12"/>
      <point x="504" y="28"/>
      <point x="504" y="168" type="curve" smooth="yes"/>
      <point x="504" y="264"/>
      <point x="437" y="308"/>
      <point x="348" y="328" type="curve" smooth="yes"/>
      <point x="312" y="336" type="line" smooth="yes"/>
      <point x="284" y="342"/>
      <point x="272" y="356"/>
      <point x="272" y="376" type="curve" smooth="yes"/>
      <point x="272" y="404"/>
      <point x="292" y="436"/>
      <point x="368" y="436" type="curve" smooth="yes"/>
      <point x="416" y="436"/>
      <point x="472" y="424"/>
      <point x="504" y="408" type="curve"/>
      <point x="516" y="408" type="line"/>
      <point x="544" y="556" type="line"/>
      <point x="492" y="572"/>
      <point x="428" y="580"/>
      <point x="380" y="580" type="curve" smooth="yes"/>
      <point x="148" y="580"/>
      <point x="68" y="488"/>
      <point x="68" y="368" type="curve" smooth="yes"/>
      <point x="68" y="280"/>
      <point x="116" y="219"/>
      <point x="236" y="192" type="curve" smooth="yes"/>
      <point x="272" y="184" type="line" smooth="yes"/>
      <point x="291" y="180"/>
      <point x="300" y="172"/>
      <point x="300" y="160" type="curve" smooth="yes"/>
      <point x="300" y="144"/>
      <point x="288" y="136"/>
      <point x="232" y="136" type="curve" smooth="yes"/>
      <point x="164" y="136"/>
      <point x="103" y="157"/>
      <point x="68" y="180" type="curve"/>
      <point x="56" y="180" type="line"/>
      <point x="24" y="24" type="line"/>
      <point x="72" y="8"/>
      <point x="164" y="-12"/>
    </contour>
    <contour>
      <point x="120" y="-124" type="line"/>
      <point x="288" y="-124" type="line"/>
      <point x="313" y="11" type="line"/>
      <point x="145" y="13" type="line"/>
    </contour>
    <contour>
      <point x="260" y="552" type="line"/>
      <point x="428" y="552" type="line"/>
      <point x="456" y="692" type="line"/>
      <point x="288" y="692" type="line"/>
    </contour>
  </outline>
</glyph>
<glyph name="dot-ar" format="2">
  <advance width="600"/>
  <outline>
    <contour>
      <point x="96" y="174" type="curve" smooth="yes"/>
      <point x="96" y="116"/>
      <point x="136" y="84"/>
      <point x="186" y="84" type="curve" smooth="yes"/>
      <point x="236" y="84"/>
      <point x="276" y="116"/>
      <point x="276" y="174" type="curve" smooth="yes"/>
      <point x="276" y="232"/>
      <point x="236" y="264"/>
      <point x="186" y="264" type="curve" smooth="yes"/>
      <point x="136" y="264"/>
      <point x="96" y="232"/>
    </contour>
  </outline>
</glyph>
<glyph name="e.inferior" format="2">
  <advance width="468"/>
  <note>
e.inferior
</note>
  <outline>
    <contour>
      <point x="214" y="-169" type="curve" smooth="yes"/>
      <point x="257" y="-169"/>
      <point x="295" y="-164"/>
      <point x="331" y="-152" type="curve"/>
      <point x="356" y="-27" type="line"/>
      <point x="347" y="-27" type="line"/>
      <point x="324" y="-39"/>
      <point x="280" y="-48"/>
      <point x="244" y="-48" type="curve" smooth="yes"/>
      <point x="178" y="-48"/>
      <point x="144" y="-27"/>
      <point x="144" y="20" type="curve" smooth="yes"/>
      <point x="144" y="92"/>
      <point x="158" y="145"/>
      <point x="210" y="145" type="curve" smooth="yes"/>
      <point x="237" y="145"/>
      <point x="254" y="129"/>
      <point x="254" y="106" type="curve" smooth="yes"/>
      <point x="254" y="97"/>
      <point x="252" y="91"/>
      <point x="252" y="83" type="curve"/>
      <point x="132" y="83" type="line"/>
      <point x="131" y="-1" type="line"/>
      <point x="389" y="-1" type="line"/>
      <point x="398" y="32"/>
      <point x="404" y="67"/>
      <point x="404" y="96" type="curve" smooth="yes"/>
      <point x="404" y="190"/>
      <point x="352" y="253"/>
      <point x="216" y="253" type="curve" smooth="yes"/>
      <point x="86" y="253"/>
      <point x="-19" y="168"/>
      <point x="-19" y="13" type="curve" smooth="yes"/>
      <point x="-19" y="-125"/>
      <point x="88" y="-169"/>
    </contour>
  </outline>
</glyph>
<glyph name="eight.osf" format="2">
  <advance width="656"/>
  <note>
eight.oldstyle
</note>
  <outline>
    <contour>
      <point x="32" y="168" type="curve" smooth="yes"/>
      <point x="32" y="68"/>
      <point x="120" y="-12"/>
      <point x="300" y="-12" type="curve" smooth="yes"/>
      <point x="488" y="-12"/>
      <point x="604" y="80"/>
      <point x="604" y="216" type="curve" smooth="yes"/>
      <point x="604" y="316"/>
      <point x="530" y="361"/>
      <point x="444" y="400" type="curve" smooth="yes"/>
      <point x="400" y="420" type="line" smooth="yes"/>
      <point x="337" y="449"/>
      <point x="304" y="468"/>
      <point x="304" y="508" type="curve" smooth="yes"/>
      <point x="304" y="556"/>
      <point x="336" y="584"/>
      <point x="388" y="584" type="curve" smooth="yes"/>
      <point x="436" y="584"/>
      <point x="464" y="560"/>
      <point x="464" y="520" type="curve" smooth="yes"/>
      <point x="464" y="472"/>
      <point x="427" y="431"/>
      <point x="372" y="408" type="curve"/>
      <point x="492" y="344" type="line"/>
      <point x="588" y="384"/>
      <point x="656" y="444"/>
      <point x="656" y="548" type="curve" smooth="yes"/>
      <point x="656" y="648"/>
      <point x="564" y="732"/>
      <point x="400" y="732" type="curve" smooth="yes"/>
      <point x="192" y="732"/>
      <point x="108" y="616"/>
      <point x="108" y="504" type="curve" smooth="yes"/>
      <point x="108" y="408"/>
      <point x="162" y="359"/>
      <point x="240" y="324" type="curve" smooth="yes"/>
      <point x="284" y="304" type="line" smooth="yes"/>
      <point x="347" y="275"/>
      <point x="400" y="260"/>
      <point x="400" y="208" type="curve" smooth="yes"/>
      <point x="400" y="166"/>
      <point x="364" y="136"/>
      <point x="308" y="136" type="curve" smooth="yes"/>
      <point x="248" y="136"/>
      <point x="224" y="166"/>
      <point x="224" y="204" type="curve" smooth="yes"/>
      <point x="224" y="258"/>
      <point x="260" y="290"/>
      <point x="308" y="312" type="curve"/>
      <point x="228" y="392" type="line"/>
      <point x="108" y="352"/>
      <point x="32" y="282"/>
    </contour>
  </outline>
</glyph>
<glyph name="eng.sc" format="2">
  <advance width="715"/>
  <note>
eng.sc
</note>
  <outline>
    <contour>
      <point x="508" y="572" type="line"/>
      <point x="396" y="0" type="line"/>
      <point x="384" y="-60"/>
      <point x="356" y="-84"/>
      <point x="300" y="-84" type="curve" smooth="yes"/>
      <point x="276" y="-84"/>
      <point x="256" y="-80"/>
      <point x="243" y="-72" type="curve"/>
      <point x="231" y="-72" type="line"/>
      <point x="199" y="-228" type="line"/>
      <point x="222" y="-234"/>
      <point x="276" y="-240"/>
      <point x="312" y="-240" type="curve" smooth="yes"/>
      <point x="480" y="-240"/>
      <point x="572" y="-164"/>
      <point x="604" y="0" type="curve" smooth="yes"/>
      <point x="716" y="572" type="line"/>
    </contour>
    <contour>
      <point x="460" y="92" type="line"/>
      <point x="520" y="308" type="line"/>
      <point x="292" y="572" type="line"/>
      <point x="128" y="572" type="line"/>
      <point x="16" y="0" type="line"/>
      <point x="224" y="0" type="line"/>
      <point x="300" y="388" type="line"/>
      <point x="224" y="368" type="line"/>
    </contour>
  </outline>
</glyph>
<glyph name="equal.inferior" format="2">
  <advance width="398"/>
  <note>
equal.inferior
</note>
  <outline>
    <contour>
      <point x="-2" y="167" type="line"/>
      <point x="-2" y="74" type="line"/>
      <point x="314" y="74" type="line"/>
      <point x="314" y="167" type="line"/>
    </contour>
    <contour>
      <point x="-2" y="8" type="line"/>
      <point x="-2" y="-85" type="line"/>
      <point x="314" y="-85" type="line"/>
      <point x="314" y="8" type="line"/>
    </contour>
  </outline>
</glyph>
<glyph name="euro.inferior" format="2">
  <advance width="397"/>
  <note>
euro.inferior
</note>
  <outline>
    <contour>
      <point x="220" y="-168" type="curve" smooth="yes"/>
      <point x="240" y="-168"/>
      <point x="259" y="-166"/>
      <point x="279" y="-160" type="curve"/>
      <point x="304" y="-54" type="line"/>
      <point x="294" y="-54" type="line"/>
      <point x="284" y="-58"/>
      <point x="265" y="-62"/>
      <point x="245" y="-62" type="curve" smooth="yes"/>
      <point x="207" y="-62"/>
      <point x="184" y="-47"/>
      <point x="184" y="9" type="curve" smooth="yes"/>
      <point x="184" y="78"/>
      <point x="220" y="142"/>
      <point x="290" y="142" type="curve" smooth="yes"/>
      <point x="305" y="142"/>
      <point x="318" y="139"/>
      <point x="328" y="134" type="curve"/>
      <point x="338" y="134" type="line"/>
      <point x="361" y="237" type="line"/>
      <point x="350" y="241"/>
      <point x="320" y="245"/>
      <point x="289" y="245" type="curve" smooth="yes"/>
      <point x="132" y="245"/>
      <point x="34" y="148"/>
      <point x="34" y="-4" type="curve" smooth="yes"/>
      <point x="34" y="-101"/>
      <point x="92" y="-168"/>
    </contour>
    <contour>
      <point x="-20" y="-37" type="line"/>
      <point x="243" y="-37" type="line"/>
      <point x="254" y="27" type="line"/>
      <point x="-9" y="27" type="line"/>
    </contour>
    <contour>
      <point x="-4" y="50" type="line"/>
      <point x="259" y="50" type="line"/>
      <point x="270" y="114" type="line"/>
      <point x="7" y="114" type="line"/>
    </contour>
  </outline>
</glyph>
<glyph name="exclam.sc" format="2">
  <advance width="366"/>
  <note>
exclam.sc
</note>
  <outline>
    <contour>
      <point x="94" y="260" type="curve"/>
      <point x="274" y="260" type="line"/>
      <point x="289" y="293"/>
      <point x="314" y="376"/>
      <point x="322" y="424" type="curve" smooth="yes"/>
      <point x="326" y="448" type="line" smooth="yes"/>
      <point x="335" y="503"/>
      <point x="345" y="532"/>
      <point x="358" y="560" type="curve"/>
      <point x="354" y="572" type="line"/>
      <point x="142" y="572" type="line"/>
      <point x="110" y="424" type="line" smooth="yes"/>
      <point x="98" y="375"/>
      <point x="93" y="288"/>
    </contour>
    <contour>
      <point x="142" y="-12" type="curve" smooth="yes"/>
      <point x="225" y="-12"/>
      <point x="270" y="47"/>
      <point x="270" y="112" type="curve" smooth="yes"/>
      <point x="270" y="170"/>
      <point x="233" y="204"/>
      <point x="170" y="204" type="curve" smooth="yes"/>
      <point x="88" y="204"/>
      <point x="42" y="149"/>
      <point x="42" y="84" type="curve" smooth="yes"/>
      <point x="42" y="26"/>
      <point x="80" y="-12"/>
    </contour>
  </outline>
</glyph>
<glyph name="exclamdown.sc" format="2">
  <advance width="366"/>
  <note>
exclamdown.sc
</note>
  <outline>
    <contour>
      <point x="28" y="0" type="line"/>
      <point x="240" y="0" type="line"/>
      <point x="272" y="148" type="line" smooth="yes"/>
      <point x="284" y="197"/>
      <point x="289" y="284"/>
      <point x="288" y="312" type="curve"/>
      <point x="108" y="312" type="line"/>
      <point x="93" y="279"/>
      <point x="68" y="196"/>
      <point x="60" y="148" type="curve" smooth="yes"/>
      <point x="56" y="124" type="line" smooth="yes"/>
      <point x="47" y="69"/>
      <point x="37" y="40"/>
      <point x="24" y="12" type="curve"/>
    </contour>
    <contour>
      <point x="212" y="368" type="curve" smooth="yes"/>
      <point x="294" y="368"/>
      <point x="340" y="423"/>
      <point x="340" y="488" type="curve" smooth="yes"/>
      <point x="340" y="546"/>
      <point x="302" y="584"/>
      <point x="240" y="584" type="curve" smooth="yes"/>
      <point x="157" y="584"/>
      <point x="112" y="525"/>
      <point x="112" y="460" type="curve" smooth="yes"/>
      <point x="113" y="402"/>
      <point x="149" y="368"/>
    </contour>
  </outline>
</glyph>
<glyph name="f.inferior" format="2">
  <advance width="350"/>
  <note>
f.inferior
</note>
  <outline>
    <contour>
      <point x="-11" y="-160" type="line"/>
      <point x="156" y="-160" type="line"/>
      <point x="230" y="221" type="line"/>
      <point x="237" y="268"/>
      <point x="256" y="291"/>
      <point x="302" y="291" type="curve" smooth="yes"/>
      <point x="321" y="291"/>
      <point x="338" y="285"/>
      <point x="345" y="281" type="curve"/>
      <point x="355" y="281" type="line"/>
      <point x="377" y="400" type="line"/>
      <point x="364" y="403"/>
      <point x="331" y="407"/>
      <point x="301" y="407" type="curve" smooth="yes"/>
      <point x="171" y="407"/>
      <point x="92" y="372"/>
      <point x="62" y="218" type="curve" smooth="yes"/>
    </contour>
    <contour>
      <point x="-28" y="115" type="line"/>
      <point x="291" y="115" type="line"/>
      <point x="317" y="240" type="line"/>
      <point x="-3" y="240" type="line"/>
    </contour>
  </outline>
</glyph>
<glyph name="f.sc" format="2">
  <advance width="524"/>
  <note>
f.sc
</note>
  <anchor x="206" y="0" name="bottom"/>
  <anchor x="318" y="572" name="top"/>
  <outline>
    <contour>
      <point x="204" y="312" type="line"/>
      <point x="176" y="164" type="line"/>
      <point x="432" y="164" type="line"/>
      <point x="460" y="312" type="line"/>
    </contour>
    <contour>
      <point x="248" y="572" type="line"/>
      <point x="216" y="412" type="line"/>
      <point x="520" y="412" type="line"/>
      <point x="552" y="572" type="line"/>
    </contour>
    <contour>
      <point x="224" y="0" type="line"/>
      <point x="332" y="572" type="line"/>
      <point x="124" y="572" type="line"/>
      <point x="16" y="0" type="line"/>
    </contour>
  </outline>
</glyph>
<glyph name="f_j" format="2">
  <advance width="784"/>
  <note>
f_j
</note>
  <anchor x="378" y="0" name="caret_1"/>
  <outline>
    <contour>
      <point x="562" y="548" type="line"/>
      <point x="456" y="0" type="line" smooth="yes"/>
      <point x="446" y="-54"/>
      <point x="412" y="-76"/>
      <point x="356" y="-76" type="curve" smooth="yes"/>
      <point x="328" y="-76"/>
      <point x="316" y="-72"/>
      <point x="296" y="-64" type="curve"/>
      <point x="284" y="-64" type="line"/>
      <point x="252" y="-228" type="line"/>
      <point x="278" y="-236"/>
      <point x="312" y="-240"/>
      <point x="356" y="-240" type="curve" smooth="yes"/>
      <point x="514" y="-240"/>
      <point x="635" y="-168"/>
      <point x="670" y="12" type="curve" smooth="yes"/>
      <point x="774" y="548" type="line"/>
    </contour>
    <contour>
      <point x="688" y="620" type="curve" smooth="yes"/>
      <point x="756" y="620"/>
      <point x="812" y="668"/>
      <point x="812" y="740" type="curve" smooth="yes"/>
      <point x="812" y="788"/>
      <point x="780" y="828"/>
      <point x="716" y="828" type="curve" smooth="yes"/>
      <point x="648" y="828"/>
      <point x="592" y="780"/>
      <point x="592" y="708" type="curve" smooth="yes"/>
      <point x="592" y="660"/>
      <point x="624" y="620"/>
    </contour>
    <component base="_part.f.liga"/>
  </outline>
</glyph>
<glyph name="fehDotless-ar.fina" format="2">
  <advance width="1224"/>
  <note>
uni06A1.fina
</note>
  <anchor x="548" y="0" name="bottom"/>
  <anchor x="880" y="601" name="top"/>
  <outline>
    <contour>
      <point x="885" y="587" type="curve" smooth="yes"/>
      <point x="739" y="587"/>
      <point x="604" y="488"/>
      <point x="604" y="350" type="curve" smooth="yes"/>
      <point x="604" y="264"/>
      <point x="657" y="191"/>
      <point x="728" y="130" type="curve"/>
      <point x="777" y="176" type="line"/>
      <point x="548" y="176" type="line" smooth="yes"/>
      <point x="462" y="176"/>
      <point x="305" y="178"/>
      <point x="200" y="208" type="curve" smooth="yes"/>
      <point x="177" y="215"/>
      <point x="122" y="233"/>
      <point x="100" y="244" type="curve"/>
      <point x="88" y="244" type="line"/>
      <point x="44" y="76" type="line"/>
      <point x="70" y="64"/>
      <point x="133" y="45"/>
      <point x="172" y="36" type="curve" smooth="yes"/>
      <point x="317" y="2"/>
      <point x="430" y="0"/>
      <point x="548" y="0" type="curve" smooth="yes"/>
      <point x="680" y="0" type="line" smooth="yes"/>
      <point x="802" y="0"/>
      <point x="897" y="22"/>
      <point x="982" y="92" type="curve"/>
      <point x="819" y="86" type="line"/>
      <point x="869" y="31"/>
      <point x="939" y="0"/>
      <point x="1053" y="0" type="curve" smooth="yes"/>
      <point x="1224" y="0" type="line"/>
      <point x="1244" y="20" type="line"/>
      <point x="1244" y="176" type="line"/>
      <point x="1012" y="176" type="line"/>
      <point x="1056" y="131" type="line"/>
      <point x="1123" y="188"/>
      <point x="1168" y="254"/>
      <point x="1168" y="350" type="curve" smooth="yes"/>
      <point x="1168" y="482"/>
      <point x="1053" y="587"/>
    </contour>
    <contour>
      <point x="749" y="295" type="line"/>
      <point x="789" y="392"/>
      <point x="843" y="419"/>
      <point x="886" y="419" type="curve" smooth="yes"/>
      <point x="932" y="419"/>
      <point x="961" y="378"/>
      <point x="961" y="331" type="curve" smooth="yes"/>
      <point x="961" y="269"/>
      <point x="923" y="197"/>
      <point x="864" y="159" type="curve"/>
      <point x="924" y="178" type="line"/>
      <point x="883" y="206"/>
      <point x="805" y="313"/>
      <point x="767" y="456" type="curve"/>
    </contour>
  </outline>
</glyph>
<glyph name="fehDotless-ar.medi" format="2">
  <advance width="680"/>
  <note>
uni06A1.medi
</note>
  <anchor x="338" y="0" name="bottom"/>
  <anchor x="332" y="600" name="top"/>
  <outline>
    <contour>
      <point x="341" y="587" type="curve" smooth="yes"/>
      <point x="195" y="587"/>
      <point x="60" y="488"/>
      <point x="60" y="350" type="curve" smooth="yes"/>
      <point x="60" y="264"/>
      <point x="113" y="191"/>
      <point x="184" y="130" type="curve"/>
      <point x="233" y="176" type="line"/>
      <point x="0" y="176" type="line"/>
      <point x="-20" y="156" type="line"/>
      <point x="-20" y="0" type="line"/>
      <point x="136" y="0" type="line" smooth="yes"/>
      <point x="258" y="0"/>
      <point x="353" y="22"/>
      <point x="438" y="92" type="curve"/>
      <point x="275" y="86" type="line"/>
      <point x="325" y="31"/>
      <point x="395" y="0"/>
      <point x="509" y="0" type="curve" smooth="yes"/>
      <point x="680" y="0" type="line"/>
      <point x="700" y="20" type="line"/>
      <point x="700" y="176" type="line"/>
      <point x="468" y="176" type="line"/>
      <point x="512" y="131" type="line"/>
      <point x="579" y="188"/>
      <point x="624" y="254"/>
      <point x="624" y="350" type="curve" smooth="yes"/>
      <point x="624" y="482"/>
      <point x="509" y="587"/>
    </contour>
    <contour>
      <point x="205" y="295" type="line"/>
      <point x="245" y="392"/>
      <point x="299" y="419"/>
      <point x="342" y="419" type="curve" smooth="yes"/>
      <point x="388" y="419"/>
      <point x="417" y="378"/>
      <point x="417" y="331" type="curve" smooth="yes"/>
      <point x="417" y="269"/>
      <point x="379" y="197"/>
      <point x="320" y="159" type="curve"/>
      <point x="380" y="178" type="line"/>
      <point x="339" y="206"/>
      <point x="261" y="313"/>
      <point x="223" y="456" type="curve"/>
    </contour>
  </outline>
</glyph>
<glyph name="five.osf" format="2">
  <advance width="608"/>
  <note>
five.oldstyle
</note>
  <outline>
    <contour>
      <point x="128" y="392" type="line"/>
      <point x="564" y="392" type="line"/>
      <point x="594" y="548" type="line"/>
      <point x="264" y="548" type="line" smooth="yes"/>
      <point x="200" y="548"/>
      <point x="164" y="544"/>
      <point x="128" y="536" type="curve"/>
    </contour>
    <contour>
      <point x="52" y="120" type="line"/>
      <point x="256" y="220" type="line"/>
      <point x="275" y="320" type="line" smooth="yes"/>
      <point x="282" y="355"/>
      <point x="288" y="416"/>
      <point x="284" y="444" type="curve"/>
      <point x="284" y="516" type="line"/>
      <point x="128" y="536" type="line"/>
      <point x="124" y="524" type="line"/>
      <point x="120" y="476"/>
      <point x="108" y="416"/>
      <point x="100" y="376" type="curve" smooth="yes"/>
    </contour>
    <contour>
      <point x="8" y="8" type="line"/>
      <point x="-24" y="-148" type="line"/>
      <point x="8" y="-164"/>
      <point x="104" y="-184"/>
      <point x="180" y="-184" type="curve" smooth="yes"/>
      <point x="420" y="-184"/>
      <point x="544" y="-76"/>
      <point x="544" y="72" type="curve" smooth="yes"/>
      <point x="544" y="184"/>
      <point x="468" y="272"/>
      <point x="308" y="272" type="curve" smooth="yes"/>
      <point x="228" y="272"/>
      <point x="134" y="248"/>
      <point x="96" y="236" type="curve"/>
      <point x="52" y="120" type="line"/>
      <point x="60" y="116" type="line"/>
      <point x="97" y="124"/>
      <point x="140" y="132"/>
      <point x="212" y="132" type="curve" smooth="yes"/>
      <point x="304" y="132"/>
      <point x="340" y="108"/>
      <point x="340" y="56" type="curve" smooth="yes"/>
      <point x="340" y="8"/>
      <point x="284" y="-32"/>
      <point x="180" y="-32" type="curve" smooth="yes"/>
      <point x="104" y="-32"/>
      <point x="52" y="-12"/>
      <point x="20" y="8" type="curve"/>
    </contour>
  </outline>
</glyph>
<glyph name="five.tsc" format="2">
  <advance width="568"/>
  <note>
five.sc
</note>
  <guideline x="278" y="318" angle="78.6901"/>
  <outline>
    <contour>
      <point x="36" y="168" type="line"/>
      <point x="8" y="16" type="line"/>
      <point x="36" y="4"/>
      <point x="112" y="-12"/>
      <point x="176" y="-12" type="curve" smooth="yes"/>
      <point x="400" y="-12"/>
      <point x="512" y="64"/>
      <point x="512" y="196" type="curve" smooth="yes"/>
      <point x="512" y="284"/>
      <point x="444" y="352"/>
      <point x="308" y="352" type="curve" smooth="yes"/>
      <point x="276" y="352"/>
      <point x="248" y="348"/>
      <point x="228" y="344" type="curve"/>
      <point x="268" y="268" type="line"/>
      <point x="288" y="368" type="line" smooth="yes"/>
      <point x="294" y="400"/>
      <point x="296" y="460"/>
      <point x="296" y="476" type="curve"/>
      <point x="232" y="424" type="line"/>
      <point x="524" y="424" type="line"/>
      <point x="556" y="572" type="line"/>
      <point x="248" y="572" type="line" smooth="yes"/>
      <point x="194" y="572"/>
      <point x="164" y="567"/>
      <point x="132" y="560" type="curve"/>
      <point x="132" y="552" type="line"/>
      <point x="127" y="511"/>
      <point x="119" y="468"/>
      <point x="112" y="436" type="curve" smooth="yes"/>
      <point x="68" y="224" type="line"/>
      <point x="76" y="220" type="line"/>
      <point x="107" y="225"/>
      <point x="140" y="232"/>
      <point x="200" y="232" type="curve" smooth="yes"/>
      <point x="276" y="232"/>
      <point x="304" y="216"/>
      <point x="304" y="192" type="curve" smooth="yes"/>
      <point x="304" y="148"/>
      <point x="256" y="136"/>
      <point x="180" y="136" type="curve" smooth="yes"/>
      <point x="116" y="136"/>
      <point x="76" y="152"/>
      <point x="48" y="168" type="curve"/>
    </contour>
  </outline>
</glyph>
<glyph name="four.tsc" format="2">
  <advance width="568"/>
  <note>
four.sc
</note>
  <outline>
    <contour>
      <point x="440" y="0" type="line"/>
      <point x="524" y="436" type="line" smooth="yes"/>
      <point x="530" y="468"/>
      <point x="547" y="524"/>
      <point x="560" y="552" type="curve"/>
      <point x="560" y="560" type="line"/>
      <point x="532" y="568"/>
      <point x="492" y="576"/>
      <point x="440" y="576" type="curve" smooth="yes"/>
      <point x="300" y="576"/>
      <point x="172" y="567"/>
      <point x="92" y="380" type="curve" smooth="yes"/>
      <point x="32" y="240" type="line"/>
      <point x="8" y="108" type="line"/>
      <point x="508" y="108" type="line"/>
      <point x="540" y="260" type="line"/>
      <point x="144" y="260" type="line"/>
      <point x="192" y="192" type="line"/>
      <point x="268" y="360" type="line" smooth="yes"/>
      <point x="284" y="396"/>
      <point x="292" y="416"/>
      <point x="340" y="416" type="curve" smooth="yes"/>
      <point x="360" y="416"/>
      <point x="376" y="412"/>
      <point x="392" y="404" type="curve"/>
      <point x="352" y="464" type="line"/>
      <point x="336" y="440"/>
      <point x="326" y="416"/>
      <point x="320" y="384" type="curve" smooth="yes"/>
      <point x="248" y="0" type="line"/>
    </contour>
  </outline>
</glyph>
<glyph name="g.sc" format="2">
  <advance width="647"/>
  <note>
g.sc
</note>
  <anchor x="268" y="0" name="bottom"/>
  <anchor x="380" y="572" name="top"/>
  <outline>
    <contour>
      <point x="372" y="-12" type="curve" smooth="yes"/>
      <point x="420" y="-12"/>
      <point x="500" y="0"/>
      <point x="544" y="16" type="curve"/>
      <point x="600" y="296" type="line"/>
      <point x="408" y="296" type="line"/>
      <point x="360" y="60" type="line"/>
      <point x="424" y="168" type="line"/>
      <point x="400" y="152"/>
      <point x="376" y="144"/>
      <point x="356" y="144" type="curve" smooth="yes"/>
      <point x="272" y="144"/>
      <point x="248" y="204"/>
      <point x="248" y="260" type="curve" smooth="yes"/>
      <point x="248" y="360"/>
      <point x="312" y="424"/>
      <point x="452" y="424" type="curve" smooth="yes"/>
      <point x="512" y="424"/>
      <point x="556" y="412"/>
      <point x="580" y="400" type="curve"/>
      <point x="592" y="400" type="line"/>
      <point x="624" y="564" type="line"/>
      <point x="580" y="576"/>
      <point x="508" y="584"/>
      <point x="444" y="584" type="curve" smooth="yes"/>
      <point x="188" y="584"/>
      <point x="32" y="448"/>
      <point x="32" y="252" type="curve" smooth="yes"/>
      <point x="32" y="84"/>
      <point x="144" y="-12"/>
    </contour>
  </outline>
</glyph>
